<?xml version="1.0" encoding="UTF-8"?><svg id="Layer_1" xmlns="http://www.w3.org/2000/svg" viewBox="0 0 1500 433"><g id="Artwork_2"><path d="m16.85,148.46h47.13c8.84,0,15.91,1.18,21.21,3.53,5.3,2.36,10.01,5.3,12.96,8.84,2.95,3.53,5.3,7.66,6.48,12.37,1.18,4.71,1.77,8.84,1.77,12.96s-.59,8.25-1.77,12.96c-1.18,4.71-3.53,8.25-6.48,12.37-2.95,3.53-7.66,6.48-12.96,8.84s-12.37,3.53-21.21,3.53h-28.87v58.91h-18.26v-134.32Zm18.26,59.5h24.15c3.53,0,7.07,0,10.6-.59s6.48-1.77,9.43-2.95c2.95-1.77,4.71-3.53,6.48-6.48s2.36-6.48,2.36-11.19-.59-8.25-2.36-11.19c-1.77-2.95-3.53-5.3-6.48-6.48-2.95-1.77-5.89-2.36-9.43-2.95s-7.07-.59-10.6-.59h-24.15v42.42Z" style="fill:#fff; stroke-width:0px;"/><path d="m124.06,193.23h17.08v14.14h.59c1.18-2.36,2.95-4.71,4.71-6.48s4.12-3.53,6.48-5.3c2.36-1.18,4.71-2.36,7.66-3.53,2.95-.59,5.3-1.18,8.25-1.18s5.3.59,7.66,1.18l-.59,18.26c-1.18-.59-2.95-.59-4.12-1.18-1.18,0-2.95-.59-4.12-.59-8.25,0-14.73,2.36-19.44,7.07s-6.48,11.78-6.48,21.8v45.36h-17.08v-89.55h-.59Z" style="fill:#fff; stroke-width:0px;"/><path d="m187.1,238c0-6.48,1.18-12.96,3.53-18.26,2.36-5.89,5.89-10.6,10.01-14.73,4.12-4.12,9.43-7.66,15.32-10.01s12.37-3.53,18.85-3.53,12.96,1.18,18.85,3.53c5.89,2.36,10.6,5.89,15.32,10.01,4.12,4.12,7.66,9.43,10.01,14.73,2.36,5.89,3.53,11.78,3.53,18.26s-1.18,12.96-3.53,18.26c-2.36,5.89-5.89,10.6-10.01,14.73s-9.43,7.66-15.32,10.01-12.37,3.53-18.85,3.53-12.96-1.18-18.85-3.53c-5.89-2.36-10.6-5.89-15.32-10.01-4.12-4.12-7.66-9.43-10.01-14.73-2.36-5.3-3.53-11.78-3.53-18.26m18.26,0c0,4.71.59,8.84,2.36,12.37,1.18,4.12,3.53,7.07,5.89,10.01s5.89,4.71,9.43,6.48,7.66,2.36,12.37,2.36,8.84-.59,12.37-2.36c3.53-1.77,6.48-3.53,9.43-6.48,2.36-2.95,4.71-5.89,5.89-10.01s2.36-8.25,2.36-12.37c0-4.71-.59-8.84-2.36-12.37-1.18-4.12-3.53-7.07-5.89-10.01s-5.89-4.71-9.43-6.48-7.66-2.36-12.37-2.36-8.84.59-12.37,2.36c-3.53,1.77-6.48,3.53-9.43,6.48-2.36,2.95-4.71,5.89-5.89,10.01-1.77,3.53-2.36,7.66-2.36,12.37" style="fill:#fff; stroke-width:0px;"/><path d="m352.64,215.62c-1.77-2.36-4.71-4.71-7.66-6.48s-6.48-2.36-11.19-2.36c-4.12,0-7.66.59-10.6,2.36-2.95,1.77-4.71,4.12-4.71,7.66,0,2.95.59,4.71,2.36,6.48,1.77,1.77,3.53,2.95,5.89,4.12s4.71,1.77,7.66,2.36c2.95.59,4.71,1.18,7.07,1.18,3.53,1.18,7.07,1.77,10.6,2.95,2.95,1.18,5.89,2.95,8.25,4.71s4.12,4.71,5.3,7.66,1.77,6.48,1.77,10.6c0,5.3-1.18,9.43-2.95,12.96-2.36,3.53-4.71,6.48-8.25,8.84-3.53,2.36-7.07,4.12-11.78,4.71-4.12,1.18-8.84,1.77-12.96,1.77-7.66,0-14.14-1.18-19.44-3.53-5.89-2.36-10.6-6.48-15.32-12.37l12.96-10.6c2.95,2.95,5.89,5.3,9.43,7.66,3.53,2.36,7.66,2.95,12.37,2.95,2.36,0,4.12,0,6.48-.59,2.36-.59,4.12-1.18,5.89-2.36s2.95-2.36,4.12-3.53c1.18-1.18,1.77-2.95,1.77-5.3s-.59-4.71-2.36-6.48c-1.77-1.77-3.53-2.95-5.89-4.12s-4.71-1.77-7.07-2.36c-2.36-.59-4.71-1.18-6.48-1.18-3.53-1.18-7.07-1.77-10.6-2.95s-6.48-2.95-8.84-4.71-4.71-4.12-5.89-7.07c-1.77-2.95-2.36-6.48-2.36-10.6,0-4.71,1.18-8.84,2.95-12.37s4.71-6.48,7.66-8.84,7.07-4.12,11.19-5.3,8.25-1.77,12.37-1.77c5.89,0,11.78,1.18,17.67,3.53,5.3,2.36,10.01,5.89,13.55,11.19l-12.96,11.19Z" style="fill:#fff; stroke-width:0px;"/><path d="m392.11,193.23h17.08v12.96h.59c3.53-4.71,7.66-8.25,13.55-11.19s11.78-4.12,17.67-4.12c7.07,0,12.96,1.18,18.85,3.53,5.89,2.36,10.6,5.89,14.14,10.01,4.12,4.12,7.07,9.43,9.43,15.32s2.95,11.78,2.95,18.26-1.18,12.96-2.95,18.85c-2.36,5.89-5.3,10.6-9.43,14.73s-8.84,7.66-14.14,10.01c-5.89,2.36-11.78,3.53-18.85,3.53-6.48,0-12.37-1.18-18.26-4.12s-10.01-6.48-12.96-11.19h-.59v66.57h-17.08v-143.16Zm46.54,13.55c-4.71,0-8.84.59-12.37,2.36-3.53,1.77-6.48,3.53-9.43,6.48-2.36,2.95-4.71,5.89-5.89,10.01s-2.36,8.25-2.36,12.37c0,4.71.59,8.84,2.36,12.37,1.18,4.12,3.53,7.07,5.89,10.01s5.89,4.71,9.43,6.48,7.66,2.36,12.37,2.36,8.84-.59,12.37-2.36c3.53-1.77,6.48-3.53,9.43-6.48,2.36-2.95,4.71-5.89,5.89-10.01s2.36-8.25,2.36-12.37c0-4.71-.59-8.84-2.36-12.37-1.18-4.12-3.53-7.07-5.89-10.01s-5.89-4.71-9.43-6.48-7.66-2.36-12.37-2.36" style="fill:#fff; stroke-width:0px;"/><path d="m523.49,244.48c0,4.12.59,7.66,2.36,10.6s4.12,5.89,6.48,8.25c2.95,2.36,5.89,4.12,9.43,5.3s7.66,1.77,11.19,1.77c5.3,0,10.01-1.18,14.14-3.53,4.12-2.36,7.66-5.89,10.6-10.01l12.96,10.01c-9.43,12.37-22.98,18.26-40.06,18.26-7.07,0-13.55-1.18-19.44-3.53-5.89-2.36-10.6-5.89-14.73-10.01s-7.07-9.43-9.43-14.73c-2.36-5.89-2.95-11.78-2.95-18.85,0-6.48,1.18-12.96,3.53-18.85s5.3-10.6,9.43-14.73,8.84-7.66,14.73-10.01,11.78-3.53,18.85-3.53c8.25,0,14.73,1.18,20.03,4.12s10.01,6.48,13.55,11.19c3.53,4.71,5.89,9.43,7.66,15.32s2.36,11.19,2.36,17.08v5.89h-70.69Zm54.2-14.14c0-3.53-.59-7.07-1.77-10.6-1.18-2.95-2.95-5.89-4.71-8.25-2.36-2.36-4.71-4.12-8.25-5.3-2.95-1.18-7.07-1.77-11.19-1.77s-8.25.59-11.19,2.36c-3.53,1.77-6.48,3.53-8.84,5.89s-4.12,5.3-5.89,8.25c-1.18,2.95-1.77,5.89-1.77,9.43h53.61Z" style="fill:#fff; stroke-width:0px;"/><path d="m620.69,193.23h17.08v14.14h.59c1.18-2.36,2.95-4.71,4.71-6.48s4.12-3.53,6.48-5.3c2.36-1.18,4.71-2.36,7.66-3.53,2.95-.59,5.3-1.18,8.25-1.18s5.3.59,7.66,1.18l-.59,18.26c-1.18-.59-2.95-.59-4.12-1.18-1.18,0-2.95-.59-4.12-.59-8.25,0-14.73,2.36-19.44,7.07s-6.48,11.78-6.48,21.8v45.36h-17.08v-89.55h-.59Z" style="fill:#fff; stroke-width:0px;"/><path d="m15.08,302.22h12.37c1.18,0,2.95,0,4.12.59,1.18,0,2.95.59,4.12,1.18,1.18.59,1.77,1.18,2.95,2.36.59,1.18,1.18,2.36,1.18,4.12s-.59,3.53-1.77,4.71c-1.18,1.18-2.36,2.36-4.12,2.36h0c1.18,0,1.77.59,2.95,1.18.59.59,1.77,1.18,2.36,1.77s1.18,1.77,1.18,2.36c.59,1.18.59,1.77.59,2.95,0,1.77-.59,2.95-1.18,4.12s-1.77,2.36-2.95,2.95-2.36,1.18-4.12,1.77c-1.18.59-2.95.59-4.12.59h-13.55v-32.99Zm7.66,13.55h7.07c.59,0,1.18-.59,1.18-.59.59,0,.59-.59,1.18-1.18v-2.36c0-.59,0-1.18-.59-1.77,0-.59-.59-.59-1.18-1.18-.59,0-1.18-.59-1.77-.59h-5.89v7.66Zm0,12.96h8.25c.59,0,1.18-.59,1.77-.59q.59-.59,1.18-1.18c0-.59.59-1.18.59-1.77s0-1.18-.59-1.77-.59-.59-1.18-1.18c-.59,0-1.18-.59-1.77-.59h-8.25v7.07Z" style="fill:#fff; stroke-width:0px;"/><path d="m91.66,322.25c0,1.77,0,3.53-.59,5.3-.59,1.77-1.18,2.95-2.36,4.12s-2.36,2.36-4.12,2.95-3.53,1.18-5.89,1.18-4.12-.59-5.89-1.18c-1.77-.59-2.95-1.77-4.12-2.95s-1.77-2.36-2.36-4.12c-.59-1.77-.59-3.53-.59-5.3v-20.03h7.07v20.03c0,1.18,0,1.77.59,2.95.59.59.59,1.77,1.18,2.36.59.59,1.18,1.18,2.36,1.77.59.59,1.77.59,2.95.59s1.77,0,2.36-.59c.59-.59,1.77-.59,2.36-1.77.59-.59,1.18-1.18,1.18-2.36.59-.59.59-1.77.59-2.95v-20.03h7.07v20.03h-1.77Z" style="fill:#fff; stroke-width:0px;"/><path d="m134.08,310.46c-.59-.59-1.18-1.18-2.36-1.77-1.18-.59-1.77-.59-2.95-.59h-1.77c-.59,0-1.18.59-1.77.59s-1.18.59-1.18,1.18c-.59.59-.59,1.18-.59,1.77,0,1.18.59,1.77,1.18,2.36.59.59,1.77,1.18,2.95,1.18,1.18.59,2.36.59,3.53,1.18,1.18.59,2.36,1.18,3.53,1.77s1.77,1.77,2.95,2.95c.59,1.18,1.18,2.95,1.18,4.71s-.59,3.53-1.18,4.71-1.77,2.36-2.95,3.53c-1.18,1.18-2.36,1.77-4.12,1.77h-4.12c-2.36,0-4.12-.59-5.89-1.18-1.77-.59-3.53-1.77-5.3-2.95l5.3-5.89c.59,1.18,1.77,1.77,2.95,2.36,1.18.59,2.36.59,3.53.59h1.77c.59,0,1.18-.59,1.77-.59s.59-.59,1.18-1.18c0-.59.59-1.18.59-1.77,0-1.18-.59-1.77-1.18-2.36-.59-.59-1.77-1.18-2.95-1.18-1.18-.59-2.36-.59-3.53-1.18-1.18-.59-2.36-1.18-3.53-1.77s-2.36-1.77-2.95-2.95-1.18-2.36-1.18-4.12.59-3.53,1.18-4.71,1.77-2.36,2.95-3.53c1.18-1.18,2.36-1.77,4.12-1.77,1.77-.59,2.95-.59,4.71-.59s3.53,0,5.3.59,3.53,1.18,4.71,2.36l-5.89,6.48Z" style="fill:#fff; stroke-width:0px;"/><rect x="163.54" y="302.22" width="7.07" height="32.4" style="fill:#fff; stroke-width:0px;"/><polygon points="196.53 302.22 205.95 302.22 220.09 325.19 220.09 325.19 220.09 302.22 227.16 302.22 227.16 335.21 217.73 335.21 203.6 311.64 203.6 311.64 203.6 335.21 196.53 335.21 196.53 302.22" style="fill:#fff; stroke-width:0px;"/><polygon points="253.08 302.22 275.47 302.22 275.47 309.29 260.74 309.29 260.74 315.18 274.88 315.18 274.88 321.66 260.74 321.66 260.74 328.73 276.65 328.73 276.65 335.21 253.08 335.21 253.08 302.22" style="fill:#fff; stroke-width:0px;"/><path d="m317.29,310.46c-.59-.59-1.18-1.18-2.36-1.77s-1.77-.59-2.95-.59h-1.77c-.59,0-1.18.59-1.77.59s-1.18.59-1.18,1.18c-.59.59-.59,1.18-.59,1.77,0,1.18.59,1.77,1.18,2.36s1.77,1.18,2.95,1.18c1.18.59,2.36.59,3.53,1.18,1.18.59,2.36,1.18,3.53,1.77,1.18.59,1.77,1.77,2.95,2.95.59,1.18,1.18,2.95,1.18,4.71s-.59,3.53-1.18,4.71c-.59,1.18-1.77,2.36-2.95,3.53-1.18,1.18-2.36,1.77-4.12,1.77h-4.12c-2.36,0-4.12-.59-5.89-1.18-1.77-.59-3.53-1.77-5.3-2.95l5.3-5.89c.59,1.18,1.77,1.77,2.95,2.36,1.18.59,2.36.59,3.53.59h1.77c.59,0,1.18-.59,1.77-.59s.59-.59,1.18-1.18c0-.59.59-1.18.59-1.77,0-1.18-.59-1.77-1.18-2.36s-1.77-1.18-2.95-1.18c-1.18-.59-2.36-.59-3.53-1.18-1.18-.59-2.36-1.18-3.53-1.77-1.18-.59-2.36-1.77-2.95-2.95s-1.18-2.36-1.18-4.12.59-3.53,1.18-4.71c.59-1.18,1.77-2.36,2.95-3.53,1.18-1.18,2.36-1.77,4.12-1.77,1.77-.59,2.95-.59,4.71-.59s3.53,0,5.3.59c1.77.59,3.53,1.18,4.71,2.36l-5.89,6.48Z" style="fill:#fff; stroke-width:0px;"/><path d="m363.25,310.46c-.59-.59-1.18-1.18-2.36-1.77s-1.77-.59-2.95-.59h-1.77c-.59,0-1.18.59-1.77.59s-1.18.59-1.18,1.18c-.59.59-.59,1.18-.59,1.77,0,1.18.59,1.77,1.18,2.36s1.77,1.18,2.95,1.18c1.18.59,2.36.59,3.53,1.18,1.18.59,2.36,1.18,3.53,1.77,1.18.59,1.77,1.77,2.95,2.95.59,1.18,1.18,2.95,1.18,4.71s-.59,3.53-1.18,4.71c-.59,1.18-1.77,2.36-2.95,3.53-1.18,1.18-2.36,1.77-4.12,1.77h-4.12c-2.36,0-4.12-.59-5.89-1.18-1.77-.59-3.53-1.77-5.3-2.95l5.3-5.89c.59,1.18,1.77,1.77,2.95,2.36,1.18.59,2.36.59,3.53.59h1.77c.59,0,1.18-.59,1.77-.59s.59-.59,1.18-1.18c0-.59.59-1.18.59-1.77,0-1.18-.59-1.77-1.18-2.36s-1.77-1.18-2.95-1.18c-1.18-.59-2.36-.59-3.53-1.18-1.18-.59-2.36-1.18-3.53-1.77-1.18-.59-2.36-1.77-2.95-2.95s-1.18-2.36-1.18-4.12.59-3.53,1.18-4.71c.59-1.18,1.77-2.36,2.95-3.53,1.18-1.18,2.36-1.77,4.12-1.77,1.77-.59,2.95-.59,4.71-.59s3.53,0,5.3.59c1.77.59,3.53,1.18,4.71,2.36l-5.89,6.48Z" style="fill:#fff; stroke-width:0px;"/><polygon points="428.64 301.63 438.06 301.63 452.2 324.01 452.2 324.01 452.2 301.63 459.27 301.63 459.27 334.03 449.85 334.03 435.71 311.05 435.71 311.05 435.71 334.03 428.64 334.03 428.64 301.63" style="fill:#fff; stroke-width:0px;"/><polygon points="483.43 301.63 505.81 301.63 505.81 308.11 490.49 308.11 490.49 314 504.63 314 504.63 321.07 490.49 321.07 490.49 327.55 506.4 327.55 506.4 334.03 483.43 334.03 483.43 301.63" style="fill:#fff; stroke-width:0px;"/><polygon points="535.27 308.11 526.43 308.11 526.43 301.63 551.76 301.63 551.76 308.11 542.93 308.11 542.93 334.03 535.27 334.03 535.27 308.11" style="fill:#fff; stroke-width:0px;"/><polygon points="569.44 301.63 577.09 301.63 582.4 322.25 582.4 322.25 589.47 301.63 595.95 301.63 602.43 322.84 603.02 322.84 608.32 301.63 615.39 301.63 605.96 334.03 599.48 334.03 592.41 311.64 592.41 311.64 585.34 334.03 578.86 334.03 569.44 301.63" style="fill:#fff; stroke-width:0px;"/><path d="m634.24,318.12c0-2.36.59-4.71,1.18-7.07s2.36-4.12,3.53-5.3c1.77-1.77,3.53-2.36,5.3-3.53,2.36-.59,4.71-1.18,7.07-1.18s4.71.59,7.07,1.18c2.36.59,4.12,1.77,5.3,3.53,1.77,1.77,2.95,3.53,3.53,5.3.59,2.36,1.18,4.71,1.18,7.07s-.59,4.71-1.18,7.07-2.36,4.12-3.53,5.3c-1.77,1.77-3.53,2.36-5.3,3.53-2.36.59-4.71,1.18-7.07,1.18s-4.71-.59-7.07-1.18c-2.36-.59-4.12-1.77-5.3-3.53-1.77-1.77-2.95-3.53-3.53-5.3-1.18-2.36-1.18-4.71-1.18-7.07m7.07,0c0,1.77,0,2.95.59,4.12s1.18,2.36,1.77,3.53c1.18,1.18,1.77,1.77,2.95,2.36,1.18.59,2.36.59,4.12.59s2.95,0,4.12-.59,2.36-1.18,2.95-2.36c1.18-1.18,1.77-1.77,1.77-3.53.59-1.18.59-2.95.59-4.12,0-1.77,0-2.95-.59-4.12s-1.18-2.36-1.77-3.53c-1.18-1.18-1.77-1.77-2.95-2.36-1.18-.59-2.36-.59-4.12-.59s-2.95,0-4.12.59-2.36,1.18-2.95,2.36c-1.18,1.18-1.77,1.77-1.77,3.53,0,1.18-.59,2.36-.59,4.12" style="fill:#fff; stroke-width:0px;"/><path d="m691.38,301.63h12.37c1.77,0,2.95,0,4.71.59s2.95.59,4.12,1.77c1.18.59,1.77,1.77,2.95,2.95.59,1.18,1.18,2.95,1.18,4.71,0,2.36-.59,4.12-1.77,5.89-1.18,1.77-2.95,2.36-5.3,2.95l8.25,13.55h-8.84l-7.07-12.96h-3.53v12.96h-7.07v-32.4Zm7.07,13.55h5.89c.59,0,1.18,0,1.77-.59.59,0,1.18-.59,1.18-1.18.59-.59.59-1.18.59-2.36,0-.59,0-1.77-.59-1.77q-.59-.59-1.18-1.18c-.59,0-1.18-.59-1.77-.59h-6.48v7.66h.59Z" style="fill:#fff; stroke-width:0px;"/><polygon points="738.51 301.63 745.58 301.63 745.58 315.18 758.54 301.63 767.97 301.63 753.24 316.94 769.15 334.03 759.13 334.03 745.58 318.71 745.58 334.03 738.51 334.03 738.51 301.63" style="fill:#fff; stroke-width:0px;"/><path d="m743.23,210.9c-7.66-7.66-17.08-6.48-17.08-6.48-3.53,0-5.89.59-8.84,1.18-2.36.59-4.71,1.18-6.48,2.36-1.77,1.18-4.12,1.77-5.3,3.53-1.77,1.18-2.95,2.36-4.71,3.53l-10.01-10.6c4.71-4.71,10.6-7.66,16.5-10.01,6.48-2.36,12.37-3.53,18.85-3.53s12.37.59,17.08,2.36c0,0,7.07,2.36,10.01,7.66l-10.01,10.01Z" style="fill:#fff; stroke-width:0px;"/><path d="m763.84,266.87v-41.83c0-2.36,0-4.71-.59-6.48-5.3,4.12-11.19,7.07-15.32,8.84v.59h-12.37c-7.07,0-12.96.59-19.44,1.77-5.89,1.18-11.19,2.95-15.91,5.3-4.71,2.36-8.25,5.89-10.6,9.43-2.36,4.12-4.12,8.84-4.12,14.73,0,4.71.59,8.25,2.36,11.78s4.12,5.89,6.48,8.25c2.95,2.36,5.89,4.12,10.01,5.3,3.53,1.18,7.66,1.77,11.78,1.77,7.07,0,12.96-1.18,18.26-3.53,5.3-2.36,9.43-6.48,13.55-12.37h.59c0,4.71,0,8.84.59,13.55h15.32c0-2.36-.59-4.71-.59-7.66,0-3.53,0-6.48,0-9.43m-16.5-21.21c0,2.95-.59,5.89-1.18,9.43-1.18,2.95-2.36,5.89-4.12,8.25-1.77,2.36-4.71,4.71-8.25,5.89-3.53,1.77-7.07,2.36-11.78,2.36-5.89,0-10.6-1.18-14.14-3.53-3.53-2.36-5.3-5.89-5.3-11.19,0-3.53,1.18-6.48,3.53-8.84s5.3-4.12,8.25-5.3c3.53-1.18,7.07-2.36,11.78-2.36,4.12-.59,8.25-.59,12.37-.59h8.84v5.89Z" style="fill:#fff; stroke-width:0px;"/><path d="m826.29,126.07c0,.59-.59.59,0,0-23.56,33.58-71.28,81.89-88.37,98.38,15.32-7.66,50.07-26.51,79.53-54.2,4.12-15.32,7.07-30.63,8.84-44.18" style="fill:#f9b46c; stroke-width:0px;"/><path d="m883.43,11.19c-4.71,11.19-15.32,35.35-28.28,59.5,2.95,11.78,4.71,24.74,3.53,38.29,21.21-39.47,24.15-81.3,24.74-97.79" style="fill:#f9b46c; stroke-width:0px;"/><path d="m855.75,107.81c0-40.65-21.21-75.41-29.46-88.37,2.36,13.55,7.66,48.31,7.66,78.35,0,5.89,0,11.78-.59,17.08-2.95,32.99-18.85,86.01-25.33,105.45,12.37-15.32,43.59-58.32,47.72-102.51v-10.01" style="fill:#f3901d; stroke-width:0px;"/><path d="m876.37,77.17c-3.53,12.96-8.84,26.51-15.91,39.47,27.1-24.15,41.24-54.79,47.13-67.75-6.48,5.89-17.67,16.5-31.22,28.28m-46.54,34.76c-1.18.59-2.36,1.18-2.95,1.77-30.63,18.26-87.78,38.29-107.81,45.36,15.32.59,49.49,0,83.07-10.01,9.43-10.6,18.26-21.8,24.74-31.22.59-1.77,2.95-5.89,2.95-5.89" style="fill:#fdd7af; stroke-width:0px;"/></g><path d="m891.68,223.27h28.87c13.55,0,28.28,2.95,28.28,19.44,0,8.84-5.3,14.73-13.55,17.08h0c10.01,1.18,17.08,8.84,17.08,18.85,0,15.91-15.32,21.8-28.87,21.8h-31.81v-77.17Zm17.08,31.22h12.37c5.3,0,10.6-2.36,10.6-8.25,0-6.48-5.89-8.25-11.19-8.25h-11.78v16.5h0Zm0,31.81h15.32c5.3,0,11.19-2.36,11.19-8.84,0-7.07-8.25-8.25-13.55-8.25h-12.96v17.08Z" style="fill:#fff; stroke-width:0px;"/><path d="m1005.38,301.04h-15.91v-7.07h0c-2.36,4.12-7.66,8.25-15.32,8.25-16.5,0-19.44-11.19-19.44-25.33v-29.46h16.5v25.92c0,5.89,0,14.14,8.25,14.14s10.01-6.48,10.01-13.55v-26.51h16.5v53.61h-.59Z" style="fill:#fff; stroke-width:0px;"/><path d="m1040.14,263.33c-2.36-2.95-5.3-4.71-9.43-4.71-2.95,0-5.89,1.18-5.89,4.12,0,7.66,27.69,1.18,27.69,21.21,0,13.55-12.96,17.67-24.74,17.67-7.66,0-15.91-1.77-20.62-7.07l10.01-11.19c2.95,3.53,6.48,5.89,11.78,5.89,3.53,0,7.66-1.18,7.66-4.12,0-8.25-27.69-1.18-27.69-21.8,0-12.37,11.19-17.67,22.39-17.67,7.07,0,14.73,1.77,19.44,7.07l-10.6,10.6Z" style="fill:#fff; stroke-width:0px;"/><path d="m1062.53,221.51c5.3,0,9.43,4.12,9.43,9.43s-4.12,9.43-9.43,9.43-9.43-4.12-9.43-9.43c0-5.3,4.71-9.43,9.43-9.43Zm-7.66,25.92h16.5v53.02h-16.5v-53.02Z" style="fill:#fff; stroke-width:0px;"/><path d="m1076.08,247.43h15.91v7.07h0c2.36-4.12,7.66-8.25,15.32-8.25,16.5,0,19.44,11.19,19.44,25.33v29.46h-16.5v-25.92c0-5.89,0-14.14-8.25-14.14s-10.01,6.48-10.01,13.55v26.51h-16.5v-53.61h.59Z" style="fill:#fff; stroke-width:0px;"/><path d="m1182.71,291.61c-5.3,6.48-14.14,10.6-22.39,10.6-16.5,0-29.46-11.19-29.46-27.69s12.96-27.69,29.46-27.69c15.32,0,24.74,11.19,24.74,27.69v5.3h-38.29c1.18,6.48,5.89,10.01,12.37,10.01,5.3,0,8.84-2.95,11.78-6.48l11.78,8.25Zm-13.55-23.56c0-5.3-4.12-10.01-10.01-10.01-7.07,0-11.19,4.71-11.78,10.01h21.8Z" style="fill:#fff; stroke-width:0px;"/><path d="m1218.64,263.33c-2.36-2.95-5.3-4.71-9.43-4.71-2.95,0-5.89,1.18-5.89,4.12,0,7.66,27.69,1.18,27.69,21.21,0,13.55-12.96,17.67-24.74,17.67-7.66,0-15.91-1.77-20.62-7.07l10.01-11.19c2.95,3.53,6.48,5.89,11.78,5.89,3.53,0,7.66-1.18,7.66-4.12,0-8.25-27.69-1.18-27.69-21.8,0-12.37,11.19-17.67,22.39-17.67,7.07,0,14.73,1.77,19.44,7.07l-10.6,10.6Z" style="fill:#fff; stroke-width:0px;"/><path d="m1262.83,263.33c-2.36-2.95-5.3-4.71-9.43-4.71-2.95,0-5.89,1.18-5.89,4.12,0,7.66,27.69,1.18,27.69,21.21,0,13.55-12.96,17.67-24.74,17.67-7.66,0-15.91-1.77-20.62-7.07l10.01-11.19c2.95,3.53,6.48,5.89,11.78,5.89,3.53,0,7.66-1.18,7.66-4.12,0-8.25-27.69-1.18-27.69-21.8,0-12.37,11.19-17.67,22.39-17.67,7.07,0,14.73,1.77,19.44,7.07l-10.6,10.6Z" style="fill:#fff; stroke-width:0px;"/><path d="m890.5,355.83h22.98v-22.98h13.55v22.98h22.98v13.55h-22.98v22.98h-13.55v-22.98h-22.98v-13.55Z" style="fill:#fff; stroke-width:0px;"/><path d="m993.6,381.75c-12.37,0-21.8-10.6-21.8-24.74s9.43-24.74,22.39-24.74c6.48,0,11.19,2.36,14.73,6.48l12.96-10.6c-6.48-8.25-17.67-11.19-25.92-11.19-24.15,0-41.83,15.91-41.83,40.65s17.67,40.65,41.83,40.65c10.6,0,21.8-4.12,28.28-13.55l-14.14-10.6c-4.12,4.71-9.43,7.66-16.5,7.66Z" style="fill:#f18521; stroke-width:0px;"/><path d="m1051.92,341.1c-16.5,0-29.46,11.19-29.46,27.69s12.96,27.69,29.46,27.69,29.46-11.19,29.46-27.69-12.96-27.69-29.46-27.69Zm0,41.24c-8.25,0-12.96-5.3-12.96-13.55s4.71-13.55,12.96-13.55,12.96,5.3,12.96,13.55-4.71,13.55-12.96,13.55Z" style="fill:#f18521; stroke-width:0px;"/><path d="m1149.13,341.1c-7.66,0-12.96,2.95-17.08,9.43-2.95-6.48-8.84-9.43-16.5-9.43-8.25,0-13.55,4.12-15.32,8.25h0v-7.07h-15.91v53.02h16.5v-26.51c0-7.07,1.18-13.55,10.01-13.55,7.66,0,7.07,8.25,7.07,11.78v28.28h16.5v-28.28c0-6.48,2.36-11.78,10.01-11.78,5.3,0,7.07,4.12,7.07,8.84v31.22h16.5v-31.22c0-12.37-4.12-22.98-18.85-22.98Z" style="fill:#f18521; stroke-width:0px;"/><path d="m1238.08,341.1c-7.66,0-12.96,2.95-17.08,9.43-2.95-6.48-8.84-9.43-16.5-9.43-8.25,0-13.55,4.12-15.32,8.25h0v-7.07h-15.91v53.02h16.5v-26.51c0-7.07,1.18-13.55,10.01-13.55,7.66,0,7.07,8.25,7.07,11.78v28.28h16.5v-28.28c0-6.48,2.36-11.78,10.01-11.78,5.3,0,7.07,4.12,7.07,8.84v31.22h16.5v-31.22c0-12.37-4.71-22.98-18.85-22.98Z" style="fill:#f18521; stroke-width:0px;"/><path d="m1296.4,368.79c0,7.07-1.18,13.55-10.01,13.55-8.25,0-8.25-7.66-8.25-14.14v-25.92h-16.5v29.46c0,14.14,2.95,25.33,19.44,25.33,8.25,0,13.55-4.12,15.32-8.25h0v7.07h15.91v-53.02h-16.5v25.92h.59Z" style="fill:#f18521; stroke-width:0px;"/><path d="m1349.43,341.1c-8.25,0-13.55,4.12-15.32,8.25h0v-7.07h-15.91v53.02h16.5v-26.51c0-7.07,1.18-13.55,10.01-13.55,8.25,0,8.25,7.66,8.25,14.14v25.92h16.5v-29.46c0-13.55-2.95-24.74-20.03-24.74Z" style="fill:#f18521; stroke-width:0px;"/><circle cx="1383" cy="325.78" r="9.43" style="fill:#f18521; stroke-width:0px;"/><path d="m1471.96,342.28l-11.78,35.35h0l-13.55-35.35h-28.28v-15.91h-16.5v15.91h-27.1v53.02h16.5v-40.06h10.6v25.33c0,11.78,8.25,15.91,19.44,15.91,4.12,0,7.66-.59,11.19-1.77v-13.55c-1.18,1.18-4.71,1.77-6.48,1.77-7.07,0-7.66-4.12-7.66-10.01v-17.67h16.5l17.67,40.65-1.18,2.95c-2.36,5.89-3.53,8.84-11.19,8.84-2.95,0-5.3-.59-7.66-1.77l-2.36,13.55c4.12,1.18,8.25,1.77,12.37,1.77,15.91,0,18.26-6.48,22.39-17.67l24.15-61.86h-17.08v.59Z" style="fill:#f18521; stroke-width:0px;"/></svg>