<?xml version="1.0" encoding="UTF-8"?><svg id="Layer_1" xmlns="http://www.w3.org/2000/svg" viewBox="0 0 361.19 543.87"><g id="_Grid_Repeat_"><polyline points="0 46.31 44.99 46.31 44.99 91.29" style="fill:none; stroke:#0978ff; stroke-miterlimit:10; stroke-width:.5px;"/></g><g id="_Grid_Repeat_-2"><polyline points="45.17 46.31 90.16 46.31 90.16 91.29" style="fill:none; stroke:#0978ff; stroke-miterlimit:10; stroke-width:.5px;"/></g><g id="_Grid_Repeat_-3"><polyline points="90.35 46.31 135.33 46.31 135.33 91.29" style="fill:none; stroke:#0978ff; stroke-miterlimit:10; stroke-width:.5px;"/></g><g id="_Grid_Repeat_-4"><polyline points="135.52 46.31 180.5 46.31 180.5 91.29" style="fill:none; stroke:#0978ff; stroke-miterlimit:10; stroke-width:.5px;"/></g><g id="_Grid_Repeat_-5"><polyline points="180.69 46.31 225.68 46.31 225.68 91.29" style="fill:none; stroke:#0978ff; stroke-miterlimit:10; stroke-width:.5px;"/></g><g id="_Grid_Repeat_-6"><polyline points="225.86 46.31 270.85 46.31 270.85 91.29" style="fill:none; stroke:#0978ff; stroke-miterlimit:10; stroke-width:.5px;"/></g><g id="_Grid_Repeat_-7"><polyline points="271.04 46.31 316.02 46.31 316.02 91.29" style="fill:none; stroke:#0978ff; stroke-miterlimit:10; stroke-width:.5px;"/></g><g id="_Grid_Repeat_-8"><line x1="316.21" y1="46.31" x2="361.19" y2="46.31" style="fill:none; stroke:#0978ff; stroke-miterlimit:10; stroke-width:.5px;"/></g><g id="_Grid_Repeat_-9"><line y1="91.48" x2="44.99" y2="91.48" style="fill:none; stroke:#0978ff; stroke-miterlimit:10; stroke-width:.5px;"/></g><g id="_Grid_Repeat_-10"><line x1="45.17" y1="91.48" x2="90.16" y2="91.48" style="fill:none; stroke:#0978ff; stroke-miterlimit:10; stroke-width:.5px;"/></g><g id="_Grid_Repeat_-11"><line x1="90.35" y1="91.48" x2="135.33" y2="91.48" style="fill:none; stroke:#0978ff; stroke-miterlimit:10; stroke-width:.5px;"/></g><g id="_Grid_Repeat_-12"><polyline points="135.52 91.48 180.5 91.48 180.5 136.47" style="fill:none; stroke:#0978ff; stroke-miterlimit:10; stroke-width:.5px;"/></g><g id="_Grid_Repeat_-13"><polyline points="180.69 91.48 225.68 91.48 225.68 136.47" style="fill:none; stroke:#0978ff; stroke-miterlimit:10; stroke-width:.5px;"/></g><g id="_Grid_Repeat_-14"><polyline points="225.86 91.48 270.85 91.48 270.85 136.47" style="fill:none; stroke:#0978ff; stroke-miterlimit:10; stroke-width:.5px;"/></g><g id="_Grid_Repeat_-15"><polyline points="271.04 91.48 316.02 91.48 316.02 136.47" style="fill:none; stroke:#0978ff; stroke-miterlimit:10; stroke-width:.5px;"/></g><g id="_Grid_Repeat_-16"><line x1="316.21" y1="91.48" x2="361.19" y2="91.48" style="fill:none; stroke:#0978ff; stroke-miterlimit:10; stroke-width:.5px;"/></g><g id="_Grid_Repeat_-17"><line x1="180.5" y1="136.65" x2="180.5" y2="181.64" style="fill:none; stroke:#0978ff; stroke-miterlimit:10; stroke-width:.5px;"/></g><g id="_Grid_Repeat_-18"><polyline points="180.69 136.65 225.68 136.65 225.68 181.64" style="fill:none; stroke:#0978ff; stroke-miterlimit:10; stroke-width:.5px;"/></g><g id="_Grid_Repeat_-19"><polyline points="225.86 136.65 270.85 136.65 270.85 181.64" style="fill:none; stroke:#0978ff; stroke-miterlimit:10; stroke-width:.5px;"/></g><g id="_Grid_Repeat_-20"><polyline points="271.04 136.65 316.02 136.65 316.02 181.64" style="fill:none; stroke:#0978ff; stroke-miterlimit:10; stroke-width:.5px;"/></g><g id="_Grid_Repeat_-21"><line x1="316.21" y1="136.65" x2="361.19" y2="136.65" style="fill:none; stroke:#0978ff; stroke-miterlimit:10; stroke-width:.5px;"/></g><g id="_Grid_Repeat_-22"><line x1="180.5" y1="181.83" x2="180.5" y2="226.81" style="fill:none; stroke:#0978ff; stroke-miterlimit:10; stroke-width:.5px;"/></g><g id="_Grid_Repeat_-23"><polyline points="180.69 181.83 225.68 181.83 225.68 226.81" style="fill:none; stroke:#0978ff; stroke-miterlimit:10; stroke-width:.5px;"/></g><g id="_Grid_Repeat_-24"><polyline points="225.86 181.83 270.85 181.83 270.85 226.81" style="fill:none; stroke:#0978ff; stroke-miterlimit:10; stroke-width:.5px;"/></g><g id="_Grid_Repeat_-25"><polyline points="271.04 181.83 316.02 181.83 316.02 226.81" style="fill:none; stroke:#0978ff; stroke-miterlimit:10; stroke-width:.5px;"/></g><g id="_Grid_Repeat_-26"><line x1="316.21" y1="181.83" x2="361.19" y2="181.83" style="fill:none; stroke:#0978ff; stroke-miterlimit:10; stroke-width:.5px;"/></g><g id="_Grid_Repeat_-27"><polyline points="0 227 44.99 227 44.99 271.98" style="fill:none; stroke:#0978ff; stroke-miterlimit:10; stroke-width:.5px;"/></g><g id="_Grid_Repeat_-28"><polyline points="45.17 227 90.16 227 90.16 271.98" style="fill:none; stroke:#0978ff; stroke-miterlimit:10; stroke-width:.5px;"/></g><g id="_Grid_Repeat_-29"><polyline points="90.35 227 135.33 227 135.33 271.98" style="fill:none; stroke:#0978ff; stroke-miterlimit:10; stroke-width:.5px;"/></g><g id="_Grid_Repeat_-30"><polyline points="135.52 227 180.5 227 180.5 271.98" style="fill:none; stroke:#0978ff; stroke-miterlimit:10; stroke-width:.5px;"/></g><g id="_Grid_Repeat_-31"><polyline points="180.69 227 225.68 227 225.68 271.98" style="fill:none; stroke:#0978ff; stroke-miterlimit:10; stroke-width:.5px;"/></g><g id="_Grid_Repeat_-32"><polyline points="225.86 227 270.85 227 270.85 271.98" style="fill:none; stroke:#0978ff; stroke-miterlimit:10; stroke-width:.5px;"/></g><g id="_Grid_Repeat_-33"><polyline points="271.04 227 316.02 227 316.02 271.98" style="fill:none; stroke:#0978ff; stroke-miterlimit:10; stroke-width:.5px;"/></g><g id="_Grid_Repeat_-34"><line x1="316.21" y1="227" x2="361.19" y2="227" style="fill:none; stroke:#0978ff; stroke-miterlimit:10; stroke-width:.5px;"/></g><g id="_Grid_Repeat_-35"><polyline points="0 272.17 44.99 272.17 44.99 317.16" style="fill:none; stroke:#0978ff; stroke-miterlimit:10; stroke-width:.5px;"/></g><g id="_Grid_Repeat_-36"><line x1="45.17" y1="272.17" x2="90.16" y2="272.17" style="fill:none; stroke:#0978ff; stroke-miterlimit:10; stroke-width:.5px;"/></g><g id="_Grid_Repeat_-37"><line x1="90.35" y1="272.17" x2="135.33" y2="272.17" style="fill:none; stroke:#0978ff; stroke-miterlimit:10; stroke-width:.5px;"/></g><g id="_Grid_Repeat_-38"><line x1="135.52" y1="272.17" x2="180.5" y2="272.17" style="fill:none; stroke:#0978ff; stroke-miterlimit:10; stroke-width:.5px;"/></g><g id="_Grid_Repeat_-39"><line x1="180.69" y1="272.17" x2="225.68" y2="272.17" style="fill:none; stroke:#0978ff; stroke-miterlimit:10; stroke-width:.5px;"/></g><g id="_Grid_Repeat_-40"><line x1="225.86" y1="272.17" x2="270.85" y2="272.17" style="fill:none; stroke:#0978ff; stroke-miterlimit:10; stroke-width:.5px;"/></g><g id="_Grid_Repeat_-41"><polyline points="271.04 272.17 316.02 272.17 316.02 317.16" style="fill:none; stroke:#0978ff; stroke-miterlimit:10; stroke-width:.5px;"/></g><g id="_Grid_Repeat_-42"><line x1="316.21" y1="272.17" x2="361.19" y2="272.17" style="fill:none; stroke:#0978ff; stroke-miterlimit:10; stroke-width:.5px;"/></g><g id="_Grid_Repeat_-43"><polyline points="0 317.34 44.99 317.34 44.99 362.33" style="fill:none; stroke:#0978ff; stroke-miterlimit:10; stroke-width:.5px;"/></g><g id="_Grid_Repeat_-44"><line x1="316.02" y1="317.34" x2="316.02" y2="362.33" style="fill:none; stroke:#0978ff; stroke-miterlimit:10; stroke-width:.5px;"/></g><g id="_Grid_Repeat_-45"><line x1="316.21" y1="317.34" x2="361.19" y2="317.34" style="fill:none; stroke:#0978ff; stroke-miterlimit:10; stroke-width:.5px;"/></g><g id="_Grid_Repeat_-46"><line y1="362.52" x2="44.99" y2="362.52" style="fill:none; stroke:#0978ff; stroke-miterlimit:10; stroke-width:.5px;"/></g><g id="_Grid_Repeat_-47"><line x1="316.21" y1="362.52" x2="361.19" y2="362.52" style="fill:none; stroke:#0978ff; stroke-miterlimit:10; stroke-width:.5px;"/></g><line x1="44.99" y1="362.52" x2="44.99" y2="407.5" style="fill:none; stroke:#0978ff; stroke-miterlimit:10; stroke-width:.5px;"/><line x1="316.02" y1="362.52" x2="316.02" y2="407.5" style="fill:none; stroke:#0978ff; stroke-miterlimit:10; stroke-width:.5px;"/><g id="_Grid_Repeat_-48"><line y1="407.69" x2="44.99" y2="407.69" style="fill:none; stroke:#0978ff; stroke-miterlimit:10; stroke-width:.5px;"/></g><g id="_Grid_Repeat_-49"><line x1="316.21" y1="407.69" x2="361.19" y2="407.69" style="fill:none; stroke:#0978ff; stroke-miterlimit:10; stroke-width:.5px;"/></g><line x1="44.99" y1="407.47" x2="44.99" y2="452.46" style="fill:none; stroke:#0978ff; stroke-miterlimit:10; stroke-width:.5px;"/><line x1="316.02" y1="407.47" x2="316.02" y2="452.46" style="fill:none; stroke:#0978ff; stroke-miterlimit:10; stroke-width:.5px;"/><g id="_Grid_Repeat_-50"><line y1="452.64" x2="44.99" y2="452.64" style="fill:none; stroke:#0978ff; stroke-miterlimit:10; stroke-width:.5px;"/></g><g id="_Grid_Repeat_-51"><line x1="316.21" y1="452.64" x2="361.19" y2="452.64" style="fill:none; stroke:#0978ff; stroke-miterlimit:10; stroke-width:.5px;"/></g><line x1="44.99" y1="452.46" x2="44.99" y2="497.44" style="fill:none; stroke:#0978ff; stroke-miterlimit:10; stroke-width:.5px;"/><line x1="316.02" y1="452.46" x2="316.02" y2="497.44" style="fill:none; stroke:#0978ff; stroke-miterlimit:10; stroke-width:.5px;"/><g id="_Grid_Repeat_-52"><line y1="497.63" x2="44.99" y2="497.63" style="fill:none; stroke:#0978ff; stroke-miterlimit:10; stroke-width:.5px;"/></g><g id="_Grid_Repeat_-53"><line x1="45.17" y1="497.63" x2="90.16" y2="497.63" style="fill:none; stroke:#0978ff; stroke-miterlimit:10; stroke-width:.5px;"/></g><g id="_Grid_Repeat_-54"><line x1="90.35" y1="497.63" x2="135.33" y2="497.63" style="fill:none; stroke:#0978ff; stroke-miterlimit:10; stroke-width:.5px;"/></g><g id="_Grid_Repeat_-55"><line x1="135.52" y1="497.63" x2="180.5" y2="497.63" style="fill:none; stroke:#0978ff; stroke-miterlimit:10; stroke-width:.5px;"/></g><g id="_Grid_Repeat_-56"><line x1="180.69" y1="497.63" x2="225.68" y2="497.63" style="fill:none; stroke:#0978ff; stroke-miterlimit:10; stroke-width:.5px;"/></g><g id="_Grid_Repeat_-57"><line x1="225.86" y1="497.63" x2="270.85" y2="497.63" style="fill:none; stroke:#0978ff; stroke-miterlimit:10; stroke-width:.5px;"/></g><g id="_Grid_Repeat_-58"><line x1="271.04" y1="497.63" x2="316.02" y2="497.63" style="fill:none; stroke:#0978ff; stroke-miterlimit:10; stroke-width:.5px;"/></g><g id="_Grid_Repeat_-59"><line x1="316.21" y1="497.63" x2="361.19" y2="497.63" style="fill:none; stroke:#0978ff; stroke-miterlimit:10; stroke-width:.5px;"/></g><line x1="44.99" y1="497.44" x2="44.99" y2="542.43" style="fill:none; stroke:#0978ff; stroke-miterlimit:10; stroke-width:.5px;"/><line x1="90.16" y1="497.44" x2="90.16" y2="542.43" style="fill:none; stroke:#0978ff; stroke-miterlimit:10; stroke-width:.5px;"/><line x1="135.33" y1="497.44" x2="135.33" y2="542.43" style="fill:none; stroke:#0978ff; stroke-miterlimit:10; stroke-width:.5px;"/><line x1="180.5" y1="497.44" x2="180.5" y2="542.43" style="fill:none; stroke:#0978ff; stroke-miterlimit:10; stroke-width:.5px;"/><line x1="225.68" y1="497.44" x2="225.68" y2="542.43" style="fill:none; stroke:#0978ff; stroke-miterlimit:10; stroke-width:.5px;"/><line x1="270.85" y1="497.44" x2="270.85" y2="542.43" style="fill:none; stroke:#0978ff; stroke-miterlimit:10; stroke-width:.5px;"/><line x1="316.02" y1="497.44" x2="316.02" y2="542.43" style="fill:none; stroke:#0978ff; stroke-miterlimit:10; stroke-width:.5px;"/><g id="_Grid_Repeat_-60"><line y1="542.62" x2="44.99" y2="542.62" style="fill:none; stroke:#0978ff; stroke-miterlimit:10; stroke-width:.5px;"/></g><g id="_Grid_Repeat_-61"><line x1="45.17" y1="542.62" x2="90.16" y2="542.62" style="fill:none; stroke:#0978ff; stroke-miterlimit:10; stroke-width:.5px;"/></g><g id="_Grid_Repeat_-62"><line x1="90.35" y1="542.62" x2="135.33" y2="542.62" style="fill:none; stroke:#0978ff; stroke-miterlimit:10; stroke-width:.5px;"/></g><g id="_Grid_Repeat_-63"><line x1="135.52" y1="542.62" x2="180.5" y2="542.62" style="fill:none; stroke:#0978ff; stroke-miterlimit:10; stroke-width:.5px;"/></g><g id="_Grid_Repeat_-64"><line x1="180.69" y1="542.62" x2="225.68" y2="542.62" style="fill:none; stroke:#0978ff; stroke-miterlimit:10; stroke-width:.5px;"/></g><g id="_Grid_Repeat_-65"><line x1="225.86" y1="542.62" x2="270.85" y2="542.62" style="fill:none; stroke:#0978ff; stroke-miterlimit:10; stroke-width:.5px;"/></g><g id="_Grid_Repeat_-66"><line x1="271.04" y1="542.62" x2="316.02" y2="542.62" style="fill:none; stroke:#0978ff; stroke-miterlimit:10; stroke-width:.5px;"/></g><g id="_Grid_Repeat_-67"><line x1="316.21" y1="542.62" x2="361.19" y2="542.62" style="fill:none; stroke:#0978ff; stroke-miterlimit:10; stroke-width:.5px;"/></g><rect x="7.4" width="2.76" height="40.89" style="stroke-width:0px;"/><path d="m29.92,12.55c-2.07,0-3.99.53-5.76,1.58-1.77,1.06-3.11,2.54-4.03,4.46l-.58-5.36h-2.13v27.64h2.65v-14.28c0-3.49.84-6.31,2.53-8.44,1.69-2.13,4.11-3.2,7.26-3.2,2.49,0,4.48.69,5.96,2.07,1.48,1.38,2.22,3.9,2.22,7.54v16.3h2.65v-16.81c0-3.46-.82-6.24-2.45-8.35-1.63-2.11-4.41-3.17-8.32-3.17Z" style="stroke-width:0px;"/><path d="m59.29,12.55c-2.07,0-3.99.53-5.76,1.58-1.77,1.06-3.11,2.54-4.03,4.46l-.58-5.36h-2.13v27.64h2.65v-14.28c0-3.49.84-6.31,2.53-8.44,1.69-2.13,4.11-3.2,7.26-3.2,2.49,0,4.48.69,5.96,2.07,1.48,1.38,2.22,3.9,2.22,7.54v16.3h2.65v-16.81c0-3.46-.82-6.24-2.45-8.35-1.63-2.11-4.41-3.17-8.32-3.17Z" style="stroke-width:0px;"/><path d="m95.61,14.45c-2.05-1.27-4.41-1.9-7.05-1.9s-4.95.63-7.03,1.9c-2.07,1.27-3.71,2.99-4.89,5.15-1.19,2.17-1.79,4.66-1.79,7.46s.59,5.24,1.79,7.43c1.19,2.19,2.82,3.92,4.89,5.18,2.07,1.27,4.41,1.9,7.03,1.9s5-.63,7.05-1.9c2.05-1.27,3.68-2.99,4.87-5.18,1.19-2.19,1.79-4.66,1.79-7.43s-.6-5.29-1.79-7.46c-1.19-2.17-2.81-3.89-4.87-5.15Zm2.53,18.86c-.94,1.82-2.24,3.25-3.89,4.29-1.65,1.04-3.55,1.55-5.7,1.55s-4.05-.52-5.7-1.55c-1.65-1.04-2.95-2.47-3.89-4.29-.94-1.82-1.41-3.91-1.41-6.25s.47-4.47,1.41-6.28c.94-1.8,2.24-3.22,3.89-4.26,1.65-1.04,3.55-1.55,5.7-1.55s4.05.52,5.7,1.55c1.65,1.04,2.95,2.46,3.89,4.26.94,1.8,1.41,3.9,1.41,6.28s-.47,4.42-1.41,6.25Z" style="stroke-width:0px;"/><path d="m119,33.34c-.31.77-.6,1.52-.89,2.25-.29.73-.59,1.59-.89,2.59-.31-1-.6-1.87-.89-2.62s-.59-1.49-.89-2.22l-8.23-20.1h-2.82l11.46,27.64h2.71l11.46-27.64h-2.76l-8.23,20.1Z" style="stroke-width:0px;"/><path d="m149.94,13.56c-1.59-.67-3.39-1.01-5.38-1.01-2.15,0-4.05.37-5.7,1.09-1.65.73-2.93,1.76-3.83,3.08-.9,1.32-1.35,2.89-1.35,4.69h2.65c0-2.03.72-3.62,2.16-4.75,1.44-1.13,3.44-1.7,6.02-1.7,1.46,0,2.8.23,4.03.69,1.23.46,2.21,1.28,2.94,2.45.73,1.17,1.09,2.79,1.09,4.87v1.04l-9.5.75c-3.22.27-5.76,1.17-7.6,2.71-1.84,1.54-2.76,3.57-2.76,6.1,0,2.34.82,4.26,2.45,5.76,1.63,1.5,3.92,2.25,6.88,2.25,2.38,0,4.49-.51,6.33-1.53,1.84-1.02,3.24-2.47,4.2-4.35l.52,5.18h2.13v-18.31c0-2.38-.48-4.31-1.44-5.79-.96-1.48-2.24-2.55-3.83-3.22Zm2.62,14.14c0,3.38-.88,6.14-2.65,8.29-1.77,2.15-4.28,3.22-7.54,3.22-2.07,0-3.76-.48-5.07-1.44-1.31-.96-1.96-2.38-1.96-4.26,0-1.69.62-3.15,1.87-4.38,1.25-1.23,3.27-1.96,6.07-2.19l9.27-.75v1.5Z" style="stroke-width:0px;"/><polygon points="167.66 4.49 165.01 4.49 165.01 13.24 159.43 13.24 159.43 15.55 165.01 15.55 165.01 40.89 167.66 40.89 167.66 15.55 173.25 15.55 173.25 13.24 167.66 13.24 167.66 4.49" style="stroke-width:0px;"/><path d="m195.35,14.17c-1.82-1.07-3.94-1.61-6.36-1.61-2.57,0-4.83.61-6.77,1.84-1.94,1.23-3.46,2.94-4.55,5.12-1.09,2.19-1.64,4.72-1.64,7.6s.56,5.4,1.67,7.57c1.11,2.17,2.67,3.86,4.66,5.07,2,1.21,4.32,1.81,6.97,1.81,3.11,0,5.65-.73,7.63-2.19,1.98-1.46,3.37-3.61,4.17-6.45h-2.71c-.54,2.04-1.57,3.58-3.11,4.64-1.54,1.06-3.53,1.58-5.99,1.58-3.34,0-5.95-1.11-7.83-3.34-1.79-2.12-2.72-5.02-2.81-8.7h22.45v-1.84c0-2.53-.51-4.75-1.53-6.65-1.02-1.9-2.44-3.39-4.26-4.46Zm-16.59,10.77c.16-1.65.56-3.14,1.22-4.46.86-1.75,2.07-3.1,3.63-4.06,1.56-.96,3.35-1.44,5.38-1.44,2.84,0,5.12.91,6.85,2.74,1.73,1.82,2.59,4.23,2.59,7.23h-19.68Z" style="stroke-width:0px;"/><polygon points="250.91 18.83 227.13 18.83 227.13 0 224.36 0 224.36 40.89 224.41 65.49 211.67 52.75 209.77 54.65 225.75 70.64 241.74 54.65 239.84 52.75 227.09 65.49 227.13 40.89 227.13 21.36 250.91 21.36 250.91 40.89 253.67 40.89 253.67 0 250.91 0 250.91 18.83" style="stroke-width:0px;"/><path d="m279.71,14.17c-1.82-1.07-3.94-1.61-6.36-1.61-2.57,0-4.83.61-6.77,1.84-1.94,1.23-3.46,2.94-4.55,5.12-1.09,2.19-1.64,4.72-1.64,7.6s.56,5.4,1.67,7.57c1.11,2.17,2.67,3.86,4.66,5.07,2,1.21,4.32,1.81,6.97,1.81,3.11,0,5.65-.73,7.63-2.19,1.98-1.46,3.37-3.61,4.17-6.45h-2.71c-.54,2.04-1.57,3.58-3.11,4.64-1.54,1.06-3.53,1.58-5.99,1.58-3.34,0-5.95-1.11-7.83-3.34-1.79-2.12-2.72-5.02-2.81-8.7h22.45v-1.84c0-2.53-.51-4.75-1.53-6.65-1.02-1.9-2.44-3.39-4.26-4.46Zm-16.59,10.77c.16-1.65.56-3.14,1.22-4.46.86-1.75,2.07-3.1,3.63-4.06,1.56-.96,3.35-1.44,5.38-1.44,2.84,0,5.12.91,6.85,2.74,1.73,1.82,2.59,4.23,2.59,7.23h-19.68Z" style="stroke-width:0px;"/><path d="m303.33,12.55c-2.11,0-3.93.55-5.44,1.64-1.27.91-2.13,2.08-2.61,3.49l-.24-4.44h-2.48v27.64h2.65v-16.81c0-2.61.77-4.75,2.3-6.42,1.54-1.67,3.59-2.5,6.16-2.5h2.07v-2.3c-.46-.12-.87-.19-1.24-.23-.37-.04-.76-.06-1.18-.06Z" style="stroke-width:0px;"/><path d="m332.78,25.28c0-2.53-.51-4.75-1.53-6.65-1.02-1.9-2.44-3.39-4.26-4.46-1.82-1.07-3.94-1.61-6.36-1.61-2.57,0-4.83.61-6.77,1.84-1.94,1.23-3.46,2.94-4.55,5.12-1.09,2.19-1.64,4.72-1.64,7.6s.56,5.4,1.67,7.57c1.11,2.17,2.67,3.86,4.66,5.07,2,1.21,4.32,1.81,6.97,1.81,3.11,0,5.65-.73,7.63-2.19,1.98-1.46,3.37-3.61,4.17-6.45h-2.71c-.54,2.04-1.57,3.58-3.11,4.64-1.54,1.06-3.53,1.58-5.99,1.58-3.34,0-5.95-1.11-7.83-3.34-1.79-2.12-2.72-5.02-2.81-8.7h22.45v-1.84Zm-22.38-.35c.16-1.65.56-3.14,1.22-4.46.86-1.75,2.07-3.1,3.63-4.06,1.56-.96,3.35-1.44,5.38-1.44,2.84,0,5.12.91,6.85,2.74,1.73,1.82,2.59,4.23,2.59,7.23h-19.68Z" style="stroke-width:0px;"/><g id="Event_title"><g style="isolation:isolate;"><path d="m25.22,153.46h-2.71v-40.14h2.71l15.38,36.86,15.32-36.86h2.77v40.14h-2.71v-21.99c0-1.66,0-3.12.03-4.38.02-1.26.04-2.39.06-3.39.02-1,.05-1.88.08-2.66.04-.77.07-1.5.11-2.18l-14.3,34.6h-2.71l-14.3-34.43c.08.57.14,1.95.2,4.16s.08,4.97.08,8.28v21.99Z" style="fill:#0978ff; stroke-width:0px;"/><path d="m75.66,154.14c-2.9,0-5.15-.74-6.76-2.21-1.6-1.47-2.4-3.35-2.4-5.65,0-2.49.9-4.49,2.71-5.99,1.81-1.51,4.3-2.39,7.46-2.66l9.33-.74v-1.02c0-2.04-.36-3.63-1.07-4.78-.72-1.15-1.68-1.95-2.88-2.4-1.21-.45-2.53-.68-3.96-.68-2.53,0-4.5.56-5.91,1.67-1.41,1.11-2.12,2.67-2.12,4.67h-2.6c0-1.77.44-3.31,1.33-4.61.89-1.3,2.14-2.31,3.76-3.02,1.62-.72,3.49-1.07,5.6-1.07,1.96,0,3.72.33,5.29.99,1.56.66,2.82,1.72,3.76,3.17.94,1.45,1.41,3.35,1.41,5.68v17.98h-2.09l-.51-5.09c-.94,1.85-2.32,3.27-4.13,4.27-1.81,1-3.88,1.5-6.22,1.5Zm.34-2.32c3.2,0,5.67-1.05,7.41-3.17,1.73-2.11,2.6-4.82,2.6-8.14v-1.47l-9.1.74c-2.75.23-4.74.94-5.96,2.15-1.23,1.21-1.84,2.64-1.84,4.3,0,1.85.64,3.24,1.92,4.18,1.28.94,2.94,1.41,4.98,1.41Z" style="fill:#0978ff; stroke-width:0px;"/><path d="m109.69,125.93v2.26h-2.04c-2.53,0-4.54.82-6.05,2.46-1.51,1.64-2.26,3.74-2.26,6.3v16.51h-2.6v-27.14h2.43l.28,5.2h-.28c.38-1.77,1.31-3.19,2.8-4.27,1.49-1.07,3.27-1.61,5.34-1.61.41,0,.8.02,1.16.06.36.04.76.11,1.22.23Z" style="fill:#0978ff; stroke-width:0px;"/><path d="m111.84,140.01c0-2.86.54-5.37,1.61-7.52s2.57-3.83,4.5-5.03c1.92-1.21,4.18-1.81,6.79-1.81,2.9,0,5.38.79,7.43,2.37,2.05,1.58,3.38,3.66,3.99,6.22h-2.66c-.57-2-1.67-3.54-3.31-4.64-1.64-1.09-3.46-1.64-5.46-1.64s-3.78.49-5.34,1.47c-1.56.98-2.79,2.37-3.67,4.16-.89,1.79-1.33,3.91-1.33,6.36s.41,4.39,1.24,6.16c.83,1.77,2,3.16,3.51,4.16,1.51,1,3.26,1.5,5.26,1.5,2.19,0,4.12-.57,5.8-1.7,1.68-1.13,2.82-2.62,3.42-4.47h2.66c-.49,1.7-1.3,3.19-2.43,4.47-1.13,1.28-2.51,2.28-4.13,3-1.62.71-3.39,1.07-5.31,1.07-2.49,0-4.67-.59-6.56-1.78s-3.35-2.84-4.41-4.95c-1.06-2.11-1.58-4.58-1.58-7.41Z" style="fill:#0978ff; stroke-width:0px;"/><path d="m145.03,153.41h-2.6v-40.77h2.6v18.94c.87-1.77,2.14-3.2,3.82-4.3,1.68-1.09,3.72-1.64,6.13-1.64,3.66,0,6.28,1.04,7.89,3.11,1.6,2.07,2.4,4.81,2.4,8.2v16.51h-2.6v-16c0-2.41-.33-4.3-.99-5.65-.66-1.36-1.58-2.33-2.77-2.91-1.19-.58-2.55-.88-4.1-.88-2.15,0-3.95.49-5.4,1.47-1.45.98-2.54,2.28-3.28,3.9-.74,1.62-1.1,3.39-1.1,5.31v14.7Z" style="fill:#0978ff; stroke-width:0px;"/><path d="m24.88,177.76l10.63-14.3h3.22l-11.76,15.55-.23-.23c1.51-.98,2.84-1.65,3.99-2.01,1.15-.36,2.36-.54,3.65-.54,2.79,0,5.23.62,7.32,1.87,2.09,1.24,3.71,2.92,4.86,5.03,1.15,2.11,1.72,4.47,1.72,7.07s-.62,5.08-1.87,7.21c-1.24,2.13-2.92,3.81-5.03,5.03-2.11,1.22-4.47,1.84-7.07,1.84s-4.97-.62-7.1-1.87c-2.13-1.24-3.83-2.93-5.09-5.06-1.26-2.13-1.89-4.51-1.89-7.15,0-1.54.14-2.96.42-4.24.28-1.28.76-2.58,1.44-3.9.68-1.32,1.6-2.75,2.77-4.3Zm-1.92,12.44c0,2.22.48,4.2,1.44,5.94.96,1.73,2.3,3.1,4.01,4.1,1.71,1,3.68,1.5,5.91,1.5s4.13-.5,5.82-1.5c1.7-1,3.02-2.37,3.99-4.1.96-1.73,1.44-3.71,1.44-5.94s-.48-4.19-1.44-5.91c-.96-1.71-2.29-3.06-3.99-4.04s-3.64-1.47-5.82-1.47-4.19.49-5.91,1.47c-1.72.98-3.05,2.33-4.01,4.04-.96,1.72-1.44,3.68-1.44,5.91Z" style="fill:#0978ff; stroke-width:0px;"/><path d="m54.68,190.03v-2.38h15.6v2.38h-15.6Z" style="fill:#0978ff; stroke-width:0px;"/><path d="m72.72,163.45h26.57v2.49h-26.57v-2.49Zm24.6.74l1.98,1.75-16.28,37.66h-2.83l17.13-39.41Z" style="fill:#0978ff; stroke-width:0px;"/><path d="m100.87,176.46h13.57v2.26h-13.57v-2.26Zm8.09,27.14h-2.6v-35.73h2.6v35.73Z" style="fill:#0978ff; stroke-width:0px;"/><path d="m122.36,203.54h-2.6v-40.77h2.6v18.94c.87-1.77,2.14-3.2,3.82-4.3,1.68-1.09,3.72-1.64,6.13-1.64,3.66,0,6.29,1.04,7.89,3.11,1.6,2.07,2.4,4.81,2.4,8.2v16.51h-2.6v-16c0-2.41-.33-4.3-.99-5.65-.66-1.36-1.58-2.33-2.77-2.91-1.19-.58-2.55-.88-4.1-.88-2.15,0-3.95.49-5.4,1.47-1.45.98-2.54,2.28-3.28,3.9-.73,1.62-1.1,3.39-1.1,5.31v14.7Z" style="fill:#0978ff; stroke-width:0px;"/></g></g></svg>