<?xml version="1.0" encoding="UTF-8"?><svg id="Layer_1" xmlns="http://www.w3.org/2000/svg" viewBox="0 0 361.19 543.87"><rect x="15.24" y="45.64" width="2.84" height="42.07" style="stroke-width:0px;"/><path d="m38.41,58.56c-2.13,0-4.11.54-5.93,1.63-1.82,1.09-3.2,2.62-4.15,4.59l-.59-5.51h-2.19v28.44h2.73v-14.7c0-3.59.87-6.49,2.61-8.68,1.74-2.19,4.23-3.29,7.47-3.29,2.57,0,4.61.71,6.13,2.13,1.52,1.42,2.28,4.01,2.28,7.76v16.77h2.73v-17.3c0-3.56-.84-6.42-2.52-8.59-1.68-2.17-4.53-3.26-8.56-3.26Z" style="stroke-width:0px;"/><path d="m68.63,58.56c-2.13,0-4.11.54-5.93,1.63-1.82,1.09-3.2,2.62-4.15,4.59l-.59-5.51h-2.19v28.44h2.73v-14.7c0-3.59.87-6.49,2.61-8.68,1.74-2.19,4.23-3.29,7.47-3.29,2.57,0,4.61.71,6.13,2.13,1.52,1.42,2.28,4.01,2.28,7.76v16.77h2.73v-17.3c0-3.56-.84-6.42-2.52-8.59-1.68-2.17-4.53-3.26-8.56-3.26Z" style="stroke-width:0px;"/><path d="m105.22,60.51c-2.11-1.3-4.53-1.96-7.26-1.96s-5.1.65-7.23,1.96c-2.13,1.3-3.81,3.07-5.04,5.3-1.23,2.23-1.84,4.79-1.84,7.67s.61,5.39,1.84,7.64c1.22,2.25,2.9,4.03,5.04,5.33,2.13,1.3,4.54,1.96,7.23,1.96s5.15-.65,7.26-1.96c2.11-1.3,3.78-3.08,5.01-5.33,1.22-2.25,1.84-4.8,1.84-7.64s-.61-5.44-1.84-7.67c-1.22-2.23-2.89-4-5.01-5.3Zm2.61,19.41c-.97,1.88-2.3,3.35-4,4.41-1.7,1.07-3.65,1.6-5.87,1.6s-4.17-.53-5.87-1.6c-1.7-1.07-3.03-2.54-4-4.41-.97-1.88-1.45-4.02-1.45-6.43s.48-4.6,1.45-6.46c.97-1.86,2.3-3.32,4-4.39,1.7-1.07,3.65-1.6,5.87-1.6s4.17.53,5.87,1.6c1.7,1.07,3.03,2.53,4,4.39.97,1.86,1.45,4.01,1.45,6.46s-.48,4.55-1.45,6.43Z" style="stroke-width:0px;"/><path d="m128.9,79.95c-.32.79-.62,1.56-.92,2.31-.3.75-.6,1.64-.92,2.67-.32-1.03-.62-1.93-.92-2.7s-.6-1.53-.92-2.28l-8.47-20.68h-2.9l11.79,28.44h2.79l11.79-28.44h-2.84l-8.47,20.68Z" style="stroke-width:0px;"/><path d="m160.33,59.59c-1.64-.69-3.49-1.04-5.54-1.04-2.21,0-4.17.38-5.87,1.13-1.7.75-3.01,1.81-3.94,3.17-.93,1.36-1.39,2.97-1.39,4.83h2.73c0-2.09.74-3.72,2.22-4.89,1.48-1.16,3.54-1.75,6.19-1.75,1.5,0,2.88.24,4.15.71,1.26.47,2.27,1.31,3.02,2.52.75,1.21,1.13,2.87,1.13,5.01v1.07l-9.78.77c-3.32.28-5.93,1.21-7.82,2.78-1.9,1.58-2.84,3.67-2.84,6.28,0,2.41.84,4.38,2.52,5.93,1.68,1.54,4.04,2.31,7.08,2.31,2.45,0,4.62-.52,6.52-1.57s3.34-2.54,4.33-4.47l.53,5.33h2.19v-18.84c0-2.45-.49-4.43-1.48-5.96-.99-1.52-2.3-2.63-3.94-3.32Zm2.7,14.55c0,3.48-.91,6.32-2.73,8.53-1.82,2.21-4.41,3.32-7.76,3.32-2.13,0-3.87-.49-5.21-1.48-1.34-.99-2.01-2.45-2.01-4.39,0-1.74.64-3.24,1.93-4.5,1.28-1.26,3.37-2.01,6.25-2.25l9.54-.77v1.54Z" style="stroke-width:0px;"/><polygon points="178.97 50.26 176.24 50.26 176.24 59.27 170.49 59.27 170.49 61.64 176.24 61.64 176.24 87.71 178.97 87.71 178.97 61.64 184.72 61.64 184.72 59.27 178.97 59.27 178.97 50.26" style="stroke-width:0px;"/><path d="m206.67,60.22c-1.88-1.11-4.06-1.66-6.55-1.66-2.65,0-4.97.63-6.96,1.9-2,1.26-3.56,3.02-4.68,5.27-1.13,2.25-1.69,4.86-1.69,7.82s.57,5.56,1.72,7.79c1.15,2.23,2.75,3.97,4.8,5.21,2.05,1.24,4.44,1.87,7.17,1.87,3.2,0,5.82-.75,7.85-2.25,2.03-1.5,3.47-3.71,4.3-6.64h-2.79c-.55,2.09-1.62,3.68-3.2,4.77-1.58,1.09-3.63,1.63-6.16,1.63-3.44,0-6.12-1.15-8.06-3.44-1.84-2.18-2.8-5.16-2.89-8.95h23.1v-1.9c0-2.61-.52-4.89-1.57-6.84-1.05-1.96-2.51-3.49-4.38-4.59Zm-17.08,11.08c.16-1.7.58-3.23,1.25-4.59.89-1.8,2.13-3.19,3.73-4.18,1.6-.99,3.45-1.48,5.54-1.48,2.92,0,5.27.94,7.05,2.81,1.78,1.88,2.67,4.36,2.67,7.44h-20.25Z" style="stroke-width:0px;"/><polygon points="264.24 65.02 239.77 65.02 239.77 45.64 236.92 45.64 236.92 87.71 236.97 113.03 223.85 99.92 221.9 101.88 238.35 118.32 254.8 101.88 252.84 99.92 239.73 113.03 239.77 87.71 239.77 67.62 264.24 67.62 264.24 87.71 267.08 87.71 267.08 45.64 264.24 45.64 264.24 65.02" style="stroke-width:0px;"/><path d="m294.67,60.22c-1.88-1.11-4.06-1.66-6.55-1.66-2.65,0-4.97.63-6.96,1.9-2,1.26-3.56,3.02-4.68,5.27-1.13,2.25-1.69,4.86-1.69,7.82s.57,5.56,1.72,7.79c1.15,2.23,2.75,3.97,4.8,5.21,2.05,1.24,4.44,1.87,7.17,1.87,3.2,0,5.82-.75,7.85-2.25,2.03-1.5,3.47-3.71,4.3-6.64h-2.79c-.55,2.09-1.62,3.68-3.2,4.77-1.58,1.09-3.63,1.63-6.16,1.63-3.44,0-6.12-1.15-8.06-3.44-1.84-2.18-2.8-5.16-2.89-8.95h23.1v-1.9c0-2.61-.52-4.89-1.57-6.84-1.05-1.96-2.51-3.49-4.38-4.59Zm-17.08,11.08c.16-1.7.58-3.23,1.25-4.59.89-1.8,2.13-3.19,3.73-4.18,1.6-.99,3.45-1.48,5.54-1.48,2.92,0,5.27.94,7.05,2.81,1.78,1.88,2.67,4.36,2.67,7.44h-20.25Z" style="stroke-width:0px;"/><path d="m318.58,58.56c-2.17,0-4.04.56-5.6,1.69-1.3.94-2.2,2.14-2.69,3.59l-.25-4.57h-2.55v28.44h2.73v-17.3c0-2.69.79-4.89,2.37-6.61,1.58-1.72,3.69-2.58,6.34-2.58h2.13v-2.37c-.47-.12-.9-.2-1.27-.24-.38-.04-.78-.06-1.21-.06Z" style="stroke-width:0px;"/><path d="m348.09,71.65c0-2.61-.52-4.89-1.57-6.84-1.05-1.96-2.51-3.49-4.38-4.59-1.88-1.11-4.06-1.66-6.55-1.66-2.65,0-4.97.63-6.96,1.9-2,1.26-3.56,3.02-4.68,5.27-1.13,2.25-1.69,4.86-1.69,7.82s.57,5.56,1.72,7.79c1.15,2.23,2.75,3.97,4.8,5.21,2.05,1.24,4.44,1.87,7.17,1.87,3.2,0,5.82-.75,7.85-2.25,2.03-1.5,3.47-3.71,4.3-6.64h-2.79c-.55,2.09-1.62,3.68-3.2,4.77-1.58,1.09-3.63,1.63-6.16,1.63-3.44,0-6.12-1.15-8.06-3.44-1.84-2.18-2.8-5.16-2.89-8.95h23.1v-1.9Zm-23.03-.36c.16-1.7.58-3.23,1.25-4.59.89-1.8,2.13-3.19,3.73-4.18,1.6-.99,3.45-1.48,5.54-1.48,2.92,0,5.27.94,7.05,2.81,1.78,1.88,2.67,4.36,2.67,7.44h-20.25Z" style="stroke-width:0px;"/><g style="isolation:isolate;"><path d="m84.34,271.94h-2.91v-43.08h2.91l16.5,39.56,16.44-39.56h2.97v43.08h-2.91v-23.6c0-1.78,0-3.35.03-4.7.02-1.35.04-2.57.06-3.64.02-1.07.05-2.02.09-2.85.04-.83.08-1.61.12-2.34l-15.35,37.13h-2.91l-15.35-36.95c.08.61.15,2.09.21,4.46.06,2.37.09,5.33.09,8.89v23.6Z" style="fill:#0978ff; stroke-width:0px;"/><path d="m138.46,272.67c-3.12,0-5.53-.79-7.25-2.37-1.72-1.58-2.58-3.6-2.58-6.07,0-2.67.97-4.81,2.91-6.43,1.94-1.62,4.61-2.57,8.01-2.85l10.01-.79v-1.09c0-2.18-.38-3.89-1.15-5.13-.77-1.23-1.8-2.09-3.09-2.58-1.29-.49-2.71-.73-4.25-.73-2.71,0-4.82.6-6.34,1.79-1.52,1.19-2.27,2.86-2.27,5.01h-2.79c0-1.9.48-3.55,1.43-4.94.95-1.4,2.29-2.48,4.03-3.25,1.74-.77,3.74-1.15,6.01-1.15,2.1,0,3.99.35,5.67,1.06,1.68.71,3.02,1.84,4.03,3.4,1.01,1.56,1.52,3.59,1.52,6.1v19.29h-2.24l-.55-5.46c-1.01,1.98-2.49,3.51-4.43,4.58s-4.17,1.61-6.67,1.61Zm.36-2.49c3.44,0,6.09-1.13,7.95-3.4,1.86-2.26,2.79-5.18,2.79-8.74v-1.58l-9.77.79c-2.95.24-5.09,1.01-6.4,2.31-1.31,1.29-1.97,2.83-1.97,4.61,0,1.98.69,3.48,2.06,4.49,1.37,1.01,3.15,1.52,5.34,1.52Z" style="fill:#0978ff; stroke-width:0px;"/><path d="m174.99,242.39v2.43h-2.18c-2.71,0-4.87.88-6.49,2.64-1.62,1.76-2.43,4.02-2.43,6.77v17.72h-2.79v-29.12h2.61l.3,5.58h-.3c.4-1.9,1.41-3.43,3-4.58,1.6-1.15,3.51-1.73,5.73-1.73.44,0,.86.02,1.24.06.38.04.82.12,1.3.24Z" style="fill:#0978ff; stroke-width:0px;"/><path d="m177.29,257.5c0-3.07.58-5.76,1.73-8.07,1.15-2.31,2.76-4.1,4.82-5.4,2.06-1.29,4.49-1.94,7.28-1.94,3.11,0,5.77.85,7.98,2.55,2.2,1.7,3.63,3.92,4.28,6.67h-2.85c-.61-2.14-1.79-3.8-3.55-4.98-1.76-1.17-3.71-1.76-5.85-1.76s-4.06.53-5.73,1.58c-1.68,1.05-2.99,2.54-3.94,4.46-.95,1.92-1.43,4.2-1.43,6.83s.44,4.71,1.33,6.61c.89,1.9,2.14,3.39,3.76,4.46,1.62,1.07,3.5,1.61,5.64,1.61,2.35,0,4.42-.61,6.22-1.82,1.8-1.21,3.02-2.81,3.67-4.79h2.85c-.53,1.82-1.4,3.42-2.61,4.79-1.21,1.38-2.69,2.45-4.43,3.22-1.74.77-3.64,1.15-5.7,1.15-2.67,0-5.02-.64-7.04-1.91-2.02-1.27-3.6-3.04-4.73-5.31-1.13-2.26-1.7-4.91-1.7-7.95Z" style="fill:#0978ff; stroke-width:0px;"/><path d="m212.91,271.88h-2.79v-43.74h2.79v20.33c.93-1.9,2.29-3.44,4.1-4.61,1.8-1.17,3.99-1.76,6.58-1.76,3.92,0,6.74,1.11,8.46,3.34,1.72,2.23,2.58,5.16,2.58,8.8v17.72h-2.79v-17.17c0-2.59-.35-4.61-1.06-6.07-.71-1.46-1.7-2.5-2.97-3.12-1.27-.63-2.74-.94-4.4-.94-2.31,0-4.24.53-5.79,1.58-1.56,1.05-2.73,2.45-3.52,4.19-.79,1.74-1.18,3.64-1.18,5.7v15.77Z" style="fill:#0978ff; stroke-width:0px;"/><path d="m256.22,228.86h28.52v2.67h-28.52v-2.67Zm26.39.79l2.12,1.88-17.47,40.41h-3.03l18.38-42.29Z" style="fill:#0978ff; stroke-width:0px;"/></g><path d="m17.68,118.32h-2.44v-18.36h2.44l6.32,15.44,6.32-15.44h2.49v18.36h-2.44v-9.47c0-.61,0-1.13.03-1.57.02-.44.03-.83.05-1.18.02-.35.04-.68.08-1l-5.36,13.23h-2.34l-5.33-13.18c.07.44.11,1.12.14,2.03.03.91.04,2.02.04,3.3v7.85Z" style="stroke-width:0px;"/><path d="m53.59,109.13c0,1.86-.38,3.51-1.13,4.94-.75,1.43-1.79,2.55-3.12,3.35s-2.87,1.21-4.61,1.21-3.23-.4-4.56-1.21-2.37-1.92-3.11-3.34c-.75-1.42-1.12-3.07-1.12-4.95s.38-3.5,1.13-4.93c.75-1.42,1.79-2.54,3.11-3.35,1.32-.81,2.84-1.22,4.57-1.22s3.28.41,4.6,1.22c1.32.81,2.36,1.93,3.11,3.35.75,1.42,1.13,3.06,1.13,4.93Zm-2.62,0c0-1.42-.26-2.67-.77-3.73-.52-1.07-1.24-1.89-2.17-2.48-.93-.58-2.02-.88-3.28-.88s-2.32.29-3.25.88c-.93.58-1.66,1.41-2.17,2.48-.52,1.07-.77,2.31-.77,3.73s.26,2.67.77,3.73c.52,1.07,1.24,1.9,2.17,2.49.93.59,2.01.89,3.25.89s2.34-.3,3.28-.9c.93-.6,1.65-1.43,2.17-2.5.52-1.07.77-2.3.77-3.71Z" style="stroke-width:0px;"/><path d="m59.2,118.32h-2.49v-18.36h2.49l10.08,15.24h-.69v-15.24h2.49v18.36h-2.49l-10.08-15.24h.69v15.24Z" style="stroke-width:0px;"/><path d="m73.52,102.25v-2.29h13.53v2.29h-13.53Zm8.02-1.14v17.22h-2.49v-17.22h2.49Z" style="stroke-width:0px;"/><path d="m88.63,118.32h-2.59l6.7-18.36h2.77l6.73,18.36h-2.62l-1.65-4.57h-7.72l-1.62,4.57Zm5.18-14.4l-2.79,7.67h6.22l-2.82-7.67c-.05-.19-.11-.38-.18-.57-.07-.19-.11-.36-.13-.5-.03.14-.08.3-.13.5s-.11.39-.18.57Z" style="stroke-width:0px;"/><path d="m107.11,118.32h-2.49v-18.36h2.49l10.08,15.24h-.69v-15.24h2.49v18.36h-2.49l-10.08-15.24h.69v15.24Z" style="stroke-width:0px;"/><path d="m123.98,118.32h-2.59l6.7-18.36h2.77l6.73,18.36h-2.62l-1.65-4.57h-7.72l-1.62,4.57Zm5.18-14.4l-2.79,7.67h6.22l-2.82-7.67c-.05-.19-.11-.38-.18-.57-.07-.19-.11-.36-.13-.5-.03.14-.08.3-.13.5s-.11.39-.18.57Z" style="stroke-width:0px;"/><path d="m158.28,118.3l-12.39.03v-1.9l5.92-5.1c.74-.63,1.36-1.19,1.85-1.7.49-.51.88-.98,1.17-1.41.29-.43.49-.86.61-1.28.12-.42.18-.88.18-1.37,0-1.15-.31-2.05-.93-2.7-.62-.65-1.49-.98-2.6-.98s-2.04.39-2.73,1.16c-.69.77-1.04,1.81-1.05,3.11h-2.49c.03-1.3.31-2.45.84-3.43.52-.98,1.26-1.74,2.2-2.27s2.03-.8,3.26-.8,2.3.24,3.2.71c.9.47,1.6,1.14,2.1,1.99.5.85.75,1.88.75,3.06,0,.64-.08,1.26-.25,1.84-.17.58-.44,1.16-.8,1.73-.36.57-.83,1.15-1.41,1.75-.58.6-1.27,1.26-2.08,1.97l-4.8,4.16-.84-.86h10.31v2.31Z" style="stroke-width:0px;"/><path d="m160.52,109.16c0-1.9.31-3.56.93-4.99.62-1.43,1.49-2.55,2.63-3.35,1.13-.8,2.47-1.21,4.01-1.21s2.87.4,4,1.21c1.13.8,2,1.92,2.62,3.35.62,1.43.93,3.09.93,4.99s-.3,3.58-.9,5c-.6,1.42-1.46,2.53-2.59,3.31-1.13.79-2.48,1.18-4.05,1.18s-2.93-.39-4.06-1.18c-1.13-.79-2-1.89-2.6-3.31s-.9-3.09-.9-5Zm2.46,0c0,1.51.2,2.81.61,3.9s.99,1.93,1.74,2.5c.75.58,1.67.86,2.76.86s1.98-.29,2.74-.86c.76-.58,1.34-1.41,1.74-2.5.4-1.09.6-2.39.6-3.9s-.2-2.83-.6-3.92c-.4-1.09-.98-1.93-1.74-2.51-.76-.58-1.68-.88-2.74-.88s-2,.29-2.76.88c-.75.58-1.33,1.42-1.74,2.51s-.61,2.4-.61,3.92Z" style="stroke-width:0px;"/><path d="m190.38,118.3l-12.39.03v-1.9l5.92-5.1c.74-.63,1.36-1.19,1.85-1.7.49-.51.88-.98,1.17-1.41.29-.43.49-.86.61-1.28.12-.42.18-.88.18-1.37,0-1.15-.31-2.05-.93-2.7-.62-.65-1.49-.98-2.6-.98s-2.04.39-2.73,1.16c-.69.77-1.04,1.81-1.05,3.11h-2.49c.03-1.3.31-2.45.84-3.43.52-.98,1.26-1.74,2.2-2.27s2.03-.8,3.26-.8,2.3.24,3.2.71c.9.47,1.6,1.14,2.1,1.99.5.85.75,1.88.75,3.06,0,.64-.08,1.26-.25,1.84-.17.58-.44,1.16-.8,1.73-.36.57-.83,1.15-1.41,1.75-.58.6-1.27,1.26-2.08,1.97l-4.8,4.16-.84-.86h10.31v2.31Z" style="stroke-width:0px;"/><path d="m191.72,112.41l8.66-12.44h2.67l-8.74,12.6-2.59-.15Zm14.07,2.21h-14.07v-2.21h14.07v2.21Zm-2.18-14.65v18.36h-2.39v-18.36h2.39Z" style="stroke-width:0px;"/><path d="m361.19,508.22h-85.64c-13.03,0-25.64-3.8-36.47-11-10.87-7.23-19.21-17.4-24.1-29.41-5.2-12.74-11.06-22.9-17.43-30.19-7.91-9.06-16.61-13.65-25.84-13.65-.08,0-.15,0-.23,0-22.42.18-40.06,26.78-50.91,49.06-5.14,10.55-13.1,19.42-23.01,25.65-9.93,6.24-21.37,9.54-33.08,9.54H0v-1.36h64.48c11.46,0,22.65-3.23,32.36-9.33,9.69-6.09,17.48-14.77,22.51-25.09,11.02-22.62,29.01-49.63,52.13-49.82,9.73-.07,18.86,4.67,27.11,14.11,6.47,7.41,12.42,17.69,17.67,30.57,4.79,11.76,12.95,21.71,23.6,28.79,10.6,7.05,22.95,10.77,35.72,10.77h85.64v1.36Z" style="fill:#0978ff; stroke-width:0px;"/><path d="m361.19,498.83h-155.39c-10.9,0-21.2-5.2-27.56-13.91-9.47-12.98-25.9-28.41-50.32-28.21-11.32.09-22.26,3.5-32.51,10.12-7.51,4.85-14.5,11.3-20.79,19.17-6.51,8.15-16.25,12.83-26.73,12.83H.46v-1.36h47.44c10.06,0,19.41-4.49,25.66-12.32,6.38-7.99,13.48-14.54,21.11-19.47,10.47-6.76,21.65-10.24,33.24-10.34,11.36-.09,22.07,3.15,31.86,9.64,7.21,4.78,13.8,11.22,19.57,19.13,6.1,8.36,15.99,13.35,26.46,13.35h155.39v1.36Z" style="fill:#0978ff; stroke-width:0px;"/><path d="m361.19,488.68h-28.86c-16.02,0-32.18-3.99-46.74-11.53-12.47-6.46-26.9-9.67-42.88-9.54-20.77.17-36.51,5.85-46.05,10.58-13.82,6.85-29.11,10.48-44.23,10.48H0v-1.36h152.43c14.91,0,30-3.57,43.63-10.34,9.67-4.8,25.61-10.55,46.65-10.73,16.22-.13,30.86,3.13,43.52,9.69,14.36,7.44,30.31,11.37,46.11,11.37h28.86v1.36Z" style="fill:#0978ff; stroke-width:0px;"/><circle cx="31.3" cy="507.54" r="4.67" style="fill:#0978ff; stroke-width:0px;"/><path d="m31.3,512.9c-2.95,0-5.35-2.4-5.35-5.35s2.4-5.35,5.35-5.35,5.35,2.4,5.35,5.35-2.4,5.35-5.35,5.35Zm0-9.34c-2.2,0-3.99,1.79-3.99,3.99s1.79,3.99,3.99,3.99,3.99-1.79,3.99-3.99-1.79-3.99-3.99-3.99Z" style="fill:#fff; stroke-width:0px;"/><circle cx="153.96" cy="462.27" r="4.67" style="fill:#0978ff; stroke-width:0px;"/><path d="m153.96,467.62c-2.95,0-5.35-2.4-5.35-5.35s2.4-5.35,5.35-5.35,5.35,2.4,5.35,5.35-2.4,5.35-5.35,5.35Zm0-9.34c-2.2,0-3.99,1.79-3.99,3.99s1.79,3.99,3.99,3.99,3.99-1.79,3.99-3.99-1.79-3.99-3.99-3.99Z" style="fill:#fff; stroke-width:0px;"/><circle cx="331.34" cy="488" r="4.67" style="fill:#0978ff; stroke-width:0px;"/><path d="m331.34,493.36c-2.95,0-5.35-2.4-5.35-5.35s2.4-5.35,5.35-5.35,5.35,2.4,5.35,5.35-2.4,5.35-5.35,5.35Zm0-9.34c-2.2,0-3.99,1.79-3.99,3.99s1.79,3.99,3.99,3.99,3.99-1.79,3.99-3.99-1.79-3.99-3.99-3.99Z" style="fill:#fff; stroke-width:0px;"/><path d="m361.19,518.15h-209.61c-6.99,0-13.89-1.62-19.96-4.68-2.4-1.21-5.17-2.09-8.23-2.63-5.49-.96-10.92-.13-16.13,2.47-6.35,3.16-13.37,4.84-20.31,4.84H0v-1.36h86.96c6.73,0,13.54-1.62,19.7-4.69,5.48-2.73,11.19-3.6,16.97-2.59,3.19.56,6.09,1.48,8.61,2.75,5.88,2.97,12.57,4.53,19.35,4.53h209.61v1.36Z" style="fill:#0978ff; stroke-width:0px;"/><circle cx="221.84" cy="517.47" r="4.67" style="fill:#0978ff; stroke-width:0px;"/><path d="m221.84,522.82c-2.95,0-5.35-2.4-5.35-5.35s2.4-5.35,5.35-5.35,5.35,2.4,5.35,5.35-2.4,5.35-5.35,5.35Zm0-9.34c-2.2,0-3.99,1.79-3.99,3.99s1.79,3.99,3.99,3.99,3.99-1.79,3.99-3.99-1.79-3.99-3.99-3.99Z" style="fill:#fff; stroke-width:0px;"/></svg>