<?xml version="1.0" encoding="UTF-8"?><svg id="Layer_1" xmlns="http://www.w3.org/2000/svg" viewBox="0 0 1332.48 973.93"><g id="_Grid_Repeat_"><line x1="968.94" y1=".96" x2="968.94" y2="121.64" style="fill:none; stroke:#0978ff; stroke-miterlimit:10;"/></g><g id="_Grid_Repeat_-2"><line x1="969.44" y1=".96" x2="1090.12" y2=".96" style="fill:none; stroke:#0978ff; stroke-miterlimit:10;"/></g><g id="_Grid_Repeat_-3"><line x1="1090.62" y1=".96" x2="1211.3" y2=".96" style="fill:none; stroke:#0978ff; stroke-miterlimit:10;"/></g><g id="_Grid_Repeat_-4"><line x1="1211.8" y1=".96" x2="1332.48" y2=".96" style="fill:none; stroke:#0978ff; stroke-miterlimit:10;"/></g><g id="_Grid_Repeat_-5"><polyline points="0 122.14 120.68 122.14 120.68 242.82" style="fill:none; stroke:#0978ff; stroke-miterlimit:10;"/></g><g id="_Grid_Repeat_-6"><polyline points="121.18 122.14 241.86 122.14 241.86 242.82" style="fill:none; stroke:#0978ff; stroke-miterlimit:10;"/></g><g id="_Grid_Repeat_-7"><polyline points="242.36 122.14 363.04 122.14 363.04 242.82" style="fill:none; stroke:#0978ff; stroke-miterlimit:10;"/></g><g id="_Grid_Repeat_-8"><polyline points="363.54 122.14 484.22 122.14 484.22 242.82" style="fill:none; stroke:#0978ff; stroke-miterlimit:10;"/></g><g id="_Grid_Repeat_-9"><polyline points="484.72 122.14 605.4 122.14 605.4 242.82" style="fill:none; stroke:#0978ff; stroke-miterlimit:10;"/></g><g id="_Grid_Repeat_-10"><polyline points="605.9 122.14 726.58 122.14 726.58 242.82" style="fill:none; stroke:#0978ff; stroke-miterlimit:10;"/></g><g id="_Grid_Repeat_-11"><polyline points="727.08 122.14 847.76 122.14 847.76 242.82" style="fill:none; stroke:#0978ff; stroke-miterlimit:10;"/></g><g id="_Grid_Repeat_-12"><polyline points="848.26 122.14 968.94 122.14 968.94 242.82" style="fill:none; stroke:#0978ff; stroke-miterlimit:10;"/></g><g id="_Grid_Repeat_-13"><polyline points="969.44 122.14 1090.12 122.14 1090.12 242.82" style="fill:none; stroke:#0978ff; stroke-miterlimit:10;"/></g><g id="_Grid_Repeat_-14"><line x1="1211.3" y1="122.14" x2="1211.3" y2="242.82" style="fill:none; stroke:#0978ff; stroke-miterlimit:10;"/></g><g id="_Grid_Repeat_-15"><line x1="1211.8" y1="122.14" x2="1332.48" y2="122.14" style="fill:none; stroke:#0978ff; stroke-miterlimit:10;"/></g><g id="_Grid_Repeat_-16"><line y1="243.32" x2="120.68" y2="243.32" style="fill:none; stroke:#0978ff; stroke-miterlimit:10;"/></g><g id="_Grid_Repeat_-17"><line x1="121.18" y1="243.32" x2="241.86" y2="243.32" style="fill:none; stroke:#0978ff; stroke-miterlimit:10;"/></g><g id="_Grid_Repeat_-18"><line x1="242.36" y1="243.32" x2="363.04" y2="243.32" style="fill:none; stroke:#0978ff; stroke-miterlimit:10;"/></g><g id="_Grid_Repeat_-19"><polyline points="363.54 243.32 484.22 243.32 484.22 364" style="fill:none; stroke:#0978ff; stroke-miterlimit:10;"/></g><g id="_Grid_Repeat_-20"><line x1="484.72" y1="243.32" x2="605.4" y2="243.32" style="fill:none; stroke:#0978ff; stroke-miterlimit:10;"/></g><g id="_Grid_Repeat_-21"><line x1="605.9" y1="243.32" x2="726.58" y2="243.32" style="fill:none; stroke:#0978ff; stroke-miterlimit:10;"/></g><g id="_Grid_Repeat_-22"><line x1="727.08" y1="243.32" x2="847.76" y2="243.32" style="fill:none; stroke:#0978ff; stroke-miterlimit:10;"/></g><g id="_Grid_Repeat_-23"><line x1="848.26" y1="243.32" x2="968.94" y2="243.32" style="fill:none; stroke:#0978ff; stroke-miterlimit:10;"/></g><g id="_Grid_Repeat_-24"><line x1="969.44" y1="243.32" x2="1090.12" y2="243.32" style="fill:none; stroke:#0978ff; stroke-miterlimit:10;"/></g><g id="_Grid_Repeat_-25"><polyline points="1090.62 243.32 1211.3 243.32 1211.3 364" style="fill:none; stroke:#0978ff; stroke-miterlimit:10;"/></g><g id="_Grid_Repeat_-26"><line x1="1211.8" y1="243.32" x2="1332.48" y2="243.32" style="fill:none; stroke:#0978ff; stroke-miterlimit:10;"/></g><g id="_Grid_Repeat_-27"><line x1="484.22" y1="364.5" x2="484.22" y2="485.18" style="fill:none; stroke:#0978ff; stroke-miterlimit:10;"/></g><g id="_Grid_Repeat_-28"><line x1="1211.3" y1="364.5" x2="1211.3" y2="485.18" style="fill:none; stroke:#0978ff; stroke-miterlimit:10;"/></g><g id="_Grid_Repeat_-29"><line x1="1211.8" y1="364.5" x2="1332.48" y2="364.5" style="fill:none; stroke:#0978ff; stroke-miterlimit:10;"/></g><g id="_Grid_Repeat_-30"><line x1="484.22" y1="485.68" x2="484.22" y2="606.36" style="fill:none; stroke:#0978ff; stroke-miterlimit:10;"/></g><g id="_Grid_Repeat_-31"><line x1="1211.3" y1="485.68" x2="1211.3" y2="606.36" style="fill:none; stroke:#0978ff; stroke-miterlimit:10;"/></g><g id="_Grid_Repeat_-32"><line x1="1211.8" y1="485.68" x2="1332.48" y2="485.68" style="fill:none; stroke:#0978ff; stroke-miterlimit:10;"/></g><g id="_Grid_Repeat_-33"><line y1="606.86" x2="120.68" y2="606.86" style="fill:none; stroke:#0978ff; stroke-miterlimit:10;"/></g><g id="_Grid_Repeat_-34"><line x1="121.18" y1="606.86" x2="241.86" y2="606.86" style="fill:none; stroke:#0978ff; stroke-miterlimit:10;"/></g><g id="_Grid_Repeat_-35"><line x1="242.36" y1="606.86" x2="363.04" y2="606.86" style="fill:none; stroke:#0978ff; stroke-miterlimit:10;"/></g><g id="_Grid_Repeat_-36"><polyline points="363.54 606.86 484.22 606.86 484.22 727.54" style="fill:none; stroke:#0978ff; stroke-miterlimit:10;"/></g><g id="_Grid_Repeat_-37"><line x1="1211.3" y1="606.86" x2="1211.3" y2="727.54" style="fill:none; stroke:#0978ff; stroke-miterlimit:10;"/></g><g id="_Grid_Repeat_-38"><line x1="1211.8" y1="606.86" x2="1332.48" y2="606.86" style="fill:none; stroke:#0978ff; stroke-miterlimit:10;"/></g><g id="_Grid_Repeat_-39"><polyline points="0 728.04 120.68 728.04 120.68 848.72" style="fill:none; stroke:#0978ff; stroke-miterlimit:10;"/></g><g id="_Grid_Repeat_-40"><polyline points="121.18 728.04 241.86 728.04 241.86 848.72" style="fill:none; stroke:#0978ff; stroke-miterlimit:10;"/></g><g id="_Grid_Repeat_-41"><polyline points="242.36 728.04 363.04 728.04 363.04 848.72" style="fill:none; stroke:#0978ff; stroke-miterlimit:10;"/></g><g id="_Grid_Repeat_-42"><polyline points="363.54 728.04 484.22 728.04 484.22 848.72" style="fill:none; stroke:#0978ff; stroke-miterlimit:10;"/></g><g id="_Grid_Repeat_-44"><line x1="1211.3" y1="728.04" x2="1211.3" y2="848.72" style="fill:none; stroke:#0978ff; stroke-miterlimit:10;"/></g><g id="_Grid_Repeat_-45"><line y1="849.22" x2="120.68" y2="849.22" style="fill:none; stroke:#0978ff; stroke-miterlimit:10;"/></g><g id="_Grid_Repeat_-46"><line x1="121.18" y1="849.22" x2="241.86" y2="849.22" style="fill:none; stroke:#0978ff; stroke-miterlimit:10;"/></g><g id="_Grid_Repeat_-47"><line x1="242.36" y1="849.22" x2="363.04" y2="849.22" style="fill:none; stroke:#0978ff; stroke-miterlimit:10;"/></g><g id="_Grid_Repeat_-48"><line x1="363.54" y1="849.22" x2="484.22" y2="849.22" style="fill:none; stroke:#0978ff; stroke-miterlimit:10;"/></g><g id="_Grid_Repeat_-49"><line x1="484.72" y1="849.22" x2="605.4" y2="849.22" style="fill:none; stroke:#0978ff; stroke-miterlimit:10;"/></g><g id="_Grid_Repeat_-50"><polyline points="605.9 849.22 726.58 849.22 726.58 969.9" style="fill:none; stroke:#0978ff; stroke-miterlimit:10;"/></g><g id="_Grid_Repeat_-51"><polyline points="727.08 849.22 847.76 849.22 847.76 969.9" style="fill:none; stroke:#0978ff; stroke-miterlimit:10;"/></g><g id="_Grid_Repeat_-52"><polyline points="848.26 849.22 968.94 849.22 968.94 969.9" style="fill:none; stroke:#0978ff; stroke-miterlimit:10;"/></g><g id="_Grid_Repeat_-53"><polyline points="969.44 849.22 1090.12 849.22 1090.12 969.9" style="fill:none; stroke:#0978ff; stroke-miterlimit:10;"/></g><g id="_Grid_Repeat_-54"><polyline points="1090.62 849.22 1211.3 849.22 1211.3 969.9" style="fill:none; stroke:#0978ff; stroke-miterlimit:10;"/></g><g id="_Grid_Repeat_-56"><line y1="970.4" x2="120.68" y2="970.4" style="fill:none; stroke:#0978ff; stroke-miterlimit:10;"/></g><g id="_Grid_Repeat_-57"><line x1="121.18" y1="970.4" x2="241.86" y2="970.4" style="fill:none; stroke:#0978ff; stroke-miterlimit:10;"/></g><g id="_Grid_Repeat_-58"><line x1="242.36" y1="970.4" x2="363.04" y2="970.4" style="fill:none; stroke:#0978ff; stroke-miterlimit:10;"/></g><g id="_Grid_Repeat_-59"><line x1="363.54" y1="970.4" x2="484.22" y2="970.4" style="fill:none; stroke:#0978ff; stroke-miterlimit:10;"/></g><g id="_Grid_Repeat_-60"><line x1="484.72" y1="970.4" x2="605.4" y2="970.4" style="fill:none; stroke:#0978ff; stroke-miterlimit:10;"/></g><g id="_Grid_Repeat_-61"><line x1="605.9" y1="970.4" x2="726.58" y2="970.4" style="fill:none; stroke:#0978ff; stroke-miterlimit:10;"/></g><g id="_Grid_Repeat_-62"><line x1="727.08" y1="970.4" x2="847.76" y2="970.4" style="fill:none; stroke:#0978ff; stroke-miterlimit:10;"/></g><g id="_Grid_Repeat_-63"><line x1="848.26" y1="970.4" x2="968.94" y2="970.4" style="fill:none; stroke:#0978ff; stroke-miterlimit:10;"/></g><g id="_Grid_Repeat_-64"><line x1="969.44" y1="970.4" x2="1090.12" y2="970.4" style="fill:none; stroke:#0978ff; stroke-miterlimit:10;"/></g><g id="_Grid_Repeat_-65"><line x1="1090.62" y1="970.4" x2="1211.3" y2="970.4" style="fill:none; stroke:#0978ff; stroke-miterlimit:10;"/></g><g id="_Grid_Repeat_-66"><line x1="1211.8" y1="970.4" x2="1332.48" y2="970.4" style="fill:none; stroke:#0978ff; stroke-miterlimit:10;"/></g><rect x="19.61" y="-.32" width="7.42" height="109.68" style="stroke-width:0px;"/><path d="m80.01,33.36c-5.56,0-10.71,1.42-15.45,4.25-4.74,2.83-8.34,6.82-10.81,11.97l-1.54-14.37h-5.72v74.15h7.11v-38.31c0-9.37,2.26-16.92,6.8-22.63,4.53-5.72,11.02-8.57,19.46-8.57,6.69,0,12.02,1.85,15.99,5.56,3.96,3.71,5.95,10.45,5.95,20.24v43.72h7.11v-45.11c0-9.27-2.19-16.73-6.57-22.4-4.38-5.66-11.82-8.5-22.32-8.5Z" style="stroke-width:0px;"/><path d="m158.79,33.36c-5.56,0-10.71,1.42-15.45,4.25-4.74,2.83-8.34,6.82-10.81,11.97l-1.54-14.37h-5.72v74.15h7.11v-38.31c0-9.37,2.26-16.92,6.8-22.63,4.53-5.72,11.02-8.57,19.46-8.57,6.69,0,12.02,1.85,15.99,5.56,3.96,3.71,5.95,10.45,5.95,20.24v43.72h7.11v-45.11c0-9.27-2.19-16.73-6.57-22.4-4.38-5.66-11.82-8.5-22.32-8.5Z" style="stroke-width:0px;"/><path d="m256.24,38.45c-5.51-3.4-11.82-5.1-18.92-5.1s-13.29,1.7-18.85,5.1c-5.56,3.4-9.94,8.01-13.13,13.83-3.19,5.82-4.79,12.49-4.79,20s1.6,14.06,4.79,19.93c3.19,5.87,7.57,10.5,13.13,13.9,5.56,3.4,11.84,5.1,18.85,5.1s13.41-1.7,18.92-5.1c5.51-3.4,9.86-8.03,13.05-13.9,3.19-5.87,4.79-12.51,4.79-19.93s-1.6-14.19-4.79-20c-3.19-5.82-7.54-10.43-13.05-13.83Zm6.8,50.59c-2.52,4.89-6,8.73-10.43,11.51-4.43,2.78-9.53,4.17-15.29,4.17s-10.87-1.39-15.29-4.17c-4.43-2.78-7.9-6.62-10.43-11.51-2.52-4.89-3.78-10.48-3.78-16.76s1.26-12,3.78-16.84c2.52-4.84,6-8.65,10.43-11.43,4.43-2.78,9.53-4.17,15.29-4.17s10.86,1.39,15.29,4.17c4.43,2.78,7.9,6.59,10.43,11.43,2.52,4.84,3.78,10.45,3.78,16.84s-1.26,11.87-3.78,16.76Z" style="stroke-width:0px;"/><path d="m318.98,89.12c-.82,2.06-1.62,4.07-2.39,6.03-.77,1.96-1.57,4.27-2.39,6.95-.83-2.68-1.62-5.02-2.39-7.03-.77-2.01-1.57-3.99-2.39-5.95l-22.09-53.91h-7.57l30.74,74.15h7.26l30.74-74.15h-7.42l-22.09,53.91Z" style="stroke-width:0px;"/><path d="m401.97,36.06c-4.27-1.8-9.09-2.7-14.44-2.7-5.77,0-10.87.98-15.29,2.93-4.43,1.96-7.85,4.71-10.27,8.26-2.42,3.55-3.63,7.75-3.63,12.59h7.11c0-5.46,1.93-9.71,5.79-12.74,3.86-3.04,9.24-4.56,16.14-4.56,3.91,0,7.52.62,10.81,1.85,3.29,1.24,5.92,3.43,7.88,6.57,1.96,3.14,2.93,7.49,2.93,13.05v2.78l-25.49,2.01c-8.65.72-15.45,3.14-20.39,7.26-4.94,4.12-7.42,9.58-7.42,16.38,0,6.28,2.19,11.43,6.57,15.45,4.38,4.02,10.53,6.02,18.46,6.02,6.38,0,12.05-1.37,16.99-4.09,4.94-2.73,8.7-6.62,11.28-11.66l1.39,13.9h5.72v-49.12c0-6.38-1.29-11.56-3.86-15.53-2.58-3.96-6-6.85-10.27-8.65Zm7.03,37.92c0,9.06-2.37,16.48-7.11,22.24-4.74,5.77-11.48,8.65-20.24,8.65-5.56,0-10.09-1.29-13.59-3.86-3.5-2.57-5.25-6.38-5.25-11.43,0-4.53,1.67-8.44,5.02-11.74,3.35-3.29,8.78-5.25,16.3-5.87l24.87-2.01v4.02Z" style="stroke-width:0px;"/><polygon points="449.52 11.73 442.41 11.73 442.41 35.21 427.43 35.21 427.43 41.39 442.41 41.39 442.41 109.36 449.52 109.36 449.52 41.39 464.5 41.39 464.5 35.21 449.52 35.21 449.52 11.73" style="stroke-width:0px;"/><path d="m523.8,37.68c-4.89-2.88-10.58-4.33-17.07-4.33-6.9,0-12.95,1.65-18.15,4.94-5.2,3.3-9.27,7.88-12.2,13.75-2.94,5.87-4.4,12.67-4.4,20.39s1.49,14.5,4.48,20.31c2.99,5.82,7.16,10.35,12.51,13.59,5.35,3.24,11.59,4.87,18.69,4.87,8.34,0,15.16-1.96,20.47-5.87,5.3-3.91,9.04-9.68,11.2-17.3h-7.26c-1.44,5.46-4.22,9.6-8.34,12.44-4.12,2.83-9.48,4.25-16.07,4.25-8.96,0-15.96-2.99-21.01-8.96-4.8-5.68-7.31-13.46-7.55-23.33h60.22v-4.94c0-6.8-1.37-12.74-4.09-17.84-2.73-5.1-6.54-9.09-11.43-11.97Zm-44.52,28.89c.42-4.42,1.51-8.41,3.27-11.97,2.32-4.69,5.56-8.32,9.73-10.89,4.17-2.57,8.98-3.86,14.44-3.86,7.62,0,13.75,2.45,18.38,7.34,4.63,4.89,6.95,11.35,6.95,19.39h-52.78Z" style="stroke-width:0px;"/><polygon points="672.84 50.19 609.04 50.19 609.04 -.32 601.63 -.32 601.63 109.36 601.75 175.36 567.57 141.19 562.47 146.28 605.35 189.17 648.23 146.28 643.13 141.19 608.95 175.36 609.04 109.36 609.04 56.99 672.84 56.99 672.84 109.36 680.26 109.36 680.26 -.32 672.84 -.32 672.84 50.19" style="stroke-width:0px;"/><path d="m750.1,37.68c-4.89-2.88-10.58-4.33-17.07-4.33-6.9,0-12.95,1.65-18.15,4.94-5.2,3.3-9.27,7.88-12.2,13.75-2.94,5.87-4.4,12.67-4.4,20.39s1.49,14.5,4.48,20.31c2.99,5.82,7.16,10.35,12.51,13.59,5.35,3.24,11.59,4.87,18.69,4.87,8.34,0,15.16-1.96,20.47-5.87,5.3-3.91,9.04-9.68,11.2-17.3h-7.26c-1.44,5.46-4.22,9.6-8.34,12.44-4.12,2.83-9.48,4.25-16.07,4.25-8.96,0-15.96-2.99-21.01-8.96-4.8-5.68-7.31-13.46-7.55-23.33h60.22v-4.94c0-6.8-1.37-12.74-4.09-17.84-2.73-5.1-6.54-9.09-11.43-11.97Zm-44.52,28.89c.42-4.42,1.51-8.41,3.27-11.97,2.32-4.69,5.56-8.32,9.73-10.89,4.17-2.57,8.98-3.86,14.44-3.86,7.62,0,13.75,2.45,18.38,7.34,4.63,4.89,6.95,11.35,6.95,19.39h-52.78Z" style="stroke-width:0px;"/><path d="m813.47,33.36c-5.67,0-10.53,1.47-14.6,4.4-3.4,2.45-5.72,5.58-7,9.36l-.65-11.91h-6.64v74.15h7.11v-45.11c0-7,2.06-12.74,6.18-17.22,4.12-4.48,9.63-6.72,16.53-6.72h5.56v-6.18c-1.24-.31-2.34-.51-3.32-.62-.98-.1-2.04-.15-3.17-.15Z" style="stroke-width:0px;"/><path d="m892.46,67.5c0-6.8-1.37-12.74-4.09-17.84-2.73-5.1-6.54-9.09-11.43-11.97-4.89-2.88-10.58-4.33-17.07-4.33-6.9,0-12.95,1.65-18.15,4.94-5.2,3.3-9.27,7.88-12.2,13.75-2.94,5.87-4.4,12.67-4.4,20.39s1.49,14.5,4.48,20.31c2.99,5.82,7.16,10.35,12.51,13.59,5.35,3.24,11.59,4.87,18.69,4.87,8.34,0,15.16-1.96,20.47-5.87,5.3-3.91,9.04-9.68,11.2-17.3h-7.26c-1.44,5.46-4.22,9.6-8.34,12.44-4.12,2.83-9.48,4.25-16.07,4.25-8.96,0-15.96-2.99-21.01-8.96-4.8-5.68-7.31-13.46-7.55-23.33h60.22v-4.94Zm-60.04-.93c.42-4.42,1.51-8.41,3.27-11.97,2.32-4.69,5.56-8.32,9.73-10.89,4.17-2.57,8.98-3.86,14.44-3.86,7.62,0,13.75,2.45,18.38,7.34,4.63,4.89,6.95,11.35,6.95,19.39h-52.78Z" style="stroke-width:0px;"/><g id="Event_title"><g style="isolation:isolate;"><path d="m66.75,408.03h-7.28v-107.69h7.28l41.26,98.89,41.1-98.89h7.43v107.69h-7.28v-59c0-4.45.02-8.37.08-11.75.05-3.39.1-6.42.15-9.1.05-2.68.13-5.05.23-7.13.1-2.07.2-4.02.3-5.84l-38.37,92.82h-7.28l-38.37-92.37c.2,1.52.38,5.23.53,11.15.15,5.92.23,13.32.23,22.22v59Z" style="fill:#0978ff; stroke-width:0px;"/><path d="m202.04,409.85c-7.79,0-13.83-1.97-18.12-5.92-4.3-3.94-6.45-9-6.45-15.17,0-6.67,2.43-12.03,7.28-16.08,4.85-4.04,11.53-6.42,20.02-7.13l25.03-1.97v-2.73c0-5.46-.96-9.73-2.88-12.82-1.92-3.08-4.5-5.23-7.74-6.45-3.24-1.21-6.78-1.82-10.62-1.82-6.78,0-12.06,1.49-15.85,4.47-3.79,2.98-5.69,7.16-5.69,12.51h-6.98c0-4.75,1.19-8.87,3.56-12.36,2.38-3.49,5.74-6.19,10.09-8.12,4.35-1.92,9.35-2.88,15.02-2.88,5.26,0,9.99.89,14.18,2.65,4.2,1.77,7.56,4.6,10.09,8.49,2.53,3.89,3.79,8.97,3.79,15.24v48.23h-5.61l-1.37-13.65c-2.53,4.96-6.22,8.77-11.07,11.45s-10.42,4.02-16.68,4.02Zm.91-6.22c8.59,0,15.22-2.83,19.87-8.49,4.65-5.66,6.98-12.94,6.98-21.84v-3.94l-24.42,1.97c-7.38.61-12.72,2.53-16,5.76-3.29,3.24-4.93,7.08-4.93,11.53,0,4.96,1.72,8.7,5.16,11.22,3.44,2.53,7.89,3.79,13.35,3.79Z" style="fill:#0978ff; stroke-width:0px;"/><path d="m293.35,334.16v6.07h-5.46c-6.78,0-12.19,2.2-16.23,6.6-4.05,4.4-6.07,10.04-6.07,16.91v44.29h-6.98v-72.8h6.52l.76,13.95h-.76c1.01-4.75,3.51-8.57,7.51-11.45,3.99-2.88,8.77-4.32,14.33-4.32,1.11,0,2.15.05,3.11.15.96.1,2.05.3,3.26.61Z" style="fill:#0978ff; stroke-width:0px;"/><path d="m299.11,371.93c0-7.68,1.44-14.41,4.32-20.17s6.9-10.26,12.06-13.5c5.16-3.23,11.22-4.85,18.2-4.85,7.79,0,14.43,2.12,19.95,6.37,5.51,4.25,9.07,9.81,10.69,16.68h-7.13c-1.52-5.36-4.47-9.5-8.87-12.44-4.4-2.93-9.28-4.4-14.64-4.4s-10.14,1.32-14.33,3.94c-4.2,2.63-7.48,6.35-9.86,11.15-2.38,4.8-3.56,10.49-3.56,17.06s1.11,11.78,3.34,16.53c2.22,4.75,5.36,8.47,9.4,11.15,4.04,2.68,8.75,4.02,14.11,4.02,5.86,0,11.05-1.52,15.55-4.55,4.5-3.03,7.56-7.03,9.18-11.98h7.13c-1.32,4.55-3.49,8.55-6.52,11.98-3.03,3.44-6.73,6.12-11.07,8.04-4.35,1.92-9.1,2.88-14.26,2.88-6.67,0-12.54-1.59-17.59-4.78-5.06-3.18-9-7.61-11.83-13.27-2.83-5.66-4.25-12.29-4.25-19.87Z" style="fill:#0978ff; stroke-width:0px;"/><path d="m388.14,407.88h-6.98v-109.36h6.98v50.81c2.33-4.75,5.74-8.59,10.24-11.53,4.5-2.93,9.98-4.4,16.46-4.4,9.81,0,16.86,2.78,21.16,8.34,4.3,5.56,6.45,12.89,6.45,21.99v44.29h-6.98v-42.92c0-6.47-.89-11.53-2.65-15.17-1.77-3.64-4.25-6.24-7.43-7.81-3.19-1.57-6.85-2.35-11-2.35-5.76,0-10.59,1.31-14.49,3.94-3.89,2.63-6.83,6.12-8.8,10.46-1.97,4.35-2.96,9.1-2.96,14.26v39.44Z" style="fill:#0978ff; stroke-width:0px;"/><path d="m65.84,473.2l28.52-38.37h8.64l-31.55,41.71-.61-.61c4.04-2.63,7.61-4.42,10.69-5.38,3.08-.96,6.34-1.44,9.78-1.44,7.48,0,14.03,1.67,19.64,5,5.61,3.34,9.96,7.84,13.04,13.5,3.08,5.66,4.63,11.98,4.63,18.96s-1.67,13.63-5.01,19.34c-3.34,5.71-7.84,10.21-13.5,13.5-5.66,3.29-11.98,4.93-18.96,4.93s-13.32-1.67-19.04-5.01c-5.71-3.34-10.26-7.86-13.65-13.57-3.39-5.71-5.08-12.11-5.08-19.19,0-4.15.38-7.94,1.14-11.38.76-3.44,2.05-6.92,3.87-10.47,1.82-3.54,4.3-7.38,7.43-11.53Zm-5.16,33.37c0,5.97,1.29,11.28,3.87,15.93,2.58,4.65,6.17,8.32,10.77,11,4.6,2.68,9.88,4.02,15.85,4.02s11.07-1.34,15.62-4.02c4.55-2.68,8.12-6.34,10.69-11,2.58-4.65,3.87-9.96,3.87-15.93s-1.29-11.25-3.87-15.85c-2.58-4.6-6.14-8.21-10.69-10.84-4.55-2.63-9.76-3.94-15.62-3.94s-11.25,1.32-15.85,3.94c-4.6,2.63-8.19,6.25-10.77,10.84-2.58,4.6-3.87,9.88-3.87,15.85Z" style="fill:#0978ff; stroke-width:0px;"/><path d="m145.77,506.11v-6.37h41.86v6.37h-41.86Z" style="fill:#0978ff; stroke-width:0px;"/><path d="m194.15,434.82h71.29v6.67h-71.29v-6.67Zm65.98,1.97l5.31,4.7-43.68,101.01h-7.58l45.96-105.72Z" style="fill:#0978ff; stroke-width:0px;"/><path d="m269.69,469.71h36.4v6.07h-36.4v-6.07Zm21.69,72.8h-6.98v-95.86h6.98v95.86Z" style="fill:#0978ff; stroke-width:0px;"/><path d="m327.32,542.36h-6.98v-109.36h6.98v50.81c2.33-4.75,5.74-8.59,10.24-11.53,4.5-2.93,9.98-4.4,16.46-4.4,9.81,0,16.86,2.78,21.16,8.34,4.3,5.56,6.45,12.89,6.45,21.99v44.29h-6.98v-42.92c0-6.47-.89-11.53-2.65-15.17-1.77-3.64-4.25-6.24-7.43-7.81-3.19-1.57-6.85-2.35-11-2.35-5.76,0-10.59,1.31-14.49,3.94-3.89,2.63-6.83,6.12-8.8,10.46-1.97,4.35-2.96,9.1-2.96,14.26v39.44Z" style="fill:#0978ff; stroke-width:0px;"/></g></g><path d="m851.78,543c0,14.93.68,28.45,3.99,38.23s9.26,15.83,19.81,15.83c10.55,0,20.1-6.05,27.01-15.83s11.19-23.3,11.19-38.23c0-14.93-4.28-28.45-11.19-38.23s-16.46-15.83-27.01-15.83c-21.1,0-23.8,24.21-23.8,54.06Z" style="fill:none; stroke:#0878ff; stroke-miterlimit:10; stroke-width:.5px;"/><path d="m879.37,498.79c6.44,1.31,12.49,5.24,16.93,11.81,5.53,8.18,9.04,19.61,9.04,32.4,0,12.78-3.5,24.22-9.04,32.4-4.44,6.57-10.44,10.77-16.93,11.81-5.02.81-8.89-.13-11.92-2.8-.01-.01-.03-.02-.04-.03-1.29-1.07-2.42-2.63-3.17-4.54-2.51-6.39-4.01-17.42-4.01-36.84,0-22.39,1.98-35.59,6.67-41.71.85-1.11,1.96-2,3.23-2.43.01,0,.03,0,.04-.01,2.73-.93,5.75-.76,9.21-.06Z" style="fill:none; stroke:#0878ff; stroke-miterlimit:10; stroke-width:1.25px;"/><path d="m875.58,580.18s-.02,0-.04,0c-1.19,0-2.27-.67-2.85-1.72-1.66-3.02-4.03-11.53-4.03-35.46s2.37-32.44,4.03-35.46c.57-1.04,1.65-1.71,2.84-1.72.01,0,.02,0,.04,0,2.51,0,5.1.99,7.57,2.82s4.82,4.48,6.85,7.79c4.07,6.63,6.88,15.93,6.88,26.57s-2.81,19.93-6.88,26.57c-2.04,3.32-4.38,5.97-6.85,7.79s-5.06,2.82-7.57,2.82Z" style="fill:none; stroke:#0878ff; stroke-miterlimit:10; stroke-width:2px;"/><path d="m925.81,543.48c0,86.78-88.33,157.13-27.02,157.13,30.66,0,63.85-17.59,89.38-46.02s43.39-67.72,43.39-111.11-17.86-82.67-43.39-111.11-58.72-46.02-89.38-46.02c-30.66,0-23.9,17.59-9.48,46.02,14.42,28.44,36.5,67.72,36.5,111.11Z" style="fill:none; stroke:#0878ff; stroke-miterlimit:10; stroke-width:.5px;"/><path d="m911.24,403.51c12.39,1.92,25.19,7.02,37.44,14.75,12.25,7.73,23.94,18.08,34.08,30.5,20.26,24.83,34.33,57.9,34.33,94.72,0,36.84-14.08,69.92-34.35,94.75-10.14,12.42-21.84,22.78-34.09,30.5-12.25,7.72-25.05,12.82-37.44,14.74-4.41.69-8.17-1.37-8.96-3.53-.01,0,0-.05-.02-.05-9.03-20.37,38.06-73.42,38.06-136.4,0-37.26-15.55-71.14-28.16-97.44-8.55-17.84-14.83-31.44-9.94-38.94h0c.79-2.19,4.6-4.28,9.06-3.58Z" style="fill:none; stroke:#0878ff; stroke-miterlimit:10; stroke-width:1.25px;"/><path d="m923.61,666.32c-3.39,1.37-6.67-2.2-5-5.45l.04-.08c15.24-29.71,36.11-70.39,36.11-117.31s-20.87-87.6-36.11-117.31h0c-1.68-3.29,1.63-6.89,5.05-5.5,9.46,3.84,19.12,9.66,28.29,17.16s17.85,16.7,25.35,27.31c15,21.22,25.27,48.08,25.27,78.34s-10.29,57.16-25.31,78.38c-7.51,10.61-16.2,19.81-25.38,27.31s-18.85,13.31-28.31,17.14Z" style="fill:none; stroke:#0878ff; stroke-miterlimit:10; stroke-width:2px;"/><path d="m1053.08,543c0,146.29-174.75,264.88-65.89,264.88,108.86,0,197.46-118.59,197.46-264.88,0-146.29-88.6-264.88-197.46-264.88-108.86,0,65.89,118.59,65.89,264.88Z" style="fill:none; stroke:#0878ff; stroke-miterlimit:10;"/><path d="m1053.08,543c0,73.14-43.69,139.36-73.77,187.3-30.08,47.93-46.55,77.58,7.87,77.58,54.43,0,103.79-29.65,139.55-77.58,35.76-47.93,57.91-114.15,57.91-187.3,0-73.14-22.15-139.36-57.91-187.3-35.76-47.93-85.12-77.58-139.55-77.58-54.43,0-37.95,29.65-7.87,77.58,30.08,47.93,73.77,114.15,73.77,187.3Z" style="fill:none; stroke:#0878ff; stroke-miterlimit:10; stroke-width:.5px;"/><path d="m1007.31,303.85c15.55,2.41,30.57,7.66,44.81,15.46s28.98,19.1,41.75,32.55c8.7,9.15,16.73,19.32,23.99,30.36,28.29,43.2,44.99,99.6,44.99,160.78,0,61.19-16.7,117.59-45,160.8-7.26,11.03-15.28,21.19-23.97,30.33-12.78,13.46-26.85,24.39-41.78,32.56s-29.26,13.04-44.81,15.45c-6.96,1.08-12.49-2.44-13.91-5.48-.02-.03-.04-.06-.06-.09-8.35-12.73,5.36-35.88,23.68-66.88,6.67-11.3,13.62-23.47,20.36-36.33,19.91-38.18,37.48-82.55,37.48-130.36,0-47.82-17.58-92.19-37.49-130.37-6.74-12.85-13.68-25.02-20.35-36.31-18.32-31.01-32.43-54.42-23.69-66.9.03,0,.01-.08.04-.09,1.04-3.2,6.96-6.57,13.93-5.49Z" style="fill:none; stroke:#0878ff; stroke-miterlimit:10; stroke-width:1.25px;"/><path d="m1027.43,756.42c-5.51,2.2-10.63-3.87-7.47-8.89.03-.04.06-.09.08-.13,16.17-25.69,35.32-56.12,50.43-90.47,15.11-34.34,26.18-72.6,26.18-113.93s-11.07-79.58-26.18-113.93-34.27-64.78-50.43-90.47l-.08-.13c-3.16-5.02,1.96-11.09,7.47-8.89,11.84,4.72,23.28,11.52,34.08,20.26,10.81,8.74,20.99,19.42,30.3,31.91,31.77,42.58,49.26,99.85,49.26,161.24s-17.49,118.66-49.26,161.24c-9.32,12.49-19.5,23.17-30.3,31.91s-22.25,15.54-34.08,20.26Z" style="fill:none; stroke:#0878ff; stroke-miterlimit:10; stroke-width:2px;"/><path d="m843.74,543c0,14.93-.68,28.45-3.99,38.23s-9.26,15.83-19.81,15.83c-10.55,0-20.1-6.05-27.01-15.83s-11.19-23.3-11.19-38.23c0-14.93,4.28-28.45,11.19-38.23s16.46-15.83,27.01-15.83c21.1,0,23.8,24.21,23.8,54.06Z" style="fill:none; stroke:#0878ff; stroke-miterlimit:10; stroke-width:.5px;"/><path d="m799.22,510.6c4.44-6.57,10.49-10.51,16.93-11.81,3.45-.7,6.46-.84,9.19.04.01,0,.02,0,.03.01,1.27.41,2.38,1.31,3.23,2.42,4.7,6.12,6.68,19.33,6.68,41.73,0,19.43-1.5,30.45-4.01,36.84-.75,1.91-1.88,3.46-3.17,4.54-.01.01-.03.02-.04.04-3.04,2.66-6.91,3.6-11.92,2.8-6.49-1.05-12.49-5.24-16.93-11.81-5.53-8.18-9.04-19.61-9.04-32.4s3.5-24.22,9.04-32.4Z" style="fill:none; stroke:#0878ff; stroke-miterlimit:10; stroke-width:1.25px;"/><path d="m819.94,580.18s.02,0,.04,0c1.19,0,2.27-.67,2.85-1.72,1.66-3.02,4.03-11.53,4.03-35.46,0-23.93-2.37-32.44-4.03-35.46-.57-1.04-1.65-1.71-2.84-1.72-.01,0-.02,0-.04,0-2.51,0-5.1.99-7.57,2.82s-4.82,4.48-6.85,7.79c-4.07,6.63-6.88,15.93-6.88,26.57s2.81,19.93,6.88,26.57c2.04,3.32,4.38,5.97,6.85,7.79s5.06,2.82,7.57,2.82Z" style="fill:none; stroke:#0878ff; stroke-miterlimit:10; stroke-width:2px;"/><path d="m769.71,543.48c0,43.39,22.08,82.67,36.5,111.11,14.42,28.44,21.17,46.02-9.48,46.02-30.66,0-63.85-17.59-89.38-46.02-25.53-28.44-43.39-67.72-43.39-111.11,0-43.39,17.86-82.67,43.39-111.11s58.72-46.02,89.38-46.02c61.31,0-27.02,70.35-27.02,157.13Z" style="fill:none; stroke:#0878ff; stroke-miterlimit:10; stroke-width:.5px;"/><path d="m712.77,448.76c10.14-12.42,21.82-22.77,34.08-30.5,12.24-7.72,25.05-12.83,37.44-14.75,4.45-.69,8.25,1.39,9.04,3.57h0c8.98,20.38-38.07,73.42-38.07,136.4,0,37.26,15.55,71.14,28.16,97.45,8.55,17.84,14.82,31.44,9.94,38.94-.02,0,0,.05-.03.06-.79,2.17-4.57,4.23-9,3.55-12.39-1.92-25.2-7.02-37.44-14.74-12.26-7.73-23.95-18.08-34.09-30.5-20.27-24.83-34.35-57.91-34.35-94.75,0-36.83,14.07-69.9,34.33-94.72Z" style="fill:none; stroke:#0878ff; stroke-miterlimit:10; stroke-width:1.25px;"/><path d="m771.91,666.32c3.39,1.37,6.67-2.2,5-5.45l-.04-.08c-15.24-29.71-36.11-70.39-36.11-117.31,0-46.92,20.87-87.6,36.11-117.31h0c1.68-3.29-1.63-6.89-5.05-5.5-9.46,3.84-19.12,9.66-28.29,17.16s-17.85,16.7-25.35,27.31c-15,21.22-25.27,48.08-25.27,78.34,0,30.28,10.29,57.16,25.31,78.38,7.51,10.61,16.2,19.81,25.38,27.31s18.85,13.31,28.31,17.14Z" style="fill:none; stroke:#0878ff; stroke-miterlimit:10; stroke-width:2px;"/><path d="m642.44,543c0,146.29,174.75,264.88,65.89,264.88s-197.46-118.59-197.46-264.88c0-146.29,88.6-264.88,197.46-264.88,108.86,0-65.89,118.59-65.89,264.88Z" style="fill:none; stroke:#0878ff; stroke-miterlimit:10;"/><path d="m642.44,543c0,73.14,43.69,139.36,73.77,187.3,30.08,47.93,46.55,77.58-7.87,77.58s-103.79-29.65-139.55-77.58c-35.76-47.93-57.91-114.15-57.91-187.3,0-73.14,22.15-139.36,57.91-187.3s85.12-77.58,139.55-77.58c54.43,0,37.95,29.65,7.87,77.58-30.08,47.93-73.77,114.15-73.77,187.3Z" style="fill:none; stroke:#0878ff; stroke-miterlimit:10; stroke-width:.5px;"/><path d="m688.21,303.85c6.96-1.08,12.87,2.29,13.91,5.48.03,0,.02.08.06.09,8.74,12.47-5.36,35.88-23.68,66.88-6.67,11.3-13.62,23.47-20.36,36.33-19.91,38.18-37.48,82.55-37.48,130.36,0,47.82,17.58,92.19,37.49,130.37,6.74,12.85,13.68,25.02,20.35,36.31,18.32,31.01,31.12,53.6,23.69,66.9-.02.03-.03.06-.04.09-1.19,3.14-6.96,6.57-13.93,5.49-15.55-2.41-30.57-7.66-44.81-15.46s-28.98-19.1-41.75-32.55c-8.7-9.15-16.73-19.32-24-30.36-28.29-43.2-44.99-99.6-44.99-160.78,0-61.19,16.7-117.59,45-160.8,7.26-11.03,15.28-21.19,23.97-30.33,12.78-13.46,26.85-24.39,41.78-32.57s29.26-13.05,44.81-15.45Z" style="fill:none; stroke:#0878ff; stroke-miterlimit:10; stroke-width:1.25px;"/><path d="m668.09,756.42c5.51,2.2,10.63-3.87,7.47-8.89-.03-.04-.06-.09-.08-.13-16.17-25.69-35.32-56.12-50.43-90.47s-26.18-72.6-26.18-113.93c0-41.33,11.07-79.58,26.18-113.93,15.11-34.34,34.27-64.78,50.43-90.47l.08-.13c3.16-5.02-1.96-11.09-7.47-8.89-11.84,4.72-23.28,11.52-34.08,20.26s-20.99,19.42-30.3,31.91c-31.77,42.58-49.26,99.85-49.26,161.24,0,61.4,17.49,118.66,49.26,161.24,9.32,12.49,19.5,23.17,30.3,31.91s22.25,15.54,34.08,20.26Z" style="fill:none; stroke:#0878ff; stroke-miterlimit:10; stroke-width:2px;"/><path d="m16.8,696.13h-3.54v-52.32h3.54l20.04,48.05,19.97-48.05h3.61v52.32h-3.54v-28.67c0-2.16.01-4.06.04-5.71.02-1.65.05-3.12.07-4.42.02-1.3.06-2.46.11-3.46.05-1.01.1-1.95.15-2.84l-18.64,45.1h-3.54l-18.64-44.88c.1.74.18,2.54.26,5.42s.11,6.47.11,10.8v28.67Z" style="stroke-width:0px;"/><path d="m69.86,678.44c0-3.59.76-6.77,2.28-9.54,1.52-2.78,3.61-4.97,6.26-6.6,2.65-1.62,5.65-2.43,8.99-2.43s6.4.81,9.03,2.43c2.63,1.62,4.7,3.82,6.23,6.6,1.52,2.78,2.28,5.96,2.28,9.54s-.76,6.71-2.28,9.51c-1.52,2.8-3.6,5.01-6.23,6.63-2.63,1.62-5.64,2.43-9.03,2.43s-6.34-.81-8.99-2.43c-2.65-1.62-4.74-3.83-6.26-6.63-1.52-2.8-2.28-5.97-2.28-9.51Zm3.46,0c0,3,.6,5.66,1.81,8,1.2,2.33,2.86,4.16,4.97,5.49,2.11,1.33,4.54,1.99,7.3,1.99s5.18-.66,7.3-1.99c2.11-1.33,3.77-3.16,4.97-5.49,1.2-2.33,1.81-5,1.81-8s-.6-5.72-1.81-8.03c-1.2-2.31-2.86-4.13-4.97-5.45-2.11-1.33-4.54-1.99-7.3-1.99s-5.18.66-7.3,1.99c-2.11,1.33-3.77,3.14-4.97,5.45-1.2,2.31-1.81,4.99-1.81,8.03Z" style="stroke-width:0px;"/><path d="m116.73,696.13h-3.39v-35.37h2.73l.74,6.85c1.18-2.46,2.9-4.36,5.16-5.71,2.26-1.35,4.72-2.03,7.37-2.03,5.01,0,8.56,1.35,10.65,4.05,2.09,2.7,3.13,6.26,3.13,10.69v21.52h-3.39v-20.86c0-4.67-.95-7.89-2.84-9.65-1.89-1.77-4.43-2.65-7.63-2.65-4.03,0-7.12,1.36-9.29,4.09-2.16,2.73-3.24,6.33-3.24,10.8v18.28Z" style="stroke-width:0px;"/><path d="m149.6,660.76h17.69v2.95h-17.69v-2.95Zm10.54,35.37h-3.39v-46.58h3.39v46.58Z" style="stroke-width:0px;"/><path d="m183.5,697.01c-3.78,0-6.72-.96-8.81-2.87-2.09-1.92-3.13-4.37-3.13-7.37,0-3.24,1.18-5.85,3.54-7.81,2.36-1.96,5.6-3.12,9.73-3.46l12.16-.96v-1.33c0-2.65-.47-4.73-1.4-6.23-.93-1.5-2.19-2.54-3.76-3.13-1.57-.59-3.29-.88-5.16-.88-3.29,0-5.86.73-7.7,2.17-1.84,1.45-2.76,3.48-2.76,6.08h-3.39c0-2.31.58-4.31,1.73-6.01,1.15-1.69,2.79-3.01,4.9-3.94,2.11-.93,4.54-1.4,7.3-1.4,2.55,0,4.85.43,6.89,1.29,2.04.86,3.67,2.24,4.9,4.13,1.23,1.89,1.84,4.36,1.84,7.41v23.44h-2.73l-.66-6.63c-1.23,2.41-3.02,4.26-5.38,5.56-2.36,1.3-5.06,1.95-8.11,1.95Zm.44-3.02c4.18,0,7.39-1.38,9.65-4.13,2.26-2.75,3.39-6.29,3.39-10.61v-1.92l-11.86.96c-3.59.29-6.18,1.23-7.77,2.8-1.6,1.57-2.4,3.44-2.4,5.6,0,2.41.83,4.23,2.51,5.45,1.67,1.23,3.83,1.84,6.49,1.84Z" style="stroke-width:0px;"/><path d="m214.38,696.13h-3.39v-35.37h2.73l.74,6.85c1.18-2.46,2.9-4.36,5.16-5.71,2.26-1.35,4.72-2.03,7.37-2.03,5.01,0,8.56,1.35,10.65,4.05,2.09,2.7,3.13,6.26,3.13,10.69v21.52h-3.39v-20.86c0-4.67-.95-7.89-2.84-9.65-1.89-1.77-4.43-2.65-7.63-2.65-4.03,0-7.12,1.36-9.29,4.09-2.16,2.73-3.24,6.33-3.24,10.8v18.28Z" style="stroke-width:0px;"/><path d="m261.39,697.01c-3.78,0-6.72-.96-8.81-2.87-2.09-1.92-3.13-4.37-3.13-7.37,0-3.24,1.18-5.85,3.54-7.81,2.36-1.96,5.6-3.12,9.73-3.46l12.16-.96v-1.33c0-2.65-.47-4.73-1.4-6.23-.93-1.5-2.19-2.54-3.76-3.13-1.57-.59-3.29-.88-5.16-.88-3.29,0-5.86.73-7.7,2.17-1.84,1.45-2.76,3.48-2.76,6.08h-3.39c0-2.31.58-4.31,1.73-6.01,1.15-1.69,2.79-3.01,4.9-3.94,2.11-.93,4.54-1.4,7.3-1.4,2.55,0,4.85.43,6.89,1.29,2.04.86,3.67,2.24,4.9,4.13,1.23,1.89,1.84,4.36,1.84,7.41v23.44h-2.73l-.66-6.63c-1.23,2.41-3.02,4.26-5.38,5.56-2.36,1.3-5.06,1.95-8.11,1.95Zm.44-3.02c4.18,0,7.39-1.38,9.65-4.13,2.26-2.75,3.39-6.29,3.39-10.61v-1.92l-11.86.96c-3.59.29-6.18,1.23-7.77,2.8-1.6,1.57-2.4,3.44-2.4,5.6,0,2.41.83,4.23,2.51,5.45,1.67,1.23,3.83,1.84,6.49,1.84Z" style="stroke-width:0px;"/><path d="m340.69,696.13h-33.6v-2.95l16.58-14.67c2.7-2.36,4.91-4.42,6.63-6.19,1.72-1.77,3.06-3.38,4.02-4.83.96-1.45,1.63-2.89,2.03-4.31.39-1.42.59-2.97.59-4.64,0-3.78-1.11-6.78-3.32-8.99-2.21-2.21-5.21-3.32-8.99-3.32s-7.05,1.33-9.51,3.98c-2.46,2.65-3.76,6.17-3.91,10.54h-3.54c.15-3.59.95-6.72,2.4-9.4,1.45-2.68,3.44-4.75,5.97-6.23,2.53-1.47,5.44-2.21,8.73-2.21,3.1,0,5.82.65,8.18,1.95,2.36,1.3,4.2,3.11,5.53,5.42,1.33,2.31,1.99,4.99,1.99,8.03,0,1.92-.23,3.72-.7,5.42-.47,1.69-1.25,3.39-2.36,5.08-1.11,1.69-2.6,3.53-4.5,5.49-1.89,1.97-4.29,4.23-7.19,6.78l-15.4,13.63-.88-1.84h31.25v3.24Z" style="stroke-width:0px;"/><path d="m348.64,669.97c0-5.45.81-10.21,2.43-14.26,1.62-4.05,3.95-7.21,7-9.47,3.05-2.26,6.71-3.39,10.98-3.39s7.93,1.13,10.98,3.39c3.05,2.26,5.38,5.42,7,9.47s2.43,8.81,2.43,14.26-.81,10.21-2.43,14.26-3.96,7.21-7,9.47c-3.05,2.26-6.71,3.39-10.98,3.39s-7.93-1.13-10.98-3.39c-3.05-2.26-5.38-5.42-7-9.47-1.62-4.05-2.43-8.81-2.43-14.26Zm3.46,0c0,4.72.66,8.87,1.99,12.45,1.33,3.59,3.25,6.37,5.79,8.36,2.53,1.99,5.59,2.98,9.18,2.98s6.64-.99,9.17-2.98c2.53-1.99,4.46-4.78,5.79-8.36,1.33-3.59,1.99-7.74,1.99-12.45s-.66-8.93-1.99-12.49c-1.33-3.56-3.26-6.34-5.79-8.33-2.53-1.99-5.59-2.98-9.17-2.98s-6.65.99-9.18,2.98c-2.53,1.99-4.46,4.77-5.79,8.33-1.33,3.56-1.99,7.73-1.99,12.49Z" style="stroke-width:0px;"/><path d="m430.67,696.13h-33.6v-2.95l16.58-14.67c2.7-2.36,4.91-4.42,6.63-6.19,1.72-1.77,3.06-3.38,4.02-4.83.96-1.45,1.63-2.89,2.03-4.31.39-1.42.59-2.97.59-4.64,0-3.78-1.11-6.78-3.32-8.99-2.21-2.21-5.21-3.32-8.99-3.32s-7.05,1.33-9.51,3.98c-2.46,2.65-3.76,6.17-3.91,10.54h-3.54c.15-3.59.95-6.72,2.4-9.4,1.45-2.68,3.44-4.75,5.97-6.23,2.53-1.47,5.44-2.21,8.73-2.21,3.1,0,5.82.65,8.18,1.95,2.36,1.3,4.2,3.11,5.53,5.42,1.33,2.31,1.99,4.99,1.99,8.03,0,1.92-.23,3.72-.7,5.42-.47,1.69-1.25,3.39-2.36,5.08-1.11,1.69-2.6,3.53-4.5,5.49-1.89,1.97-4.29,4.23-7.19,6.78l-15.4,13.63-.88-1.84h31.25v3.24Z" style="stroke-width:0px;"/><path d="m434.94,681.32l26.46-37.51h3.91l-26.38,37.51h-3.98Zm37.51,3.24h-37.51v-3.24h37.51v3.24Zm-6.12-40.75v52.32h-3.54v-52.32h3.54Z" style="stroke-width:0px;"/><line x1="1272.14" y1="631.15" x2="1272.14" y2="948.01" style="fill:none; stroke:#0878ff; stroke-miterlimit:10;"/><polygon points="1268.07 633.92 1272.14 618.74 1276.21 633.92 1268.07 633.92" style="fill:#0878ff; stroke-width:0px;"/><polygon points="1268.07 945.23 1272.14 960.41 1276.21 945.23 1268.07 945.23" style="fill:#0878ff; stroke-width:0px;"/><line x1="1285.98" y1="649.18" x2="1258.3" y2="649.18" style="fill:none; stroke:#0878ff; stroke-miterlimit:10;"/><line x1="1244.92" y1="664.91" x2="1299.36" y2="664.91" style="fill:none; stroke:#0878ff; stroke-miterlimit:10;"/><line x1="1285.98" y1="680.64" x2="1258.3" y2="680.64" style="fill:none; stroke:#0878ff; stroke-miterlimit:10;"/><line x1="1244.92" y1="696.38" x2="1299.36" y2="696.38" style="fill:none; stroke:#0878ff; stroke-miterlimit:10;"/><line x1="1285.98" y1="712.11" x2="1258.3" y2="712.11" style="fill:none; stroke:#0878ff; stroke-miterlimit:10;"/><line x1="1244.92" y1="727.84" x2="1299.36" y2="727.84" style="fill:none; stroke:#0878ff; stroke-miterlimit:10;"/><line x1="1285.98" y1="743.57" x2="1258.3" y2="743.57" style="fill:none; stroke:#0878ff; stroke-miterlimit:10;"/><line x1="1244.92" y1="759.3" x2="1299.36" y2="759.3" style="fill:none; stroke:#0878ff; stroke-miterlimit:10;"/><line x1="1285.98" y1="775.04" x2="1258.3" y2="775.04" style="fill:none; stroke:#0878ff; stroke-miterlimit:10;"/><line x1="1244.92" y1="790.77" x2="1299.36" y2="790.77" style="fill:none; stroke:#0878ff; stroke-miterlimit:10;"/><line x1="1285.98" y1="806.5" x2="1258.3" y2="806.5" style="fill:none; stroke:#0878ff; stroke-miterlimit:10;"/><line x1="1244.92" y1="822.23" x2="1299.36" y2="822.23" style="fill:none; stroke:#0878ff; stroke-miterlimit:10;"/><line x1="1285.98" y1="837.96" x2="1258.3" y2="837.96" style="fill:none; stroke:#0878ff; stroke-miterlimit:10;"/><line x1="1244.92" y1="853.7" x2="1299.36" y2="853.7" style="fill:none; stroke:#0878ff; stroke-miterlimit:10;"/><line x1="1285.98" y1="869.43" x2="1258.3" y2="869.43" style="fill:none; stroke:#0878ff; stroke-miterlimit:10;"/><line x1="1244.92" y1="885.16" x2="1299.36" y2="885.16" style="fill:none; stroke:#0878ff; stroke-miterlimit:10;"/><line x1="1285.98" y1="900.89" x2="1258.3" y2="900.89" style="fill:none; stroke:#0878ff; stroke-miterlimit:10;"/><line x1="1244.92" y1="916.62" x2="1299.36" y2="916.62" style="fill:none; stroke:#0878ff; stroke-miterlimit:10;"/><line x1="1285.98" y1="932.36" x2="1258.3" y2="932.36" style="fill:none; stroke:#0878ff; stroke-miterlimit:10;"/><path d="m0,960.07c24.46-61.99,45.76-91.94,63.93-90.17,29.86,2.92,38.01,90.17,63.93,90.17s37.58-90.17,63.93-90.17,37.58,90.17,63.93,90.17,37.58-90.17,63.93-90.17,37.58,90.17,63.93,90.17,37.58-90.17,63.93-90.17,37.58,90.17,63.93,90.17,37.58-90.17,63.93-90.17,34.08,87.25,63.93,90.17c18.2,1.78,39.51-28.28,63.93-90.17" style="fill:none; stroke:#0878ff; stroke-miterlimit:10;"/><polygon points="706.03 873.97 707.82 858.36 698.47 870.98 706.03 873.97" style="fill:#0878ff; stroke-width:0px;"/><circle cx="96.5" cy="914.26" r="11.3" style="fill:#fff; stroke:#0878ff; stroke-miterlimit:10;"/><circle cx="460.19" cy="877.33" r="11.3" style="fill:#fff; stroke:#0878ff; stroke-miterlimit:10;"/><path d="m1152.27,243.03c0-104.71,33.63-193.97,80.79-228.1" style="fill:none; stroke:#0878ff; stroke-miterlimit:10;"/><polygon points="1233.2 19.95 1243.32 7.5 1228.33 13.22 1233.2 19.95" style="fill:#0878ff; stroke-width:0px;"/><path d="m1155.69,243.03c0-91.66,32.14-169.9,77.36-200.61" style="fill:none; stroke:#0878ff; stroke-miterlimit:10;"/><polygon points="1233.05 47.44 1243.54 35.3 1228.38 40.57 1233.05 47.44" style="fill:#0878ff; stroke-width:0px;"/><path d="m1159.02,243.03c0-81.03,30.69-150.3,74.04-178.19" style="fill:none; stroke:#0878ff; stroke-miterlimit:10;"/><polygon points="1232.92 69.87 1243.71 57.98 1228.43 62.88 1232.92 69.87" style="fill:#0878ff; stroke-width:0px;"/><path d="m1162.57,243.03c0-66.26,29.15-123,70.49-146.52" style="fill:none; stroke:#0878ff; stroke-miterlimit:10;"/><polygon points="1232.65 101.52 1244.07 90.25 1228.54 94.3 1232.65 101.52" style="fill:#0878ff; stroke-width:0px;"/><path d="m1068.51,14.93c47.16,34.13,80.79,123.39,80.79,228.1" style="fill:none; stroke:#0878ff; stroke-miterlimit:10;"/><polygon points="1068.37 19.95 1058.25 7.5 1073.24 13.22 1068.37 19.95" style="fill:#0878ff; stroke-width:0px;"/><path d="m1068.51,42.42c45.23,30.72,77.36,108.96,77.36,200.61" style="fill:none; stroke:#0878ff; stroke-miterlimit:10;"/><polygon points="1068.52 47.44 1058.03 35.3 1073.19 40.57 1068.52 47.44" style="fill:#0878ff; stroke-width:0px;"/><path d="m1068.51,64.84c43.35,27.89,74.04,97.16,74.04,178.19" style="fill:none; stroke:#0878ff; stroke-miterlimit:10;"/><polygon points="1068.65 69.87 1057.86 57.98 1073.14 62.88 1068.65 69.87" style="fill:#0878ff; stroke-width:0px;"/><path d="m1068.51,96.51c41.34,23.52,70.49,80.26,70.49,146.52" style="fill:none; stroke:#0878ff; stroke-miterlimit:10;"/><polygon points="1068.92 101.52 1057.5 90.25 1073.03 94.3 1068.92 101.52" style="fill:#0878ff; stroke-width:0px;"/></svg>