<?xml version="1.0" encoding="UTF-8"?><svg id="Layer_1" xmlns="http://www.w3.org/2000/svg" viewBox="0 0 1332.48 973.93"><g id="_Grid_Repeat_"><line x1="968.94" y1=".96" x2="968.94" y2="121.64" style="fill:none; stroke:#0978ff; stroke-miterlimit:10;"/></g><g id="_Grid_Repeat_-2"><polyline points="969.44 .96 1090.12 .96 1090.12 121.64" style="fill:none; stroke:#0978ff; stroke-miterlimit:10;"/></g><g id="_Grid_Repeat_-3"><polyline points="1090.62 .96 1211.3 .96 1211.3 121.64" style="fill:none; stroke:#0978ff; stroke-miterlimit:10;"/></g><g id="_Grid_Repeat_-4"><line x1="1211.8" y1=".96" x2="1332.48" y2=".96" style="fill:none; stroke:#0978ff; stroke-miterlimit:10;"/></g><g id="_Grid_Repeat_-5"><polyline points="0 122.14 120.68 122.14 120.68 242.82" style="fill:none; stroke:#0978ff; stroke-miterlimit:10;"/></g><g id="_Grid_Repeat_-6"><polyline points="121.18 122.14 241.86 122.14 241.86 242.82" style="fill:none; stroke:#0978ff; stroke-miterlimit:10;"/></g><g id="_Grid_Repeat_-7"><polyline points="242.36 122.14 363.04 122.14 363.04 242.82" style="fill:none; stroke:#0978ff; stroke-miterlimit:10;"/></g><g id="_Grid_Repeat_-8"><polyline points="363.54 122.14 484.22 122.14 484.22 242.82" style="fill:none; stroke:#0978ff; stroke-miterlimit:10;"/></g><g id="_Grid_Repeat_-9"><polyline points="484.72 122.14 605.4 122.14 605.4 242.82" style="fill:none; stroke:#0978ff; stroke-miterlimit:10;"/></g><g id="_Grid_Repeat_-10"><polyline points="605.9 122.14 726.58 122.14 726.58 242.82" style="fill:none; stroke:#0978ff; stroke-miterlimit:10;"/></g><g id="_Grid_Repeat_-11"><polyline points="727.08 122.14 847.76 122.14 847.76 242.82" style="fill:none; stroke:#0978ff; stroke-miterlimit:10;"/></g><g id="_Grid_Repeat_-12"><polyline points="848.26 122.14 968.94 122.14 968.94 242.82" style="fill:none; stroke:#0978ff; stroke-miterlimit:10;"/></g><g id="_Grid_Repeat_-13"><polyline points="969.44 122.14 1090.12 122.14 1090.12 242.82" style="fill:none; stroke:#0978ff; stroke-miterlimit:10;"/></g><g id="_Grid_Repeat_-14"><polyline points="1090.62 122.14 1211.3 122.14 1211.3 242.82" style="fill:none; stroke:#0978ff; stroke-miterlimit:10;"/></g><g id="_Grid_Repeat_-15"><line x1="1211.8" y1="122.14" x2="1332.48" y2="122.14" style="fill:none; stroke:#0978ff; stroke-miterlimit:10;"/></g><g id="_Grid_Repeat_-16"><line y1="243.32" x2="120.68" y2="243.32" style="fill:none; stroke:#0978ff; stroke-miterlimit:10;"/></g><g id="_Grid_Repeat_-17"><line x1="121.18" y1="243.32" x2="241.86" y2="243.32" style="fill:none; stroke:#0978ff; stroke-miterlimit:10;"/></g><g id="_Grid_Repeat_-18"><line x1="242.36" y1="243.32" x2="363.04" y2="243.32" style="fill:none; stroke:#0978ff; stroke-miterlimit:10;"/></g><g id="_Grid_Repeat_-19"><polyline points="363.54 243.32 484.22 243.32 484.22 364" style="fill:none; stroke:#0978ff; stroke-miterlimit:10;"/></g><g id="_Grid_Repeat_-20"><line x1="484.72" y1="243.32" x2="605.4" y2="243.32" style="fill:none; stroke:#0978ff; stroke-miterlimit:10;"/></g><g id="_Grid_Repeat_-21"><line x1="605.9" y1="243.32" x2="726.58" y2="243.32" style="fill:none; stroke:#0978ff; stroke-miterlimit:10;"/></g><g id="_Grid_Repeat_-22"><line x1="727.08" y1="243.32" x2="847.76" y2="243.32" style="fill:none; stroke:#0978ff; stroke-miterlimit:10;"/></g><g id="_Grid_Repeat_-23"><line x1="848.26" y1="243.32" x2="968.94" y2="243.32" style="fill:none; stroke:#0978ff; stroke-miterlimit:10;"/></g><g id="_Grid_Repeat_-24"><line x1="969.44" y1="243.32" x2="1090.12" y2="243.32" style="fill:none; stroke:#0978ff; stroke-miterlimit:10;"/></g><g id="_Grid_Repeat_-25"><polyline points="1090.62 243.32 1211.3 243.32 1211.3 364" style="fill:none; stroke:#0978ff; stroke-miterlimit:10;"/></g><g id="_Grid_Repeat_-26"><line x1="1211.8" y1="243.32" x2="1332.48" y2="243.32" style="fill:none; stroke:#0978ff; stroke-miterlimit:10;"/></g><g id="_Grid_Repeat_-27"><line x1="484.22" y1="364.5" x2="484.22" y2="485.18" style="fill:none; stroke:#0978ff; stroke-miterlimit:10;"/></g><g id="_Grid_Repeat_-28"><line x1="1211.3" y1="364.5" x2="1211.3" y2="485.18" style="fill:none; stroke:#0978ff; stroke-miterlimit:10;"/></g><g id="_Grid_Repeat_-29"><line x1="1211.8" y1="364.5" x2="1332.48" y2="364.5" style="fill:none; stroke:#0978ff; stroke-miterlimit:10;"/></g><g id="_Grid_Repeat_-30"><line x1="484.22" y1="485.68" x2="484.22" y2="606.36" style="fill:none; stroke:#0978ff; stroke-miterlimit:10;"/></g><g id="_Grid_Repeat_-31"><line x1="1211.3" y1="485.68" x2="1211.3" y2="606.36" style="fill:none; stroke:#0978ff; stroke-miterlimit:10;"/></g><g id="_Grid_Repeat_-32"><line x1="1211.8" y1="485.68" x2="1332.48" y2="485.68" style="fill:none; stroke:#0978ff; stroke-miterlimit:10;"/></g><g id="_Grid_Repeat_-33"><polyline points="0 606.86 120.68 606.86 120.68 727.54" style="fill:none; stroke:#0978ff; stroke-miterlimit:10;"/></g><g id="_Grid_Repeat_-34"><polyline points="121.18 606.86 241.86 606.86 241.86 727.54" style="fill:none; stroke:#0978ff; stroke-miterlimit:10;"/></g><g id="_Grid_Repeat_-35"><polyline points="242.36 606.86 363.04 606.86 363.04 727.54" style="fill:none; stroke:#0978ff; stroke-miterlimit:10;"/></g><g id="_Grid_Repeat_-36"><polyline points="363.54 606.86 484.22 606.86 484.22 727.54" style="fill:none; stroke:#0978ff; stroke-miterlimit:10;"/></g><g id="_Grid_Repeat_-37"><line x1="1211.3" y1="606.86" x2="1211.3" y2="727.54" style="fill:none; stroke:#0978ff; stroke-miterlimit:10;"/></g><g id="_Grid_Repeat_-38"><line x1="1211.8" y1="606.86" x2="1332.48" y2="606.86" style="fill:none; stroke:#0978ff; stroke-miterlimit:10;"/></g><g id="_Grid_Repeat_-39"><polyline points="0 728.04 120.68 728.04 120.68 848.72" style="fill:none; stroke:#0978ff; stroke-miterlimit:10;"/></g><g id="_Grid_Repeat_-40"><polyline points="121.18 728.04 241.86 728.04 241.86 848.72" style="fill:none; stroke:#0978ff; stroke-miterlimit:10;"/></g><g id="_Grid_Repeat_-41"><polyline points="242.36 728.04 363.04 728.04 363.04 848.72" style="fill:none; stroke:#0978ff; stroke-miterlimit:10;"/></g><g id="_Grid_Repeat_-42"><polyline points="363.54 728.04 484.22 728.04 484.22 848.72" style="fill:none; stroke:#0978ff; stroke-miterlimit:10;"/></g><g id="_Grid_Repeat_-44"><line x1="1211.3" y1="728.04" x2="1211.3" y2="848.72" style="fill:none; stroke:#0978ff; stroke-miterlimit:10;"/></g><g id="_Grid_Repeat_-45"><line x1="1211.8" y1="728.04" x2="1332.48" y2="728.04" style="fill:none; stroke:#0978ff; stroke-miterlimit:10;"/></g><g id="_Grid_Repeat_-46"><polyline points="0 849.22 120.68 849.22 120.68 969.9" style="fill:none; stroke:#0978ff; stroke-miterlimit:10;"/></g><g id="_Grid_Repeat_-47"><polyline points="121.18 849.22 241.86 849.22 241.86 969.9" style="fill:none; stroke:#0978ff; stroke-miterlimit:10;"/></g><g id="_Grid_Repeat_-48"><polyline points="242.36 849.22 363.04 849.22 363.04 969.9" style="fill:none; stroke:#0978ff; stroke-miterlimit:10;"/></g><g id="_Grid_Repeat_-49"><polyline points="363.54 849.22 484.22 849.22 484.22 969.9" style="fill:none; stroke:#0978ff; stroke-miterlimit:10;"/></g><g id="_Grid_Repeat_-50"><polyline points="484.72 849.22 605.4 849.22 605.4 969.9" style="fill:none; stroke:#0978ff; stroke-miterlimit:10;"/></g><g id="_Grid_Repeat_-51"><polyline points="605.9 849.22 726.58 849.22 726.58 969.9" style="fill:none; stroke:#0978ff; stroke-miterlimit:10;"/></g><g id="_Grid_Repeat_-52"><polyline points="727.08 849.22 847.76 849.22 847.76 969.9" style="fill:none; stroke:#0978ff; stroke-miterlimit:10;"/></g><g id="_Grid_Repeat_-53"><polyline points="848.26 849.22 968.94 849.22 968.94 969.9" style="fill:none; stroke:#0978ff; stroke-miterlimit:10;"/></g><g id="_Grid_Repeat_-54"><polyline points="969.44 849.22 1090.12 849.22 1090.12 969.9" style="fill:none; stroke:#0978ff; stroke-miterlimit:10;"/></g><g id="_Grid_Repeat_-55"><polyline points="1090.62 849.22 1211.3 849.22 1211.3 969.9" style="fill:none; stroke:#0978ff; stroke-miterlimit:10;"/></g><g id="_Grid_Repeat_-56"><line x1="1211.8" y1="849.22" x2="1332.48" y2="849.22" style="fill:none; stroke:#0978ff; stroke-miterlimit:10;"/></g><g id="_Grid_Repeat_-57"><line y1="970.4" x2="120.68" y2="970.4" style="fill:none; stroke:#0978ff; stroke-miterlimit:10;"/></g><g id="_Grid_Repeat_-58"><line x1="121.18" y1="970.4" x2="241.86" y2="970.4" style="fill:none; stroke:#0978ff; stroke-miterlimit:10;"/></g><g id="_Grid_Repeat_-59"><line x1="242.36" y1="970.4" x2="363.04" y2="970.4" style="fill:none; stroke:#0978ff; stroke-miterlimit:10;"/></g><g id="_Grid_Repeat_-60"><line x1="363.54" y1="970.4" x2="484.22" y2="970.4" style="fill:none; stroke:#0978ff; stroke-miterlimit:10;"/></g><g id="_Grid_Repeat_-61"><line x1="484.72" y1="970.4" x2="605.4" y2="970.4" style="fill:none; stroke:#0978ff; stroke-miterlimit:10;"/></g><g id="_Grid_Repeat_-62"><line x1="605.9" y1="970.4" x2="726.58" y2="970.4" style="fill:none; stroke:#0978ff; stroke-miterlimit:10;"/></g><g id="_Grid_Repeat_-63"><line x1="727.08" y1="970.4" x2="847.76" y2="970.4" style="fill:none; stroke:#0978ff; stroke-miterlimit:10;"/></g><g id="_Grid_Repeat_-64"><line x1="848.26" y1="970.4" x2="968.94" y2="970.4" style="fill:none; stroke:#0978ff; stroke-miterlimit:10;"/></g><g id="_Grid_Repeat_-65"><line x1="969.44" y1="970.4" x2="1090.12" y2="970.4" style="fill:none; stroke:#0978ff; stroke-miterlimit:10;"/></g><g id="_Grid_Repeat_-66"><line x1="1090.62" y1="970.4" x2="1211.3" y2="970.4" style="fill:none; stroke:#0978ff; stroke-miterlimit:10;"/></g><g id="_Grid_Repeat_-67"><line x1="1211.8" y1="970.4" x2="1332.48" y2="970.4" style="fill:none; stroke:#0978ff; stroke-miterlimit:10;"/></g><rect x="19.61" y="-.32" width="7.42" height="109.68" style="stroke-width:0px;"/><path d="m80.01,33.36c-5.56,0-10.71,1.42-15.45,4.25-4.74,2.83-8.34,6.82-10.81,11.97l-1.54-14.37h-5.72v74.15h7.11v-38.31c0-9.37,2.26-16.92,6.8-22.63,4.53-5.72,11.02-8.57,19.46-8.57,6.69,0,12.02,1.85,15.99,5.56,3.96,3.71,5.95,10.45,5.95,20.24v43.72h7.11v-45.11c0-9.27-2.19-16.73-6.57-22.4-4.38-5.66-11.82-8.5-22.32-8.5Z" style="stroke-width:0px;"/><path d="m158.79,33.36c-5.56,0-10.71,1.42-15.45,4.25-4.74,2.83-8.34,6.82-10.81,11.97l-1.54-14.37h-5.72v74.15h7.11v-38.31c0-9.37,2.26-16.92,6.8-22.63,4.53-5.72,11.02-8.57,19.46-8.57,6.69,0,12.02,1.85,15.99,5.56,3.96,3.71,5.95,10.45,5.95,20.24v43.72h7.11v-45.11c0-9.27-2.19-16.73-6.57-22.4-4.38-5.66-11.82-8.5-22.32-8.5Z" style="stroke-width:0px;"/><path d="m256.24,38.45c-5.51-3.4-11.82-5.1-18.92-5.1s-13.29,1.7-18.85,5.1c-5.56,3.4-9.94,8.01-13.13,13.83-3.19,5.82-4.79,12.49-4.79,20s1.6,14.06,4.79,19.93c3.19,5.87,7.57,10.5,13.13,13.9,5.56,3.4,11.84,5.1,18.85,5.1s13.41-1.7,18.92-5.1c5.51-3.4,9.86-8.03,13.05-13.9,3.19-5.87,4.79-12.51,4.79-19.93s-1.6-14.19-4.79-20c-3.19-5.82-7.54-10.43-13.05-13.83Zm6.8,50.59c-2.52,4.89-6,8.73-10.43,11.51-4.43,2.78-9.53,4.17-15.29,4.17s-10.87-1.39-15.29-4.17c-4.43-2.78-7.9-6.62-10.43-11.51-2.52-4.89-3.78-10.48-3.78-16.76s1.26-12,3.78-16.84c2.52-4.84,6-8.65,10.43-11.43,4.43-2.78,9.53-4.17,15.29-4.17s10.86,1.39,15.29,4.17c4.43,2.78,7.9,6.59,10.43,11.43,2.52,4.84,3.78,10.45,3.78,16.84s-1.26,11.87-3.78,16.76Z" style="stroke-width:0px;"/><path d="m318.98,89.12c-.82,2.06-1.62,4.07-2.39,6.03-.77,1.96-1.57,4.27-2.39,6.95-.83-2.68-1.62-5.02-2.39-7.03s-1.57-3.99-2.39-5.95l-22.09-53.91h-7.57l30.74,74.15h7.26l30.74-74.15h-7.42l-22.09,53.91Z" style="stroke-width:0px;"/><path d="m401.97,36.06c-4.27-1.8-9.09-2.7-14.44-2.7-5.77,0-10.87.98-15.29,2.93-4.43,1.96-7.85,4.71-10.27,8.26-2.42,3.55-3.63,7.75-3.63,12.59h7.11c0-5.46,1.93-9.71,5.79-12.74,3.86-3.04,9.24-4.56,16.14-4.56,3.91,0,7.52.62,10.81,1.85,3.29,1.24,5.92,3.43,7.88,6.57,1.96,3.14,2.93,7.49,2.93,13.05v2.78l-25.49,2.01c-8.65.72-15.45,3.14-20.39,7.26-4.94,4.12-7.42,9.58-7.42,16.38,0,6.28,2.19,11.43,6.57,15.45,4.38,4.02,10.53,6.02,18.46,6.02,6.38,0,12.05-1.37,16.99-4.09s8.7-6.62,11.28-11.66l1.39,13.9h5.72v-49.12c0-6.38-1.29-11.56-3.86-15.53-2.58-3.96-6-6.85-10.27-8.65Zm7.03,37.92c0,9.06-2.37,16.48-7.11,22.24-4.74,5.77-11.48,8.65-20.24,8.65-5.56,0-10.09-1.29-13.59-3.86-3.5-2.57-5.25-6.38-5.25-11.43,0-4.53,1.67-8.44,5.02-11.74,3.35-3.29,8.78-5.25,16.3-5.87l24.87-2.01v4.02Z" style="stroke-width:0px;"/><polygon points="449.52 11.73 442.41 11.73 442.41 35.21 427.43 35.21 427.43 41.39 442.41 41.39 442.41 109.36 449.52 109.36 449.52 41.39 464.5 41.39 464.5 35.21 449.52 35.21 449.52 11.73" style="stroke-width:0px;"/><path d="m523.8,37.68c-4.89-2.88-10.58-4.33-17.07-4.33-6.9,0-12.95,1.65-18.15,4.94-5.2,3.3-9.27,7.88-12.2,13.75-2.94,5.87-4.4,12.67-4.4,20.39s1.49,14.5,4.48,20.31c2.99,5.82,7.16,10.35,12.51,13.59,5.35,3.24,11.59,4.87,18.69,4.87,8.34,0,15.16-1.96,20.47-5.87,5.3-3.91,9.04-9.68,11.2-17.3h-7.26c-1.44,5.46-4.22,9.6-8.34,12.44-4.12,2.83-9.48,4.25-16.07,4.25-8.96,0-15.96-2.99-21.01-8.96-4.8-5.68-7.31-13.46-7.55-23.33h60.22v-4.94c0-6.8-1.37-12.74-4.09-17.84-2.73-5.1-6.54-9.09-11.43-11.97Zm-44.52,28.89c.42-4.42,1.51-8.41,3.27-11.97,2.32-4.69,5.56-8.32,9.73-10.89,4.17-2.57,8.98-3.86,14.44-3.86,7.62,0,13.75,2.45,18.38,7.34,4.63,4.89,6.95,11.35,6.95,19.39h-52.78Z" style="stroke-width:0px;"/><polygon points="672.84 50.19 609.04 50.19 609.04 -.32 601.63 -.32 601.63 109.36 601.75 175.36 567.57 141.19 562.47 146.28 605.35 189.17 648.23 146.28 643.13 141.19 608.95 175.36 609.04 109.36 609.04 56.99 672.84 56.99 672.84 109.36 680.26 109.36 680.26 -.32 672.84 -.32 672.84 50.19" style="stroke-width:0px;"/><path d="m750.1,37.68c-4.89-2.88-10.58-4.33-17.07-4.33-6.9,0-12.95,1.65-18.15,4.94-5.2,3.3-9.27,7.88-12.2,13.75-2.94,5.87-4.4,12.67-4.4,20.39s1.49,14.5,4.48,20.31c2.99,5.82,7.16,10.35,12.51,13.59,5.35,3.24,11.59,4.87,18.69,4.87,8.34,0,15.16-1.96,20.47-5.87,5.3-3.91,9.04-9.68,11.2-17.3h-7.26c-1.44,5.46-4.22,9.6-8.34,12.44-4.12,2.83-9.48,4.25-16.07,4.25-8.96,0-15.96-2.99-21.01-8.96-4.8-5.68-7.31-13.46-7.55-23.33h60.22v-4.94c0-6.8-1.37-12.74-4.09-17.84-2.73-5.1-6.54-9.09-11.43-11.97Zm-44.52,28.89c.42-4.42,1.51-8.41,3.27-11.97,2.32-4.69,5.56-8.32,9.73-10.89,4.17-2.57,8.98-3.86,14.44-3.86,7.62,0,13.75,2.45,18.38,7.34,4.63,4.89,6.95,11.35,6.95,19.39h-52.78Z" style="stroke-width:0px;"/><path d="m813.47,33.36c-5.67,0-10.53,1.47-14.6,4.4-3.4,2.45-5.72,5.58-7,9.36l-.65-11.91h-6.64v74.15h7.11v-45.11c0-7,2.06-12.74,6.18-17.22,4.12-4.48,9.63-6.72,16.53-6.72h5.56v-6.18c-1.24-.31-2.34-.51-3.32-.62-.98-.1-2.04-.15-3.17-.15Z" style="stroke-width:0px;"/><path d="m892.46,67.5c0-6.8-1.37-12.74-4.09-17.84-2.73-5.1-6.54-9.09-11.43-11.97-4.89-2.88-10.58-4.33-17.07-4.33-6.9,0-12.95,1.65-18.15,4.94-5.2,3.3-9.27,7.88-12.2,13.75-2.94,5.87-4.4,12.67-4.4,20.39s1.49,14.5,4.48,20.31c2.99,5.82,7.16,10.35,12.51,13.59,5.35,3.24,11.59,4.87,18.69,4.87,8.34,0,15.16-1.96,20.47-5.87,5.3-3.91,9.04-9.68,11.2-17.3h-7.26c-1.44,5.46-4.22,9.6-8.34,12.44-4.12,2.83-9.48,4.25-16.07,4.25-8.96,0-15.96-2.99-21.01-8.96-4.8-5.68-7.31-13.46-7.55-23.33h60.22v-4.94Zm-60.04-.93c.42-4.42,1.51-8.41,3.27-11.97,2.32-4.69,5.56-8.32,9.73-10.89,4.17-2.57,8.98-3.86,14.44-3.86,7.62,0,13.75,2.45,18.38,7.34,4.63,4.89,6.95,11.35,6.95,19.39h-52.78Z" style="stroke-width:0px;"/><g id="Event_title"><g style="isolation:isolate;"><path d="m66.75,408.03h-7.28v-107.69h7.28l41.26,98.89,41.1-98.89h7.43v107.69h-7.28v-59c0-4.45.02-8.37.08-11.75.05-3.39.1-6.42.15-9.1.05-2.68.13-5.05.23-7.13.1-2.07.2-4.02.3-5.84l-38.37,92.82h-7.28l-38.37-92.37c.2,1.52.38,5.23.53,11.15.15,5.92.23,13.32.23,22.22v59Z" style="fill:#0978ff; stroke-width:0px;"/><path d="m202.04,409.85c-7.79,0-13.83-1.97-18.12-5.92-4.3-3.94-6.45-9-6.45-15.17,0-6.67,2.43-12.03,7.28-16.08,4.85-4.04,11.53-6.42,20.02-7.13l25.03-1.97v-2.73c0-5.46-.96-9.73-2.88-12.82-1.92-3.08-4.5-5.23-7.74-6.45-3.24-1.21-6.78-1.82-10.62-1.82-6.78,0-12.06,1.49-15.85,4.47-3.79,2.98-5.69,7.16-5.69,12.51h-6.98c0-4.75,1.19-8.87,3.56-12.36,2.38-3.49,5.74-6.19,10.09-8.12,4.35-1.92,9.35-2.88,15.02-2.88,5.26,0,9.99.89,14.18,2.65,4.2,1.77,7.56,4.6,10.09,8.49,2.53,3.89,3.79,8.97,3.79,15.24v48.23h-5.61l-1.37-13.65c-2.53,4.96-6.22,8.77-11.07,11.45s-10.42,4.02-16.68,4.02Zm.91-6.22c8.59,0,15.22-2.83,19.87-8.49,4.65-5.66,6.98-12.94,6.98-21.84v-3.94l-24.42,1.97c-7.38.61-12.72,2.53-16,5.76-3.29,3.24-4.93,7.08-4.93,11.53,0,4.96,1.72,8.7,5.16,11.22,3.44,2.53,7.89,3.79,13.35,3.79Z" style="fill:#0978ff; stroke-width:0px;"/><path d="m293.35,334.16v6.07h-5.46c-6.78,0-12.19,2.2-16.23,6.6-4.05,4.4-6.07,10.04-6.07,16.91v44.29h-6.98v-72.8h6.52l.76,13.95h-.76c1.01-4.75,3.51-8.57,7.51-11.45,3.99-2.88,8.77-4.32,14.33-4.32,1.11,0,2.15.05,3.11.15.96.1,2.05.3,3.26.61Z" style="fill:#0978ff; stroke-width:0px;"/><path d="m299.11,371.93c0-7.68,1.44-14.41,4.32-20.17s6.9-10.26,12.06-13.5c5.16-3.23,11.22-4.85,18.2-4.85,7.79,0,14.43,2.12,19.95,6.37,5.51,4.25,9.07,9.81,10.69,16.68h-7.13c-1.52-5.36-4.47-9.5-8.87-12.44-4.4-2.93-9.28-4.4-14.64-4.4s-10.14,1.32-14.33,3.94c-4.2,2.63-7.48,6.35-9.86,11.15-2.38,4.8-3.56,10.49-3.56,17.06s1.11,11.78,3.34,16.53c2.22,4.75,5.36,8.47,9.4,11.15,4.04,2.68,8.75,4.02,14.11,4.02,5.86,0,11.05-1.52,15.55-4.55,4.5-3.03,7.56-7.03,9.18-11.98h7.13c-1.32,4.55-3.49,8.55-6.52,11.98-3.03,3.44-6.73,6.12-11.07,8.04-4.35,1.92-9.1,2.88-14.26,2.88-6.67,0-12.54-1.59-17.59-4.78-5.06-3.18-9-7.61-11.83-13.27-2.83-5.66-4.25-12.29-4.25-19.87Z" style="fill:#0978ff; stroke-width:0px;"/><path d="m388.14,407.88h-6.98v-109.36h6.98v50.81c2.33-4.75,5.74-8.59,10.24-11.53,4.5-2.93,9.98-4.4,16.46-4.4,9.81,0,16.86,2.78,21.16,8.34,4.3,5.56,6.45,12.89,6.45,21.99v44.29h-6.98v-42.92c0-6.47-.89-11.53-2.65-15.17-1.77-3.64-4.25-6.24-7.43-7.81-3.19-1.57-6.85-2.35-11-2.35-5.76,0-10.59,1.31-14.49,3.94-3.89,2.63-6.83,6.12-8.8,10.46-1.97,4.35-2.96,9.1-2.96,14.26v39.44Z" style="fill:#0978ff; stroke-width:0px;"/><path d="m65.84,473.2l28.52-38.37h8.64l-31.55,41.71-.61-.61c4.04-2.63,7.61-4.42,10.69-5.38,3.08-.96,6.34-1.44,9.78-1.44,7.48,0,14.03,1.67,19.64,5,5.61,3.34,9.96,7.84,13.04,13.5,3.08,5.66,4.63,11.98,4.63,18.96s-1.67,13.63-5.01,19.34c-3.34,5.71-7.84,10.21-13.5,13.5-5.66,3.29-11.98,4.93-18.96,4.93s-13.32-1.67-19.04-5.01c-5.71-3.34-10.26-7.86-13.65-13.57-3.39-5.71-5.08-12.11-5.08-19.19,0-4.15.38-7.94,1.14-11.38.76-3.44,2.05-6.92,3.87-10.47,1.82-3.54,4.3-7.38,7.43-11.53Zm-5.16,33.37c0,5.97,1.29,11.28,3.87,15.93,2.58,4.65,6.17,8.32,10.77,11,4.6,2.68,9.88,4.02,15.85,4.02s11.07-1.34,15.62-4.02c4.55-2.68,8.12-6.34,10.69-11,2.58-4.65,3.87-9.96,3.87-15.93s-1.29-11.25-3.87-15.85c-2.58-4.6-6.14-8.21-10.69-10.84-4.55-2.63-9.76-3.94-15.62-3.94s-11.25,1.32-15.85,3.94c-4.6,2.63-8.19,6.25-10.77,10.84-2.58,4.6-3.87,9.88-3.87,15.85Z" style="fill:#0978ff; stroke-width:0px;"/><path d="m145.77,506.11v-6.37h41.86v6.37h-41.86Z" style="fill:#0978ff; stroke-width:0px;"/><path d="m194.15,434.82h71.29v6.67h-71.29v-6.67Zm65.98,1.97l5.31,4.7-43.68,101.01h-7.58l45.96-105.72Z" style="fill:#0978ff; stroke-width:0px;"/><path d="m269.69,469.71h36.4v6.07h-36.4v-6.07Zm21.69,72.8h-6.98v-95.86h6.98v95.86Z" style="fill:#0978ff; stroke-width:0px;"/><path d="m327.32,542.36h-6.98v-109.36h6.98v50.81c2.33-4.75,5.74-8.59,10.24-11.53,4.5-2.93,9.98-4.4,16.46-4.4,9.81,0,16.86,2.78,21.16,8.34,4.3,5.56,6.45,12.89,6.45,21.99v44.29h-6.98v-42.92c0-6.47-.89-11.53-2.65-15.17-1.77-3.64-4.25-6.24-7.43-7.81-3.19-1.57-6.85-2.35-11-2.35-5.76,0-10.59,1.31-14.49,3.94-3.89,2.63-6.83,6.12-8.8,10.46-1.97,4.35-2.96,9.1-2.96,14.26v39.44Z" style="fill:#0978ff; stroke-width:0px;"/></g></g></svg>