<?xml version="1.0" encoding="UTF-8"?><svg id="Layer_1" xmlns="http://www.w3.org/2000/svg" viewBox="0 0 1696.02 974.68"><g id="_Grid_Repeat_"><line x1="968.94" y1="4.17" x2="968.94" y2="124.85" style="fill:none; stroke:#0978ff; stroke-miterlimit:10;"/></g><g id="_Grid_Repeat_-2"><polyline points="969.44 4.17 1090.12 4.17 1090.12 124.85" style="fill:none; stroke:#0978ff; stroke-miterlimit:10;"/></g><g id="_Grid_Repeat_-3"><polyline points="1090.62 4.17 1211.3 4.17 1211.3 124.85" style="fill:none; stroke:#0978ff; stroke-miterlimit:10;"/></g><g id="_Grid_Repeat_-4"><polyline points="1211.8 4.17 1332.48 4.17 1332.48 124.85" style="fill:none; stroke:#0978ff; stroke-miterlimit:10;"/></g><g id="_Grid_Repeat_-5"><line x1="1332.98" y1="4.17" x2="1453.66" y2="4.17" style="fill:none; stroke:#0978ff; stroke-miterlimit:10;"/></g><g id="_Grid_Repeat_-6"><line x1="1454.16" y1="4.17" x2="1574.84" y2="4.17" style="fill:none; stroke:#0978ff; stroke-miterlimit:10;"/></g><g id="_Grid_Repeat_-7"><line x1="1575.34" y1="4.17" x2="1696.02" y2="4.17" style="fill:none; stroke:#0978ff; stroke-miterlimit:10;"/></g><g id="_Grid_Repeat_-8"><line y1="125.35" x2="120.68" y2="125.35" style="fill:none; stroke:#0978ff; stroke-miterlimit:10;"/></g><g id="_Grid_Repeat_-9"><line x1="121.18" y1="125.35" x2="241.86" y2="125.35" style="fill:none; stroke:#0978ff; stroke-miterlimit:10;"/></g><g id="_Grid_Repeat_-10"><line x1="242.36" y1="125.35" x2="363.04" y2="125.35" style="fill:none; stroke:#0978ff; stroke-miterlimit:10;"/></g><g id="_Grid_Repeat_-11"><line x1="363.54" y1="125.35" x2="484.22" y2="125.35" style="fill:none; stroke:#0978ff; stroke-miterlimit:10;"/></g><g id="_Grid_Repeat_-12"><polyline points="484.72 125.35 605.4 125.35 605.4 246.03" style="fill:none; stroke:#0978ff; stroke-miterlimit:10;"/></g><g id="_Grid_Repeat_-13"><polyline points="605.9 125.35 726.58 125.35 726.58 246.03" style="fill:none; stroke:#0978ff; stroke-miterlimit:10;"/></g><g id="_Grid_Repeat_-14"><polyline points="727.08 125.35 847.76 125.35 847.76 246.03" style="fill:none; stroke:#0978ff; stroke-miterlimit:10;"/></g><g id="_Grid_Repeat_-15"><polyline points="363.54 125.35 484.22 125.35 484.22 246.03" style="fill:none; stroke:#0978ff; stroke-miterlimit:10;"/></g><g id="_Grid_Repeat_-16"><polyline points="848.26 125.35 968.94 125.35 968.94 246.03" style="fill:none; stroke:#0978ff; stroke-miterlimit:10;"/></g><g id="_Grid_Repeat_-17"><polyline points="969.44 125.35 1090.12 125.35 1090.12 246.03" style="fill:none; stroke:#0978ff; stroke-miterlimit:10;"/></g><g id="_Grid_Repeat_-18"><polyline points="1090.62 125.35 1211.3 125.35 1211.3 246.03" style="fill:none; stroke:#0978ff; stroke-miterlimit:10;"/></g><g id="_Grid_Repeat_-19"><polyline points="1211.8 125.35 1332.48 125.35 1332.48 246.03" style="fill:none; stroke:#0978ff; stroke-miterlimit:10;"/></g><g id="_Grid_Repeat_-21"><line y1="246.53" x2="120.68" y2="246.53" style="fill:none; stroke:#0978ff; stroke-miterlimit:10;"/></g><g id="_Grid_Repeat_-22"><line x1="121.18" y1="246.53" x2="241.86" y2="246.53" style="fill:none; stroke:#0978ff; stroke-miterlimit:10;"/></g><g id="_Grid_Repeat_-23"><line x1="242.36" y1="246.53" x2="363.04" y2="246.53" style="fill:none; stroke:#0978ff; stroke-miterlimit:10;"/></g><g id="_Grid_Repeat_-24"><polyline points="363.54 246.53 484.22 246.53 484.22 367.21" style="fill:none; stroke:#0978ff; stroke-miterlimit:10;"/></g><g id="_Grid_Repeat_-25"><polyline points="484.72 246.53 605.4 246.53 605.4 367.21" style="fill:none; stroke:#0978ff; stroke-miterlimit:10;"/></g><g id="_Grid_Repeat_-26"><line x1="605.9" y1="246.53" x2="726.58" y2="246.53" style="fill:none; stroke:#0978ff; stroke-miterlimit:10;"/></g><g id="_Grid_Repeat_-27"><line x1="727.08" y1="246.53" x2="847.76" y2="246.53" style="fill:none; stroke:#0978ff; stroke-miterlimit:10;"/></g><g id="_Grid_Repeat_-28"><line x1="848.26" y1="246.53" x2="968.94" y2="246.53" style="fill:none; stroke:#0978ff; stroke-miterlimit:10;"/></g><g id="_Grid_Repeat_-29"><line x1="969.44" y1="246.53" x2="1090.12" y2="246.53" style="fill:none; stroke:#0978ff; stroke-miterlimit:10;"/></g><g id="_Grid_Repeat_-30"><line x1="1090.62" y1="246.53" x2="1211.3" y2="246.53" style="fill:none; stroke:#0978ff; stroke-miterlimit:10;"/></g><g id="_Grid_Repeat_-31"><line x1="1211.8" y1="246.53" x2="1332.48" y2="246.53" style="fill:none; stroke:#0978ff; stroke-miterlimit:10;"/></g><g id="_Grid_Repeat_-32"><polyline points="1332.98 246.53 1453.66 246.53 1453.66 367.21" style="fill:none; stroke:#0978ff; stroke-miterlimit:10;"/></g><g id="_Grid_Repeat_-33"><line x1="1574.84" y1="246.53" x2="1574.84" y2="367.21" style="fill:none; stroke:#0978ff; stroke-miterlimit:10;"/></g><g id="_Grid_Repeat_-34"><line x1="1575.34" y1="246.53" x2="1696.02" y2="246.53" style="fill:none; stroke:#0978ff; stroke-miterlimit:10;"/></g><g id="_Grid_Repeat_-35"><line x1="484.22" y1="367.71" x2="484.22" y2="488.39" style="fill:none; stroke:#0978ff; stroke-miterlimit:10;"/></g><g id="_Grid_Repeat_-36"><polyline points="484.72 367.71 605.4 367.71 605.4 488.39" style="fill:none; stroke:#0978ff; stroke-miterlimit:10;"/></g><g id="_Grid_Repeat_-37"><line x1="1453.66" y1="367.71" x2="1453.66" y2="488.39" style="fill:none; stroke:#0978ff; stroke-miterlimit:10;"/></g><g id="_Grid_Repeat_-38"><polyline points="1454.16 367.71 1574.84 367.71 1574.84 488.39" style="fill:none; stroke:#0978ff; stroke-miterlimit:10;"/></g><g id="_Grid_Repeat_-39"><line x1="1575.34" y1="367.71" x2="1696.02" y2="367.71" style="fill:none; stroke:#0978ff; stroke-miterlimit:10;"/></g><g id="_Grid_Repeat_-40"><line x1="484.22" y1="488.89" x2="484.22" y2="609.57" style="fill:none; stroke:#0978ff; stroke-miterlimit:10;"/></g><g id="_Grid_Repeat_-41"><polyline points="484.72 488.89 605.4 488.89 605.4 609.57" style="fill:none; stroke:#0978ff; stroke-miterlimit:10;"/></g><g id="_Grid_Repeat_-42"><line x1="1453.66" y1="488.89" x2="1453.66" y2="609.57" style="fill:none; stroke:#0978ff; stroke-miterlimit:10;"/></g><g id="_Grid_Repeat_-43"><polyline points="1454.16 488.89 1574.84 488.89 1574.84 609.57" style="fill:none; stroke:#0978ff; stroke-miterlimit:10;"/></g><g id="_Grid_Repeat_-44"><line x1="1575.34" y1="488.89" x2="1696.02" y2="488.89" style="fill:none; stroke:#0978ff; stroke-miterlimit:10;"/></g><g id="_Grid_Repeat_-45"><line y1="610.07" x2="120.68" y2="610.07" style="fill:none; stroke:#0978ff; stroke-miterlimit:10;"/></g><g id="_Grid_Repeat_-46"><line x1="121.18" y1="610.07" x2="241.86" y2="610.07" style="fill:none; stroke:#0978ff; stroke-miterlimit:10;"/></g><g id="_Grid_Repeat_-47"><line x1="242.36" y1="610.07" x2="363.04" y2="610.07" style="fill:none; stroke:#0978ff; stroke-miterlimit:10;"/></g><g id="_Grid_Repeat_-48"><line x1="363.54" y1="610.07" x2="484.22" y2="610.07" style="fill:none; stroke:#0978ff; stroke-miterlimit:10;"/></g><g id="_Grid_Repeat_-49"><polyline points="484.72 610.07 605.4 610.07 605.4 730.75" style="fill:none; stroke:#0978ff; stroke-miterlimit:10;"/></g><g id="_Grid_Repeat_-50"><line x1="1453.66" y1="610.07" x2="1453.66" y2="730.75" style="fill:none; stroke:#0978ff; stroke-miterlimit:10;"/></g><g id="_Grid_Repeat_-51"><polyline points="1454.16 610.07 1574.84 610.07 1574.84 730.75" style="fill:none; stroke:#0978ff; stroke-miterlimit:10;"/></g><g id="_Grid_Repeat_-52"><line x1="1575.34" y1="610.07" x2="1696.02" y2="610.07" style="fill:none; stroke:#0978ff; stroke-miterlimit:10;"/></g><g id="_Grid_Repeat_-53"><polyline points="0 731.25 120.68 731.25 120.68 851.93" style="fill:none; stroke:#0978ff; stroke-miterlimit:10;"/></g><g id="_Grid_Repeat_-54"><polyline points="121.18 731.25 241.86 731.25 241.86 851.93" style="fill:none; stroke:#0978ff; stroke-miterlimit:10;"/></g><g id="_Grid_Repeat_-55"><polyline points="242.36 731.25 363.04 731.25 363.04 851.93" style="fill:none; stroke:#0978ff; stroke-miterlimit:10;"/></g><g id="_Grid_Repeat_-56"><polyline points="363.54 731.25 484.22 731.25 484.22 851.93" style="fill:none; stroke:#0978ff; stroke-miterlimit:10;"/></g><g id="_Grid_Repeat_-57"><polyline points="484.72 731.25 605.4 731.25 605.4 851.93" style="fill:none; stroke:#0978ff; stroke-miterlimit:10;"/></g><g id="_Grid_Repeat_-59"><line x1="1453.66" y1="731.25" x2="1453.66" y2="851.93" style="fill:none; stroke:#0978ff; stroke-miterlimit:10;"/></g><g id="_Grid_Repeat_-60"><polyline points="1454.16 731.25 1574.84 731.25 1574.84 851.93" style="fill:none; stroke:#0978ff; stroke-miterlimit:10;"/></g><g id="_Grid_Repeat_-61"><line y1="852.43" x2="120.68" y2="852.43" style="fill:none; stroke:#0978ff; stroke-miterlimit:10;"/></g><g id="_Grid_Repeat_-62"><line x1="121.18" y1="852.43" x2="241.86" y2="852.43" style="fill:none; stroke:#0978ff; stroke-miterlimit:10;"/></g><g id="_Grid_Repeat_-63"><line x1="242.36" y1="852.43" x2="363.04" y2="852.43" style="fill:none; stroke:#0978ff; stroke-miterlimit:10;"/></g><g id="_Grid_Repeat_-64"><line x1="363.54" y1="852.43" x2="484.22" y2="852.43" style="fill:none; stroke:#0978ff; stroke-miterlimit:10;"/></g><g id="_Grid_Repeat_-65"><line x1="484.72" y1="852.43" x2="605.4" y2="852.43" style="fill:none; stroke:#0978ff; stroke-miterlimit:10;"/></g><g id="_Grid_Repeat_-66"><polyline points="605.9 852.43 726.58 852.43 726.58 973.11" style="fill:none; stroke:#0978ff; stroke-miterlimit:10;"/></g><g id="_Grid_Repeat_-67"><polyline points="727.08 852.43 847.76 852.43 847.76 973.11" style="fill:none; stroke:#0978ff; stroke-miterlimit:10;"/></g><g id="_Grid_Repeat_-68"><polyline points="848.26 852.43 968.94 852.43 968.94 973.11" style="fill:none; stroke:#0978ff; stroke-miterlimit:10;"/></g><g id="_Grid_Repeat_-69"><polyline points="969.44 852.43 1090.12 852.43 1090.12 973.11" style="fill:none; stroke:#0978ff; stroke-miterlimit:10;"/></g><g id="_Grid_Repeat_-70"><polyline points="1090.62 852.43 1211.3 852.43 1211.3 973.11" style="fill:none; stroke:#0978ff; stroke-miterlimit:10;"/></g><g id="_Grid_Repeat_-71"><polyline points="1211.8 852.43 1332.48 852.43 1332.48 973.11" style="fill:none; stroke:#0978ff; stroke-miterlimit:10;"/></g><g id="_Grid_Repeat_-72"><polyline points="1332.98 852.43 1453.66 852.43 1453.66 973.11" style="fill:none; stroke:#0978ff; stroke-miterlimit:10;"/></g><g id="_Grid_Repeat_-73"><polyline points="1454.16 852.43 1574.84 852.43 1574.84 973.11" style="fill:none; stroke:#0978ff; stroke-miterlimit:10;"/></g><g id="_Grid_Repeat_-75"><line y1="973.61" x2="120.68" y2="973.61" style="fill:none; stroke:#0978ff; stroke-miterlimit:10;"/></g><g id="_Grid_Repeat_-76"><line x1="121.18" y1="973.61" x2="241.86" y2="973.61" style="fill:none; stroke:#0978ff; stroke-miterlimit:10;"/></g><g id="_Grid_Repeat_-77"><line x1="242.36" y1="973.61" x2="363.04" y2="973.61" style="fill:none; stroke:#0978ff; stroke-miterlimit:10;"/></g><g id="_Grid_Repeat_-78"><line x1="363.54" y1="973.61" x2="484.22" y2="973.61" style="fill:none; stroke:#0978ff; stroke-miterlimit:10;"/></g><g id="_Grid_Repeat_-79"><line x1="484.72" y1="973.61" x2="605.4" y2="973.61" style="fill:none; stroke:#0978ff; stroke-miterlimit:10;"/></g><g id="_Grid_Repeat_-80"><line x1="605.9" y1="973.61" x2="726.58" y2="973.61" style="fill:none; stroke:#0978ff; stroke-miterlimit:10;"/></g><g id="_Grid_Repeat_-81"><line x1="727.08" y1="973.61" x2="847.76" y2="973.61" style="fill:none; stroke:#0978ff; stroke-miterlimit:10;"/></g><g id="_Grid_Repeat_-82"><line x1="848.26" y1="973.61" x2="968.94" y2="973.61" style="fill:none; stroke:#0978ff; stroke-miterlimit:10;"/></g><g id="_Grid_Repeat_-83"><line x1="969.44" y1="973.61" x2="1090.12" y2="973.61" style="fill:none; stroke:#0978ff; stroke-miterlimit:10;"/></g><g id="_Grid_Repeat_-84"><line x1="1090.62" y1="973.61" x2="1211.3" y2="973.61" style="fill:none; stroke:#0978ff; stroke-miterlimit:10;"/></g><g id="_Grid_Repeat_-85"><line x1="1211.8" y1="973.61" x2="1332.48" y2="973.61" style="fill:none; stroke:#0978ff; stroke-miterlimit:10;"/></g><g id="_Grid_Repeat_-86"><line x1="1332.98" y1="973.61" x2="1453.66" y2="973.61" style="fill:none; stroke:#0978ff; stroke-miterlimit:10;"/></g><g id="_Grid_Repeat_-87"><line x1="1454.16" y1="973.61" x2="1574.84" y2="973.61" style="fill:none; stroke:#0978ff; stroke-miterlimit:10;"/></g><g id="_Grid_Repeat_-88"><line x1="1575.34" y1="973.61" x2="1696.02" y2="973.61" style="fill:none; stroke:#0978ff; stroke-miterlimit:10;"/></g><rect x="19.61" y="2.89" width="7.42" height="109.68" style="stroke-width:0px;"/><path d="m80.01,36.56c-5.56,0-10.71,1.42-15.45,4.25-4.74,2.83-8.34,6.82-10.81,11.97l-1.54-14.37h-5.72v74.15h7.11v-38.31c0-9.37,2.26-16.92,6.8-22.63,4.53-5.72,11.02-8.57,19.46-8.57,6.69,0,12.02,1.85,15.99,5.56,3.96,3.71,5.95,10.45,5.95,20.24v43.72h7.11v-45.11c0-9.27-2.19-16.73-6.57-22.4-4.38-5.66-11.82-8.5-22.32-8.5Z" style="stroke-width:0px;"/><path d="m158.79,36.56c-5.56,0-10.71,1.42-15.45,4.25-4.74,2.83-8.34,6.82-10.81,11.97l-1.54-14.37h-5.72v74.15h7.11v-38.31c0-9.37,2.26-16.92,6.8-22.63,4.53-5.72,11.02-8.57,19.46-8.57,6.69,0,12.02,1.85,15.99,5.56,3.96,3.71,5.95,10.45,5.95,20.24v43.72h7.11v-45.11c0-9.27-2.19-16.73-6.57-22.4-4.38-5.66-11.82-8.5-22.32-8.5Z" style="stroke-width:0px;"/><path d="m256.24,41.66c-5.51-3.4-11.82-5.1-18.92-5.1s-13.29,1.7-18.85,5.1c-5.56,3.4-9.94,8.01-13.13,13.83-3.19,5.82-4.79,12.49-4.79,20s1.6,14.06,4.79,19.93c3.19,5.87,7.57,10.5,13.13,13.9,5.56,3.4,11.84,5.1,18.85,5.1s13.41-1.7,18.92-5.1c5.51-3.4,9.86-8.03,13.05-13.9,3.19-5.87,4.79-12.51,4.79-19.93s-1.6-14.19-4.79-20c-3.19-5.82-7.54-10.43-13.05-13.83Zm6.8,50.59c-2.52,4.89-6,8.73-10.43,11.51-4.43,2.78-9.53,4.17-15.29,4.17s-10.87-1.39-15.29-4.17c-4.43-2.78-7.9-6.62-10.43-11.51-2.52-4.89-3.78-10.48-3.78-16.76s1.26-12,3.78-16.84c2.52-4.84,6-8.65,10.43-11.43,4.43-2.78,9.53-4.17,15.29-4.17s10.86,1.39,15.29,4.17c4.43,2.78,7.9,6.59,10.43,11.43,2.52,4.84,3.78,10.45,3.78,16.84s-1.26,11.87-3.78,16.76Z" style="stroke-width:0px;"/><path d="m318.98,92.33c-.82,2.06-1.62,4.07-2.39,6.03-.77,1.96-1.57,4.27-2.39,6.95-.83-2.68-1.62-5.02-2.39-7.03-.77-2.01-1.57-3.99-2.39-5.95l-22.09-53.91h-7.57l30.74,74.15h7.26l30.74-74.15h-7.42l-22.09,53.91Z" style="stroke-width:0px;"/><path d="m401.97,39.27c-4.27-1.8-9.09-2.7-14.44-2.7-5.77,0-10.87.98-15.29,2.93-4.43,1.96-7.85,4.71-10.27,8.26-2.42,3.55-3.63,7.75-3.63,12.59h7.11c0-5.46,1.93-9.71,5.79-12.74,3.86-3.04,9.24-4.56,16.14-4.56,3.91,0,7.52.62,10.81,1.85,3.29,1.24,5.92,3.43,7.88,6.57,1.96,3.14,2.93,7.49,2.93,13.05v2.78l-25.49,2.01c-8.65.72-15.45,3.14-20.39,7.26-4.94,4.12-7.42,9.58-7.42,16.38,0,6.28,2.19,11.43,6.57,15.45,4.38,4.02,10.53,6.02,18.46,6.02,6.38,0,12.05-1.37,16.99-4.09,4.94-2.73,8.7-6.62,11.28-11.66l1.39,13.9h5.72v-49.12c0-6.38-1.29-11.56-3.86-15.53-2.58-3.96-6-6.85-10.27-8.65Zm7.03,37.92c0,9.06-2.37,16.48-7.11,22.24-4.74,5.77-11.48,8.65-20.24,8.65-5.56,0-10.09-1.29-13.59-3.86-3.5-2.57-5.25-6.38-5.25-11.43,0-4.53,1.67-8.44,5.02-11.74,3.35-3.29,8.78-5.25,16.3-5.87l24.87-2.01v4.02Z" style="stroke-width:0px;"/><polygon points="449.52 14.93 442.41 14.93 442.41 38.42 427.43 38.42 427.43 44.59 442.41 44.59 442.41 112.56 449.52 112.56 449.52 44.59 464.5 44.59 464.5 38.42 449.52 38.42 449.52 14.93" style="stroke-width:0px;"/><path d="m523.8,40.89c-4.89-2.88-10.58-4.33-17.07-4.33-6.9,0-12.95,1.65-18.15,4.94-5.2,3.3-9.27,7.88-12.2,13.75-2.94,5.87-4.4,12.67-4.4,20.39s1.49,14.5,4.48,20.31c2.99,5.82,7.16,10.35,12.51,13.59,5.35,3.24,11.59,4.87,18.69,4.87,8.34,0,15.16-1.96,20.47-5.87,5.3-3.91,9.04-9.68,11.2-17.3h-7.26c-1.44,5.46-4.22,9.6-8.34,12.44-4.12,2.83-9.48,4.25-16.07,4.25-8.96,0-15.96-2.99-21.01-8.96-4.8-5.68-7.31-13.46-7.55-23.33h60.22v-4.94c0-6.8-1.37-12.74-4.09-17.84-2.73-5.1-6.54-9.09-11.43-11.97Zm-44.52,28.89c.42-4.42,1.51-8.41,3.27-11.97,2.32-4.69,5.56-8.32,9.73-10.89,4.17-2.57,8.98-3.86,14.44-3.86,7.62,0,13.75,2.45,18.38,7.34,4.63,4.89,6.95,11.35,6.95,19.39h-52.78Z" style="stroke-width:0px;"/><polygon points="672.84 53.4 609.04 53.4 609.04 2.89 601.63 2.89 601.63 112.56 601.75 178.57 567.57 144.39 562.47 149.49 605.35 192.37 648.23 149.49 643.13 144.39 608.95 178.57 609.04 112.56 609.04 60.2 672.84 60.2 672.84 112.56 680.26 112.56 680.26 2.89 672.84 2.89 672.84 53.4" style="stroke-width:0px;"/><path d="m750.1,40.89c-4.89-2.88-10.58-4.33-17.07-4.33-6.9,0-12.95,1.65-18.15,4.94-5.2,3.3-9.27,7.88-12.2,13.75-2.94,5.87-4.4,12.67-4.4,20.39s1.49,14.5,4.48,20.31c2.99,5.82,7.16,10.35,12.51,13.59,5.35,3.24,11.59,4.87,18.69,4.87,8.34,0,15.16-1.96,20.47-5.87,5.3-3.91,9.04-9.68,11.2-17.3h-7.26c-1.44,5.46-4.22,9.6-8.34,12.44-4.12,2.83-9.48,4.25-16.07,4.25-8.96,0-15.96-2.99-21.01-8.96-4.8-5.68-7.31-13.46-7.55-23.33h60.22v-4.94c0-6.8-1.37-12.74-4.09-17.84-2.73-5.1-6.54-9.09-11.43-11.97Zm-44.52,28.89c.42-4.42,1.51-8.41,3.27-11.97,2.32-4.69,5.56-8.32,9.73-10.89,4.17-2.57,8.98-3.86,14.44-3.86,7.62,0,13.75,2.45,18.38,7.34,4.63,4.89,6.95,11.35,6.95,19.39h-52.78Z" style="stroke-width:0px;"/><path d="m813.47,36.56c-5.67,0-10.53,1.47-14.6,4.4-3.4,2.45-5.72,5.58-7,9.36l-.65-11.91h-6.64v74.15h7.11v-45.11c0-7,2.06-12.74,6.18-17.22,4.12-4.48,9.63-6.72,16.53-6.72h5.56v-6.18c-1.24-.31-2.34-.51-3.32-.62-.98-.1-2.04-.15-3.17-.15Z" style="stroke-width:0px;"/><path d="m892.46,70.7c0-6.8-1.37-12.74-4.09-17.84-2.73-5.1-6.54-9.09-11.43-11.97-4.89-2.88-10.58-4.33-17.07-4.33-6.9,0-12.95,1.65-18.15,4.94-5.2,3.3-9.27,7.88-12.2,13.75-2.94,5.87-4.4,12.67-4.4,20.39s1.49,14.5,4.48,20.31c2.99,5.82,7.16,10.35,12.51,13.59,5.35,3.24,11.59,4.87,18.69,4.87,8.34,0,15.16-1.96,20.47-5.87,5.3-3.91,9.04-9.68,11.2-17.3h-7.26c-1.44,5.46-4.22,9.6-8.34,12.44-4.12,2.83-9.48,4.25-16.07,4.25-8.96,0-15.96-2.99-21.01-8.96-4.8-5.68-7.31-13.46-7.55-23.33h60.22v-4.94Zm-60.04-.93c.42-4.42,1.51-8.41,3.27-11.97,2.32-4.69,5.56-8.32,9.73-10.89,4.17-2.57,8.98-3.86,14.44-3.86,7.62,0,13.75,2.45,18.38,7.34,4.63,4.89,6.95,11.35,6.95,19.39h-52.78Z" style="stroke-width:0px;"/><g id="Event_title"><g style="isolation:isolate;"><path d="m66.75,411.23h-7.28v-107.69h7.28l41.26,98.89,41.1-98.89h7.43v107.69h-7.28v-59c0-4.45.02-8.37.08-11.75.05-3.39.1-6.42.15-9.1.05-2.68.13-5.05.23-7.13.1-2.07.2-4.02.3-5.84l-38.37,92.82h-7.28l-38.37-92.37c.2,1.52.38,5.23.53,11.15.15,5.92.23,13.32.23,22.22v59Z" style="fill:#0978ff; stroke-width:0px;"/><path d="m202.04,413.05c-7.79,0-13.83-1.97-18.12-5.92-4.3-3.94-6.45-9-6.45-15.17,0-6.67,2.43-12.03,7.28-16.08,4.85-4.04,11.53-6.42,20.02-7.13l25.03-1.97v-2.73c0-5.46-.96-9.73-2.88-12.82-1.92-3.08-4.5-5.23-7.74-6.45-3.24-1.21-6.78-1.82-10.62-1.82-6.78,0-12.06,1.49-15.85,4.47-3.79,2.98-5.69,7.16-5.69,12.51h-6.98c0-4.75,1.19-8.87,3.56-12.36,2.38-3.49,5.74-6.19,10.09-8.12,4.35-1.92,9.35-2.88,15.02-2.88,5.26,0,9.99.89,14.18,2.65,4.2,1.77,7.56,4.6,10.09,8.49,2.53,3.89,3.79,8.97,3.79,15.24v48.23h-5.61l-1.37-13.65c-2.53,4.96-6.22,8.77-11.07,11.45s-10.42,4.02-16.68,4.02Zm.91-6.22c8.59,0,15.22-2.83,19.87-8.49,4.65-5.66,6.98-12.94,6.98-21.84v-3.94l-24.42,1.97c-7.38.61-12.72,2.53-16,5.76-3.29,3.24-4.93,7.08-4.93,11.53,0,4.96,1.72,8.7,5.16,11.22,3.44,2.53,7.89,3.79,13.35,3.79Z" style="fill:#0978ff; stroke-width:0px;"/><path d="m293.35,337.37v6.07h-5.46c-6.78,0-12.19,2.2-16.23,6.6-4.05,4.4-6.07,10.04-6.07,16.91v44.29h-6.98v-72.8h6.52l.76,13.95h-.76c1.01-4.75,3.51-8.57,7.51-11.45,3.99-2.88,8.77-4.32,14.33-4.32,1.11,0,2.15.05,3.11.15.96.1,2.05.3,3.26.61Z" style="fill:#0978ff; stroke-width:0px;"/><path d="m299.11,375.13c0-7.68,1.44-14.41,4.32-20.17s6.9-10.26,12.06-13.5c5.16-3.23,11.22-4.85,18.2-4.85,7.79,0,14.43,2.12,19.95,6.37,5.51,4.25,9.07,9.81,10.69,16.68h-7.13c-1.52-5.36-4.47-9.5-8.87-12.44-4.4-2.93-9.28-4.4-14.64-4.4s-10.14,1.32-14.33,3.94c-4.2,2.63-7.48,6.35-9.86,11.15-2.38,4.8-3.56,10.49-3.56,17.06s1.11,11.78,3.34,16.53c2.22,4.75,5.36,8.47,9.4,11.15,4.04,2.68,8.75,4.02,14.11,4.02,5.86,0,11.05-1.52,15.55-4.55,4.5-3.03,7.56-7.03,9.18-11.98h7.13c-1.32,4.55-3.49,8.55-6.52,11.98-3.03,3.44-6.73,6.12-11.07,8.04-4.35,1.92-9.1,2.88-14.26,2.88-6.67,0-12.54-1.59-17.59-4.78-5.06-3.18-9-7.61-11.83-13.27-2.83-5.66-4.25-12.29-4.25-19.87Z" style="fill:#0978ff; stroke-width:0px;"/><path d="m388.14,411.08h-6.98v-109.36h6.98v50.81c2.33-4.75,5.74-8.59,10.24-11.53,4.5-2.93,9.98-4.4,16.46-4.4,9.81,0,16.86,2.78,21.16,8.34,4.3,5.56,6.45,12.89,6.45,21.99v44.29h-6.98v-42.92c0-6.47-.89-11.53-2.65-15.17-1.77-3.64-4.25-6.24-7.43-7.81-3.19-1.57-6.85-2.35-11-2.35-5.76,0-10.59,1.31-14.49,3.94-3.89,2.63-6.83,6.12-8.8,10.46-1.97,4.35-2.96,9.1-2.96,14.26v39.44Z" style="fill:#0978ff; stroke-width:0px;"/><path d="m65.84,476.4l28.52-38.37h8.64l-31.55,41.71-.61-.61c4.04-2.63,7.61-4.42,10.69-5.38,3.08-.96,6.34-1.44,9.78-1.44,7.48,0,14.03,1.67,19.64,5,5.61,3.34,9.96,7.84,13.04,13.5,3.08,5.66,4.63,11.98,4.63,18.96s-1.67,13.63-5.01,19.34c-3.34,5.71-7.84,10.21-13.5,13.5-5.66,3.29-11.98,4.93-18.96,4.93s-13.32-1.67-19.04-5.01c-5.71-3.34-10.26-7.86-13.65-13.57-3.39-5.71-5.08-12.11-5.08-19.19,0-4.15.38-7.94,1.14-11.38.76-3.44,2.05-6.92,3.87-10.47,1.82-3.54,4.3-7.38,7.43-11.53Zm-5.16,33.37c0,5.97,1.29,11.28,3.87,15.93,2.58,4.65,6.17,8.32,10.77,11,4.6,2.68,9.88,4.02,15.85,4.02s11.07-1.34,15.62-4.02c4.55-2.68,8.12-6.34,10.69-11,2.58-4.65,3.87-9.96,3.87-15.93s-1.29-11.25-3.87-15.85c-2.58-4.6-6.14-8.21-10.69-10.84-4.55-2.63-9.76-3.94-15.62-3.94s-11.25,1.32-15.85,3.94c-4.6,2.63-8.19,6.25-10.77,10.84-2.58,4.6-3.87,9.88-3.87,15.85Z" style="fill:#0978ff; stroke-width:0px;"/><path d="m145.77,509.32v-6.37h41.86v6.37h-41.86Z" style="fill:#0978ff; stroke-width:0px;"/><path d="m194.15,438.03h71.29v6.67h-71.29v-6.67Zm65.98,1.97l5.31,4.7-43.68,101.01h-7.58l45.96-105.72Z" style="fill:#0978ff; stroke-width:0px;"/><path d="m269.69,472.91h36.4v6.07h-36.4v-6.07Zm21.69,72.8h-6.98v-95.86h6.98v95.86Z" style="fill:#0978ff; stroke-width:0px;"/><path d="m327.32,545.57h-6.98v-109.36h6.98v50.81c2.33-4.75,5.74-8.59,10.24-11.53,4.5-2.93,9.98-4.4,16.46-4.4,9.81,0,16.86,2.78,21.16,8.34,4.3,5.56,6.45,12.89,6.45,21.99v44.29h-6.98v-42.92c0-6.47-.89-11.53-2.65-15.17-1.77-3.64-4.25-6.24-7.43-7.81-3.19-1.57-6.85-2.35-11-2.35-5.76,0-10.59,1.31-14.49,3.94-3.89,2.63-6.83,6.12-8.8,10.46-1.97,4.35-2.96,9.1-2.96,14.26v39.44Z" style="fill:#0978ff; stroke-width:0px;"/></g></g><path d="m1031.52,545.72c0,15.6.71,29.72,4.17,39.94s9.68,16.54,20.7,16.54c11.02,0,21-6.32,28.22-16.54s11.69-24.34,11.69-39.94c0-15.6-4.47-29.72-11.69-39.94s-17.2-16.54-28.22-16.54c-22.04,0-24.87,25.29-24.87,56.49Z" style="fill:none; stroke:#0878ff; stroke-miterlimit:10; stroke-width:.5px;"/><path d="m1060.34,499.52c6.73,1.36,13.05,5.48,17.69,12.34,5.78,8.55,9.44,20.49,9.44,33.85,0,13.36-3.66,25.3-9.44,33.85-4.64,6.87-10.91,11.25-17.69,12.34-5.24.84-9.29-.14-12.46-2.92-.01-.01-.03-.02-.04-.03-1.35-1.11-2.53-2.75-3.31-4.74-2.62-6.68-4.19-18.2-4.19-38.49,0-23.4,2.07-37.18,6.96-43.58.89-1.16,2.05-2.08,3.37-2.54.01,0,.03,0,.04-.01,2.85-.97,6.01-.79,9.62-.06Z" style="fill:none; stroke:#0878ff; stroke-miterlimit:10; stroke-width:1.25px;"/><path d="m1056.39,584.56s-.03,0-.04,0c-1.24,0-2.37-.7-2.97-1.79-1.73-3.16-4.21-12.05-4.21-37.05s2.48-33.89,4.21-37.05c.6-1.09,1.73-1.79,2.97-1.79.01,0,.03,0,.04,0,2.63,0,5.33,1.04,7.91,2.94s5.03,4.68,7.16,8.14c4.25,6.93,7.19,16.64,7.19,27.76s-2.94,20.83-7.19,27.76c-2.13,3.47-4.58,6.24-7.16,8.14s-5.29,2.94-7.91,2.94Z" style="fill:none; stroke:#0878ff; stroke-miterlimit:10; stroke-width:2px;"/><path d="m1108.86,546.21c0,90.67-92.29,164.18-28.23,164.18,32.03,0,66.71-18.38,93.38-48.09s45.34-70.75,45.34-116.09-18.66-86.38-45.34-116.09-61.35-48.09-93.38-48.09c-32.03,0-24.97,18.38-9.91,48.09,15.06,29.71,38.14,70.75,38.14,116.09Z" style="fill:none; stroke:#0878ff; stroke-miterlimit:10; stroke-width:.5px;"/><path d="m1093.65,399.97c12.94,2.01,26.32,7.34,39.11,15.41,12.8,8.08,25.01,18.89,35.6,31.87,21.17,25.94,35.87,60.49,35.87,98.97,0,38.49-14.71,73.05-35.89,98.99-10.6,12.98-22.81,23.8-35.62,31.87-12.79,8.07-26.18,13.39-39.12,15.4-4.6.72-8.54-1.43-9.36-3.69-.01,0,0-.05-.02-.06-9.43-21.28,39.76-76.71,39.76-142.51,0-38.93-16.25-74.33-29.42-101.81-8.94-18.64-15.49-32.85-10.39-40.69h0c.83-2.29,4.8-4.47,9.47-3.74Z" style="fill:none; stroke:#0878ff; stroke-miterlimit:10; stroke-width:1.25px;"/><path d="m1106.57,674.56c-3.55,1.44-6.97-2.29-5.23-5.7l.04-.09c15.92-31.04,37.72-73.54,37.72-122.56s-21.8-91.53-37.72-122.56h0c-1.76-3.43,1.7-7.2,5.27-5.75,9.88,4.01,19.98,10.09,29.56,17.93s18.65,17.45,26.49,28.53c15.67,22.17,26.4,50.23,26.4,81.85s-10.75,59.72-26.44,81.9c-7.85,11.09-16.93,20.7-26.52,28.54s-19.7,13.91-29.58,17.91Z" style="fill:none; stroke:#0878ff; stroke-miterlimit:10; stroke-width:2px;"/><path d="m1241.84,545.72c0,152.84-182.58,276.75-68.84,276.75,113.73,0,206.31-123.9,206.31-276.75,0-152.84-92.57-276.75-206.31-276.75-113.73,0,68.84,123.9,68.84,276.75Z" style="fill:none; stroke:#0878ff; stroke-miterlimit:10;"/><path d="m1241.84,545.72c0,76.42-45.64,145.61-77.07,195.69-31.43,50.08-48.64,81.06,8.23,81.06,56.87,0,108.44-30.98,145.8-81.06s60.5-119.27,60.5-195.69c0-76.42-23.14-145.61-60.5-195.69-37.36-50.08-88.94-81.06-145.8-81.06-56.87,0-39.66,30.98-8.23,81.06s77.07,119.27,77.07,195.69Z" style="fill:none; stroke:#0878ff; stroke-miterlimit:10; stroke-width:.5px;"/><path d="m1194.02,295.85c16.25,2.52,31.94,8.01,46.82,16.15s30.28,19.96,43.63,34.01c9.09,9.56,17.48,20.18,25.07,31.72,29.56,45.14,47.01,104.06,47.01,167.99,0,63.93-17.45,122.86-47.01,168-7.59,11.53-15.96,22.14-25.04,31.69-13.35,14.06-28.05,25.49-43.65,34.02s-30.57,13.63-46.81,16.15c-7.27,1.13-13.05-2.55-14.53-5.73-.02-.03-.04-.06-.06-.1-8.73-13.3,5.6-37.48,24.74-69.88,6.97-11.8,14.23-24.52,21.28-37.96,20.8-39.89,39.16-86.25,39.16-136.2,0-49.96-18.36-96.32-39.17-136.21-7.04-13.43-14.29-26.14-21.26-37.93-19.14-32.4-33.88-56.86-24.75-69.89.03,0,.01-.08.04-.09,1.09-3.34,7.27-6.86,14.55-5.74Z" style="fill:none; stroke:#0878ff; stroke-miterlimit:10; stroke-width:1.25px;"/><path d="m1215.04,768.7c-5.76,2.3-11.11-4.05-7.81-9.29.03-.05.06-.09.09-.14,16.89-26.84,36.9-58.64,52.7-94.52,15.79-35.88,27.36-75.85,27.36-119.03s-11.57-83.15-27.36-119.03c-15.79-35.88-35.8-67.68-52.7-94.52l-.09-.14c-3.3-5.24,2.05-11.59,7.81-9.29,12.37,4.94,24.32,12.04,35.61,21.17,11.29,9.13,21.93,20.29,31.66,33.34,33.19,44.49,51.47,104.32,51.47,168.47s-18.28,123.98-51.47,168.47c-9.74,13.05-20.37,24.21-31.66,33.34s-23.24,16.23-35.61,21.17Z" style="fill:none; stroke:#0878ff; stroke-miterlimit:10; stroke-width:2px;"/><path d="m1023.12,545.72c0,15.6-.71,29.72-4.17,39.94s-9.68,16.54-20.7,16.54c-11.02,0-21-6.32-28.22-16.54s-11.69-24.34-11.69-39.94c0-15.6,4.47-29.72,11.69-39.94s17.2-16.54,28.22-16.54c22.04,0,24.87,25.29,24.87,56.49Z" style="fill:none; stroke:#0878ff; stroke-miterlimit:10; stroke-width:.5px;"/><path d="m976.6,511.87c4.64-6.87,10.96-10.98,17.69-12.34,3.61-.73,6.75-.87,9.6.05.01,0,.02,0,.04.01,1.33.43,2.49,1.37,3.38,2.53,4.91,6.39,6.98,20.19,6.98,43.6,0,20.3-1.57,31.81-4.19,38.49-.78,1.99-1.97,3.62-3.31,4.74-.01.01-.03.02-.04.04-3.17,2.78-7.22,3.77-12.46,2.92-6.78-1.09-13.05-5.48-17.69-12.34-5.78-8.55-9.44-20.49-9.44-33.85,0-13.36,3.66-25.3,9.44-33.85Z" style="fill:none; stroke:#0878ff; stroke-miterlimit:10; stroke-width:1.25px;"/><path d="m998.25,584.56s.03,0,.04,0c1.24,0,2.37-.7,2.97-1.79,1.73-3.16,4.21-12.05,4.21-37.05,0-25-2.48-33.89-4.21-37.05-.6-1.09-1.73-1.79-2.97-1.79-.01,0-.03,0-.04,0-2.63,0-5.33,1.04-7.91,2.94s-5.03,4.68-7.16,8.14c-4.25,6.93-7.19,16.64-7.19,27.76,0,11.12,2.94,20.83,7.19,27.76,2.13,3.47,4.58,6.24,7.16,8.14s5.29,2.94,7.91,2.94Z" style="fill:none; stroke:#0878ff; stroke-miterlimit:10; stroke-width:2px;"/><path d="m945.77,546.21c0,45.34,23.07,86.38,38.14,116.09,15.06,29.71,22.12,48.09-9.91,48.09-32.03,0-66.71-18.38-93.38-48.09-26.67-29.71-45.34-70.75-45.34-116.09,0-45.34,18.66-86.38,45.34-116.09,26.67-29.71,61.35-48.09,93.38-48.09,64.06,0-28.23,73.5-28.23,164.18Z" style="fill:none; stroke:#0878ff; stroke-miterlimit:10; stroke-width:.5px;"/><path d="m886.28,447.25c10.59-12.97,22.8-23.79,35.6-31.87,12.79-8.07,26.17-13.4,39.11-15.41,4.65-.73,8.62,1.45,9.44,3.73h0c9.39,21.3-39.78,76.71-39.78,142.51,0,38.93,16.25,74.33,29.43,101.81,8.93,18.63,15.49,32.85,10.39,40.68-.02,0-.01.05-.03.06-.83,2.27-4.77,4.42-9.4,3.71-12.94-2-26.33-7.33-39.12-15.4-12.81-8.07-25.02-18.89-35.62-31.87-21.18-25.94-35.89-60.51-35.89-98.99,0-38.48,14.7-73.03,35.87-98.97Z" style="fill:none; stroke:#0878ff; stroke-miterlimit:10; stroke-width:1.25px;"/><path d="m948.07,674.56c3.55,1.44,6.97-2.29,5.23-5.7l-.04-.09c-15.92-31.04-37.72-73.54-37.72-122.56,0-49.02,21.8-91.53,37.72-122.56h0c1.76-3.43-1.7-7.2-5.27-5.75-9.88,4.01-19.98,10.09-29.56,17.93s-18.65,17.45-26.49,28.53c-15.67,22.17-26.4,50.23-26.4,81.85,0,31.64,10.75,59.72,26.44,81.9,7.85,11.09,16.93,20.7,26.52,28.54s19.7,13.91,29.58,17.91Z" style="fill:none; stroke:#0878ff; stroke-miterlimit:10; stroke-width:2px;"/><path d="m812.79,545.72c0,152.84,182.58,276.75,68.84,276.75s-206.31-123.9-206.31-276.75c0-152.84,92.57-276.75,206.31-276.75,113.73,0-68.84,123.9-68.84,276.75Z" style="fill:none; stroke:#0878ff; stroke-miterlimit:10;"/><path d="m812.79,545.72c0,76.42,45.64,145.61,77.07,195.69s48.64,81.06-8.23,81.06-108.44-30.98-145.8-81.06-60.5-119.27-60.5-195.69c0-76.42,23.14-145.61,60.5-195.69,37.36-50.08,88.94-81.06,145.8-81.06,56.87,0,39.66,30.98,8.23,81.06-31.43,50.08-77.07,119.27-77.07,195.69Z" style="fill:none; stroke:#0878ff; stroke-miterlimit:10; stroke-width:.5px;"/><path d="m860.62,295.85c7.27-1.13,13.45,2.39,14.53,5.73.03,0,.03.09.06.1,9.13,13.03-5.6,37.48-24.74,69.88-6.97,11.8-14.23,24.52-21.28,37.96-20.8,39.89-39.16,86.25-39.16,136.2,0,49.96,18.36,96.32,39.17,136.21,7.04,13.43,14.29,26.14,21.26,37.93,19.14,32.4,32.51,56,24.75,69.89-.02.03-.03.06-.04.09-1.25,3.29-7.27,6.86-14.55,5.74-16.25-2.52-31.94-8.01-46.82-16.15s-30.28-19.96-43.63-34c-9.09-9.56-17.48-20.18-25.07-31.72-29.56-45.14-47.01-104.06-47.01-167.99,0-63.93,17.45-122.86,47.02-168,7.58-11.53,15.96-22.14,25.04-31.69,13.35-14.06,28.05-25.49,43.65-34.03,14.88-8.14,30.57-13.63,46.82-16.15Z" style="fill:none; stroke:#0878ff; stroke-miterlimit:10; stroke-width:1.25px;"/><path d="m839.6,768.7c5.76,2.3,11.11-4.05,7.81-9.29-.03-.05-.06-.09-.09-.14-16.89-26.84-36.9-58.64-52.7-94.52s-27.36-75.85-27.36-119.03c0-43.18,11.57-83.15,27.36-119.03,15.79-35.88,35.8-67.68,52.7-94.52l.09-.14c3.3-5.24-2.05-11.59-7.81-9.29-12.37,4.94-24.32,12.04-35.61,21.17-11.29,9.13-21.93,20.29-31.66,33.34-33.19,44.49-51.47,104.32-51.47,168.47,0,64.15,18.28,123.98,51.47,168.47,9.74,13.05,20.37,24.21,31.66,33.34s23.24,16.23,35.61,21.17Z" style="fill:none; stroke:#0878ff; stroke-miterlimit:10; stroke-width:2px;"/><path d="m12.83,710.39h-4.46v-66h4.46l25.28,60.61,25.19-60.61h4.55v66h-4.46v-36.16c0-2.73.01-5.13.05-7.2.03-2.08.06-3.93.09-5.58.03-1.64.08-3.1.14-4.37.06-1.27.12-2.46.19-3.58l-23.52,56.89h-4.46l-23.52-56.61c.12.93.23,3.21.33,6.83.09,3.63.14,8.17.14,13.62v36.16Z" style="stroke-width:0px;"/><path d="m79.76,688.08c0-4.52.96-8.54,2.88-12.04,1.92-3.5,4.55-6.27,7.9-8.32,3.35-2.04,7.13-3.07,11.34-3.07s8.07,1.02,11.39,3.07c3.31,2.04,5.93,4.82,7.85,8.32,1.92,3.5,2.88,7.51,2.88,12.04s-.96,8.46-2.88,11.99c-1.92,3.53-4.54,6.32-7.85,8.37-3.32,2.04-7.11,3.07-11.39,3.07s-7.99-1.02-11.34-3.07c-3.35-2.04-5.98-4.83-7.9-8.37-1.92-3.53-2.88-7.53-2.88-11.99Zm4.37,0c0,3.78.76,7.14,2.28,10.09,1.52,2.94,3.61,5.25,6.27,6.93,2.66,1.67,5.73,2.51,9.2,2.51s6.54-.84,9.2-2.51c2.66-1.67,4.76-3.98,6.27-6.93,1.52-2.94,2.28-6.31,2.28-10.09s-.76-7.22-2.28-10.13c-1.52-2.91-3.61-5.21-6.27-6.88-2.67-1.67-5.73-2.51-9.2-2.51s-6.54.84-9.2,2.51c-2.67,1.67-4.76,3.97-6.27,6.88-1.52,2.91-2.28,6.29-2.28,10.13Z" style="stroke-width:0px;"/><path d="m138.88,710.39h-4.28v-44.62h3.44l.93,8.65c1.49-3.1,3.66-5.5,6.51-7.2,2.85-1.7,5.95-2.56,9.3-2.56,6.32,0,10.8,1.71,13.43,5.11,2.63,3.41,3.95,7.9,3.95,13.48v27.14h-4.28v-26.31c0-5.89-1.19-9.95-3.58-12.18-2.39-2.23-5.59-3.35-9.62-3.35-5.08,0-8.99,1.72-11.71,5.16-2.73,3.44-4.09,7.98-4.09,13.62v23.05Z" style="stroke-width:0px;"/><path d="m180.34,665.77h22.31v3.72h-22.31v-3.72Zm13.29,44.62h-4.28v-58.75h4.28v58.75Z" style="stroke-width:0px;"/><path d="m223.1,711.51c-4.77,0-8.48-1.21-11.11-3.63-2.63-2.42-3.95-5.52-3.95-9.3,0-4.09,1.49-7.37,4.46-9.85,2.97-2.48,7.06-3.93,12.27-4.37l15.34-1.21v-1.67c0-3.35-.59-5.96-1.77-7.85-1.18-1.89-2.76-3.21-4.74-3.95-1.98-.74-4.15-1.12-6.51-1.12-4.15,0-7.39.92-9.71,2.74-2.32,1.83-3.49,4.39-3.49,7.67h-4.28c0-2.91.73-5.44,2.18-7.58,1.46-2.14,3.52-3.8,6.18-4.97,2.66-1.18,5.73-1.77,9.2-1.77,3.22,0,6.12.54,8.69,1.63,2.57,1.08,4.63,2.82,6.18,5.21,1.55,2.39,2.32,5.5,2.32,9.34v29.56h-3.44l-.84-8.37c-1.55,3.04-3.81,5.38-6.79,7.02-2.97,1.64-6.38,2.46-10.23,2.46Zm.56-3.81c5.27,0,9.33-1.73,12.18-5.21,2.85-3.47,4.28-7.93,4.28-13.39v-2.42l-14.97,1.21c-4.52.37-7.79,1.55-9.81,3.53-2.01,1.98-3.02,4.34-3.02,7.06,0,3.04,1.05,5.33,3.16,6.88,2.11,1.55,4.83,2.32,8.18,2.32Z" style="stroke-width:0px;"/><path d="m262.04,710.39h-4.28v-44.62h3.44l.93,8.65c1.49-3.1,3.66-5.5,6.51-7.2,2.85-1.7,5.95-2.56,9.3-2.56,6.32,0,10.8,1.71,13.43,5.11,2.63,3.41,3.95,7.9,3.95,13.48v27.14h-4.28v-26.31c0-5.89-1.19-9.95-3.58-12.18-2.39-2.23-5.59-3.35-9.62-3.35-5.08,0-8.99,1.72-11.71,5.16-2.73,3.44-4.09,7.98-4.09,13.62v23.05Z" style="stroke-width:0px;"/><path d="m321.35,711.51c-4.77,0-8.48-1.21-11.11-3.63-2.63-2.42-3.95-5.52-3.95-9.3,0-4.09,1.49-7.37,4.46-9.85,2.97-2.48,7.06-3.93,12.27-4.37l15.34-1.21v-1.67c0-3.35-.59-5.96-1.77-7.85-1.18-1.89-2.76-3.21-4.74-3.95-1.98-.74-4.15-1.12-6.51-1.12-4.15,0-7.39.92-9.71,2.74-2.32,1.83-3.49,4.39-3.49,7.67h-4.28c0-2.91.73-5.44,2.18-7.58,1.46-2.14,3.52-3.8,6.18-4.97,2.66-1.18,5.73-1.77,9.2-1.77,3.22,0,6.12.54,8.69,1.63,2.57,1.08,4.63,2.82,6.18,5.21,1.55,2.39,2.32,5.5,2.32,9.34v29.56h-3.44l-.84-8.37c-1.55,3.04-3.81,5.38-6.79,7.02-2.97,1.64-6.38,2.46-10.23,2.46Zm.56-3.81c5.27,0,9.33-1.73,12.18-5.21,2.85-3.47,4.28-7.93,4.28-13.39v-2.42l-14.97,1.21c-4.52.37-7.79,1.55-9.81,3.53-2.01,1.98-3.02,4.34-3.02,7.06,0,3.04,1.05,5.33,3.16,6.88,2.11,1.55,4.83,2.32,8.18,2.32Z" style="stroke-width:0px;"/><path d="m421.37,710.39h-42.39v-3.72l20.92-18.5c3.41-2.97,6.2-5.58,8.37-7.81,2.17-2.23,3.86-4.26,5.07-6.09,1.21-1.83,2.06-3.64,2.56-5.44.5-1.8.74-3.75.74-5.86,0-4.77-1.39-8.55-4.18-11.34-2.79-2.79-6.57-4.18-11.34-4.18s-8.89,1.67-11.99,5.02c-3.1,3.35-4.74,7.78-4.93,13.29h-4.46c.19-4.52,1.19-8.47,3.02-11.85,1.83-3.38,4.34-6,7.53-7.85,3.19-1.86,6.86-2.79,11.02-2.79,3.9,0,7.34.82,10.32,2.46,2.97,1.64,5.3,3.92,6.97,6.83,1.67,2.91,2.51,6.29,2.51,10.13,0,2.42-.29,4.69-.88,6.83-.59,2.14-1.58,4.28-2.97,6.41-1.39,2.14-3.29,4.45-5.67,6.93-2.39,2.48-5.41,5.33-9.06,8.55l-19.43,17.2-1.12-2.32h39.41v4.09Z" style="stroke-width:0px;"/><path d="m431.41,677.39c0-6.88,1.02-12.87,3.07-17.99s4.99-9.09,8.83-11.94c3.84-2.85,8.46-4.28,13.85-4.28s10.01,1.43,13.85,4.28c3.84,2.85,6.79,6.83,8.83,11.94s3.07,11.11,3.07,17.99-1.02,12.87-3.07,17.99-4.99,9.1-8.83,11.95c-3.84,2.85-8.46,4.28-13.85,4.28s-10.01-1.42-13.85-4.28c-3.84-2.85-6.79-6.83-8.83-11.95s-3.07-11.11-3.07-17.99Zm4.37,0c0,5.95.84,11.19,2.51,15.71,1.67,4.52,4.1,8.04,7.3,10.55,3.19,2.51,7.05,3.76,11.57,3.76s8.38-1.25,11.57-3.76c3.19-2.51,5.62-6.03,7.3-10.55,1.67-4.52,2.51-9.76,2.51-15.71s-.84-11.26-2.51-15.76c-1.67-4.49-4.11-7.99-7.3-10.5-3.19-2.51-7.05-3.77-11.57-3.77s-8.38,1.25-11.57,3.77c-3.19,2.51-5.62,6.01-7.3,10.5-1.67,4.49-2.51,9.75-2.51,15.76Z" style="stroke-width:0px;"/><path d="m534.87,710.39h-42.39v-3.72l20.92-18.5c3.41-2.97,6.2-5.58,8.37-7.81,2.17-2.23,3.86-4.26,5.07-6.09,1.21-1.83,2.06-3.64,2.56-5.44.5-1.8.74-3.75.74-5.86,0-4.77-1.39-8.55-4.18-11.34-2.79-2.79-6.57-4.18-11.34-4.18s-8.89,1.67-11.99,5.02c-3.1,3.35-4.74,7.78-4.93,13.29h-4.46c.19-4.52,1.19-8.47,3.02-11.85,1.83-3.38,4.34-6,7.53-7.85,3.19-1.86,6.86-2.79,11.02-2.79,3.9,0,7.34.82,10.32,2.46,2.97,1.64,5.3,3.92,6.97,6.83,1.67,2.91,2.51,6.29,2.51,10.13,0,2.42-.29,4.69-.88,6.83-.59,2.14-1.58,4.28-2.97,6.41-1.39,2.14-3.29,4.45-5.67,6.93-2.39,2.48-5.41,5.33-9.06,8.55l-19.43,17.2-1.12-2.32h39.41v4.09Z" style="stroke-width:0px;"/><path d="m540.26,691.71l33.37-47.32h4.93l-33.28,47.32h-5.02Zm47.32,4.09h-47.32v-4.09h47.32v4.09Zm-7.72-51.41v66h-4.46v-66h4.46Z" style="stroke-width:0px;"/><line x1="1640.27" y1="633.08" x2="1640.27" y2="949.94" style="fill:none; stroke:#0878ff; stroke-miterlimit:10;"/><polygon points="1636.2 635.86 1640.27 620.68 1644.34 635.86 1636.2 635.86" style="fill:#0878ff; stroke-width:0px;"/><polygon points="1636.2 947.17 1640.27 962.35 1644.34 947.17 1636.2 947.17" style="fill:#0878ff; stroke-width:0px;"/><line x1="1654.11" y1="651.12" x2="1626.43" y2="651.12" style="fill:none; stroke:#0878ff; stroke-miterlimit:10;"/><line x1="1613.05" y1="666.85" x2="1667.48" y2="666.85" style="fill:none; stroke:#0878ff; stroke-miterlimit:10;"/><line x1="1654.11" y1="682.58" x2="1626.43" y2="682.58" style="fill:none; stroke:#0878ff; stroke-miterlimit:10;"/><line x1="1613.05" y1="698.32" x2="1667.48" y2="698.32" style="fill:none; stroke:#0878ff; stroke-miterlimit:10;"/><line x1="1654.11" y1="714.05" x2="1626.43" y2="714.05" style="fill:none; stroke:#0878ff; stroke-miterlimit:10;"/><line x1="1613.05" y1="729.78" x2="1667.48" y2="729.78" style="fill:none; stroke:#0878ff; stroke-miterlimit:10;"/><line x1="1654.11" y1="745.51" x2="1626.43" y2="745.51" style="fill:none; stroke:#0878ff; stroke-miterlimit:10;"/><line x1="1613.05" y1="761.24" x2="1667.48" y2="761.24" style="fill:none; stroke:#0878ff; stroke-miterlimit:10;"/><line x1="1654.11" y1="776.98" x2="1626.43" y2="776.98" style="fill:none; stroke:#0878ff; stroke-miterlimit:10;"/><line x1="1613.05" y1="792.71" x2="1667.48" y2="792.71" style="fill:none; stroke:#0878ff; stroke-miterlimit:10;"/><line x1="1654.11" y1="808.44" x2="1626.43" y2="808.44" style="fill:none; stroke:#0878ff; stroke-miterlimit:10;"/><line x1="1613.05" y1="824.17" x2="1667.48" y2="824.17" style="fill:none; stroke:#0878ff; stroke-miterlimit:10;"/><line x1="1654.11" y1="839.9" x2="1626.43" y2="839.9" style="fill:none; stroke:#0878ff; stroke-miterlimit:10;"/><line x1="1613.05" y1="855.64" x2="1667.48" y2="855.64" style="fill:none; stroke:#0878ff; stroke-miterlimit:10;"/><line x1="1654.11" y1="871.37" x2="1626.43" y2="871.37" style="fill:none; stroke:#0878ff; stroke-miterlimit:10;"/><line x1="1613.05" y1="887.1" x2="1667.48" y2="887.1" style="fill:none; stroke:#0878ff; stroke-miterlimit:10;"/><line x1="1654.11" y1="902.83" x2="1626.43" y2="902.83" style="fill:none; stroke:#0878ff; stroke-miterlimit:10;"/><line x1="1613.05" y1="918.56" x2="1667.48" y2="918.56" style="fill:none; stroke:#0878ff; stroke-miterlimit:10;"/><line x1="1654.11" y1="934.3" x2="1626.43" y2="934.3" style="fill:none; stroke:#0878ff; stroke-miterlimit:10;"/><path d="m3.05,961.64c24.46-61.99,45.76-91.94,63.93-90.17,29.86,2.92,38.01,90.17,63.93,90.17s37.58-90.17,63.93-90.17,37.58,90.17,63.93,90.17,37.58-90.17,63.93-90.17,37.58,90.17,63.93,90.17,37.58-90.17,63.93-90.17,37.58,90.17,63.93,90.17,37.58-90.17,63.93-90.17,34.08,87.25,63.93,90.17c18.2,1.78,39.51-28.28,63.93-90.17" style="fill:none; stroke:#0878ff; stroke-miterlimit:10;"/><polygon points="709.08 875.54 710.87 859.93 701.51 872.55 709.08 875.54" style="fill:#0878ff; stroke-width:0px;"/><circle cx="99.55" cy="915.83" r="11.3" style="fill:#fff; stroke:#0878ff; stroke-miterlimit:10;"/><circle cx="463.24" cy="878.91" r="11.3" style="fill:#fff; stroke:#0878ff; stroke-miterlimit:10;"/><path d="m1518.89,367.71c0-152.64,56.06-282.75,134.66-332.51" style="fill:none; stroke:#0878ff; stroke-miterlimit:10;"/><polygon points="1653.38 40.23 1664.25 28.42 1648.93 33.2 1653.38 40.23" style="fill:#0878ff; stroke-width:0px;"/><path d="m1524.61,367.71c0-133.61,53.57-247.66,128.94-292.44" style="fill:none; stroke:#0878ff; stroke-miterlimit:10;"/><polygon points="1653.23 80.29 1664.44 68.8 1648.99 73.14 1653.23 80.29" style="fill:#0878ff; stroke-width:0px;"/><path d="m1530.16,367.71c0-118.12,51.15-219.1,123.39-259.75" style="fill:none; stroke:#0878ff; stroke-miterlimit:10;"/><polygon points="1653.12 112.97 1664.59 101.74 1649.04 105.73 1653.12 112.97" style="fill:#0878ff; stroke-width:0px;"/><path d="m1536.07,367.71c0-96.58,48.58-179.3,117.48-213.58" style="fill:none; stroke:#0878ff; stroke-miterlimit:10;"/><polygon points="1652.86 159.11 1664.89 148.48 1649.16 151.67 1652.86 159.11" style="fill:#0878ff; stroke-width:0px;"/><path d="m1379.31,35.2c78.6,49.76,134.66,179.87,134.66,332.51" style="fill:none; stroke:#0878ff; stroke-miterlimit:10;"/><polygon points="1379.48 40.23 1368.6 28.42 1383.92 33.2 1379.48 40.23" style="fill:#0878ff; stroke-width:0px;"/><path d="m1379.31,75.27c75.38,44.78,128.94,158.83,128.94,292.44" style="fill:none; stroke:#0878ff; stroke-miterlimit:10;"/><polygon points="1379.62 80.29 1368.41 68.8 1383.86 73.14 1379.62 80.29" style="fill:#0878ff; stroke-width:0px;"/><path d="m1379.31,107.96c72.24,40.65,123.39,141.63,123.39,259.75" style="fill:none; stroke:#0878ff; stroke-miterlimit:10;"/><polygon points="1379.74 112.97 1368.26 101.74 1383.81 105.73 1379.74 112.97" style="fill:#0878ff; stroke-width:0px;"/><path d="m1379.31,154.12c68.89,34.28,117.48,117,117.48,213.58" style="fill:none; stroke:#0878ff; stroke-miterlimit:10;"/><polygon points="1379.99 159.11 1367.96 148.48 1383.69 151.67 1379.99 159.11" style="fill:#0878ff; stroke-width:0px;"/><line x1="363.54" y1="246.53" x2="363.54" y2="125.35" style="fill:none; stroke:#0978ff; stroke-miterlimit:10;"/><line x1="242.36" y1="246.53" x2="242.36" y2="125.35" style="fill:none; stroke:#0978ff; stroke-miterlimit:10;"/><line x1="121.18" y1="246.53" x2="121.18" y2="125.35" style="fill:none; stroke:#0978ff; stroke-miterlimit:10;"/></svg>