<?xml version="1.0" encoding="UTF-8"?><svg id="Layer_1" xmlns="http://www.w3.org/2000/svg" viewBox="0 0 361.19 543.87"><g id="_Grid_Repeat_"><polyline points="0 46.31 44.99 46.31 44.99 91.29" style="fill:none; stroke:#0978ff; stroke-miterlimit:10; stroke-width:.5px;"/></g><g id="_Grid_Repeat_-2"><polyline points="45.17 46.31 90.16 46.31 90.16 91.29" style="fill:none; stroke:#0978ff; stroke-miterlimit:10; stroke-width:.5px;"/></g><g id="_Grid_Repeat_-3"><polyline points="90.35 46.31 135.33 46.31 135.33 91.29" style="fill:none; stroke:#0978ff; stroke-miterlimit:10; stroke-width:.5px;"/></g><g id="_Grid_Repeat_-4"><polyline points="135.52 46.31 180.5 46.31 180.5 91.29" style="fill:none; stroke:#0978ff; stroke-miterlimit:10; stroke-width:.5px;"/></g><g id="_Grid_Repeat_-5"><polyline points="180.69 46.31 225.68 46.31 225.68 91.29" style="fill:none; stroke:#0978ff; stroke-miterlimit:10; stroke-width:.5px;"/></g><g id="_Grid_Repeat_-6"><polyline points="225.86 46.31 270.85 46.31 270.85 91.29" style="fill:none; stroke:#0978ff; stroke-miterlimit:10; stroke-width:.5px;"/></g><g id="_Grid_Repeat_-7"><polyline points="271.04 46.31 316.02 46.31 316.02 91.29" style="fill:none; stroke:#0978ff; stroke-miterlimit:10; stroke-width:.5px;"/></g><g id="_Grid_Repeat_-8"><line x1="316.21" y1="46.31" x2="361.19" y2="46.31" style="fill:none; stroke:#0978ff; stroke-miterlimit:10; stroke-width:.5px;"/></g><g id="_Grid_Repeat_-9"><line y1="91.48" x2="44.99" y2="91.48" style="fill:none; stroke:#0978ff; stroke-miterlimit:10; stroke-width:.5px;"/></g><g id="_Grid_Repeat_-10"><line x1="45.17" y1="91.48" x2="90.16" y2="91.48" style="fill:none; stroke:#0978ff; stroke-miterlimit:10; stroke-width:.5px;"/></g><g id="_Grid_Repeat_-11"><line x1="90.35" y1="91.48" x2="135.33" y2="91.48" style="fill:none; stroke:#0978ff; stroke-miterlimit:10; stroke-width:.5px;"/></g><g id="_Grid_Repeat_-12"><polyline points="135.52 91.48 180.5 91.48 180.5 136.47" style="fill:none; stroke:#0978ff; stroke-miterlimit:10; stroke-width:.5px;"/></g><g id="_Grid_Repeat_-13"><polyline points="180.69 91.48 225.68 91.48 225.68 136.47" style="fill:none; stroke:#0978ff; stroke-miterlimit:10; stroke-width:.5px;"/></g><g id="_Grid_Repeat_-14"><polyline points="225.86 91.48 270.85 91.48 270.85 136.47" style="fill:none; stroke:#0978ff; stroke-miterlimit:10; stroke-width:.5px;"/></g><g id="_Grid_Repeat_-15"><polyline points="271.04 91.48 316.02 91.48 316.02 136.47" style="fill:none; stroke:#0978ff; stroke-miterlimit:10; stroke-width:.5px;"/></g><g id="_Grid_Repeat_-16"><line x1="316.21" y1="91.48" x2="361.19" y2="91.48" style="fill:none; stroke:#0978ff; stroke-miterlimit:10; stroke-width:.5px;"/></g><g id="_Grid_Repeat_-17"><line x1="180.5" y1="136.65" x2="180.5" y2="181.64" style="fill:none; stroke:#0978ff; stroke-miterlimit:10; stroke-width:.5px;"/></g><g id="_Grid_Repeat_-18"><polyline points="180.69 136.65 225.68 136.65 225.68 181.64" style="fill:none; stroke:#0978ff; stroke-miterlimit:10; stroke-width:.5px;"/></g><g id="_Grid_Repeat_-19"><line x1="225.86" y1="136.65" x2="270.85" y2="136.65" style="fill:none; stroke:#0978ff; stroke-miterlimit:10; stroke-width:.5px;"/></g><g id="_Grid_Repeat_-20"><line x1="271.04" y1="136.65" x2="316.02" y2="136.65" style="fill:none; stroke:#0978ff; stroke-miterlimit:10; stroke-width:.5px;"/></g><g id="_Grid_Repeat_-21"><line x1="316.21" y1="136.65" x2="361.19" y2="136.65" style="fill:none; stroke:#0978ff; stroke-miterlimit:10; stroke-width:.5px;"/></g><g id="_Grid_Repeat_-22"><line x1="180.5" y1="181.83" x2="180.5" y2="226.81" style="fill:none; stroke:#0978ff; stroke-miterlimit:10; stroke-width:.5px;"/></g><g id="_Grid_Repeat_-23"><polyline points="180.69 181.83 225.68 181.83 225.68 226.81" style="fill:none; stroke:#0978ff; stroke-miterlimit:10; stroke-width:.5px;"/></g><g id="_Grid_Repeat_-25"><line y1="227" x2="44.99" y2="227" style="fill:none; stroke:#0978ff; stroke-miterlimit:10; stroke-width:.5px;"/></g><g id="_Grid_Repeat_-26"><line x1="45.17" y1="227" x2="90.16" y2="227" style="fill:none; stroke:#0978ff; stroke-miterlimit:10; stroke-width:.5px;"/></g><g id="_Grid_Repeat_-27"><line x1="90.35" y1="227" x2="135.33" y2="227" style="fill:none; stroke:#0978ff; stroke-miterlimit:10; stroke-width:.5px;"/></g><g id="_Grid_Repeat_-28"><line x1="135.52" y1="227" x2="180.5" y2="227" style="fill:none; stroke:#0978ff; stroke-miterlimit:10; stroke-width:.5px;"/></g><g id="_Grid_Repeat_-29"><polyline points="180.69 227 225.68 227 225.68 271.98" style="fill:none; stroke:#0978ff; stroke-miterlimit:10; stroke-width:.5px;"/></g><g id="_Grid_Repeat_-30"><polyline points="225.86 227 270.85 227 270.85 271.98" style="fill:none; stroke:#0978ff; stroke-miterlimit:10; stroke-width:.5px;"/></g><g id="_Grid_Repeat_-31"><line x1="316.02" y1="227" x2="316.02" y2="271.98" style="fill:none; stroke:#0978ff; stroke-miterlimit:10; stroke-width:.5px;"/></g><g id="_Grid_Repeat_-32"><line x1="316.21" y1="227" x2="361.19" y2="227" style="fill:none; stroke:#0978ff; stroke-miterlimit:10; stroke-width:.5px;"/></g><g id="_Grid_Repeat_-33"><polyline points="0 272.17 44.99 272.17 44.99 317.16" style="fill:none; stroke:#0978ff; stroke-miterlimit:10; stroke-width:.5px;"/></g><g id="_Grid_Repeat_-34"><line x1="45.17" y1="272.17" x2="90.16" y2="272.17" style="fill:none; stroke:#0978ff; stroke-miterlimit:10; stroke-width:.5px;"/></g><g id="_Grid_Repeat_-35"><line x1="90.35" y1="272.17" x2="135.33" y2="272.17" style="fill:none; stroke:#0978ff; stroke-miterlimit:10; stroke-width:.5px;"/></g><g id="_Grid_Repeat_-36"><line x1="135.52" y1="272.17" x2="180.5" y2="272.17" style="fill:none; stroke:#0978ff; stroke-miterlimit:10; stroke-width:.5px;"/></g><g id="_Grid_Repeat_-37"><line x1="180.69" y1="272.17" x2="225.68" y2="272.17" style="fill:none; stroke:#0978ff; stroke-miterlimit:10; stroke-width:.5px;"/></g><g id="_Grid_Repeat_-38"><line x1="225.86" y1="272.17" x2="270.85" y2="272.17" style="fill:none; stroke:#0978ff; stroke-miterlimit:10; stroke-width:.5px;"/></g><g id="_Grid_Repeat_-39"><polyline points="271.04 272.17 316.02 272.17 316.02 317.16" style="fill:none; stroke:#0978ff; stroke-miterlimit:10; stroke-width:.5px;"/></g><g id="_Grid_Repeat_-40"><line x1="316.21" y1="272.17" x2="361.19" y2="272.17" style="fill:none; stroke:#0978ff; stroke-miterlimit:10; stroke-width:.5px;"/></g><g id="_Grid_Repeat_-41"><polyline points="0 317.34 44.99 317.34 44.99 362.33" style="fill:none; stroke:#0978ff; stroke-miterlimit:10; stroke-width:.5px;"/></g><g id="_Grid_Repeat_-42"><line x1="316.02" y1="317.34" x2="316.02" y2="362.33" style="fill:none; stroke:#0978ff; stroke-miterlimit:10; stroke-width:.5px;"/></g><g id="_Grid_Repeat_-43"><line x1="316.21" y1="317.34" x2="361.19" y2="317.34" style="fill:none; stroke:#0978ff; stroke-miterlimit:10; stroke-width:.5px;"/></g><g id="_Grid_Repeat_-44"><line y1="362.52" x2="44.99" y2="362.52" style="fill:none; stroke:#0978ff; stroke-miterlimit:10; stroke-width:.5px;"/></g><g id="_Grid_Repeat_-45"><line x1="316.21" y1="362.52" x2="361.19" y2="362.52" style="fill:none; stroke:#0978ff; stroke-miterlimit:10; stroke-width:.5px;"/></g><line x1="44.99" y1="362.52" x2="44.99" y2="407.5" style="fill:none; stroke:#0978ff; stroke-miterlimit:10; stroke-width:.5px;"/><line x1="316.02" y1="362.52" x2="316.02" y2="407.5" style="fill:none; stroke:#0978ff; stroke-miterlimit:10; stroke-width:.5px;"/><g id="_Grid_Repeat_-46"><line y1="407.69" x2="44.99" y2="407.69" style="fill:none; stroke:#0978ff; stroke-miterlimit:10; stroke-width:.5px;"/></g><g id="_Grid_Repeat_-47"><line x1="316.21" y1="407.69" x2="361.19" y2="407.69" style="fill:none; stroke:#0978ff; stroke-miterlimit:10; stroke-width:.5px;"/></g><line x1="44.99" y1="407.47" x2="44.99" y2="452.46" style="fill:none; stroke:#0978ff; stroke-miterlimit:10; stroke-width:.5px;"/><line x1="316.02" y1="407.47" x2="316.02" y2="452.46" style="fill:none; stroke:#0978ff; stroke-miterlimit:10; stroke-width:.5px;"/><g id="_Grid_Repeat_-48"><line y1="452.64" x2="44.99" y2="452.64" style="fill:none; stroke:#0978ff; stroke-miterlimit:10; stroke-width:.5px;"/></g><line x1="44.99" y1="452.46" x2="44.99" y2="497.44" style="fill:none; stroke:#0978ff; stroke-miterlimit:10; stroke-width:.5px;"/><line x1="316.02" y1="452.46" x2="316.02" y2="497.44" style="fill:none; stroke:#0978ff; stroke-miterlimit:10; stroke-width:.5px;"/><g id="_Grid_Repeat_-49"><line y1="497.63" x2="44.99" y2="497.63" style="fill:none; stroke:#0978ff; stroke-miterlimit:10; stroke-width:.5px;"/></g><g id="_Grid_Repeat_-50"><line x1="45.17" y1="497.63" x2="90.16" y2="497.63" style="fill:none; stroke:#0978ff; stroke-miterlimit:10; stroke-width:.5px;"/></g><g id="_Grid_Repeat_-51"><line x1="90.35" y1="497.63" x2="135.33" y2="497.63" style="fill:none; stroke:#0978ff; stroke-miterlimit:10; stroke-width:.5px;"/></g><g id="_Grid_Repeat_-52"><line x1="135.52" y1="497.63" x2="180.5" y2="497.63" style="fill:none; stroke:#0978ff; stroke-miterlimit:10; stroke-width:.5px;"/></g><g id="_Grid_Repeat_-53"><line x1="180.69" y1="497.63" x2="225.68" y2="497.63" style="fill:none; stroke:#0978ff; stroke-miterlimit:10; stroke-width:.5px;"/></g><g id="_Grid_Repeat_-54"><line x1="225.86" y1="497.63" x2="270.85" y2="497.63" style="fill:none; stroke:#0978ff; stroke-miterlimit:10; stroke-width:.5px;"/></g><g id="_Grid_Repeat_-55"><line x1="271.04" y1="497.63" x2="316.02" y2="497.63" style="fill:none; stroke:#0978ff; stroke-miterlimit:10; stroke-width:.5px;"/></g><line x1="270.85" y1="497.44" x2="270.85" y2="542.43" style="fill:none; stroke:#0978ff; stroke-miterlimit:10; stroke-width:.5px;"/><line x1="316.02" y1="497.44" x2="316.02" y2="542.43" style="fill:none; stroke:#0978ff; stroke-miterlimit:10; stroke-width:.5px;"/><g id="_Grid_Repeat_-56"><line y1="542.62" x2="44.99" y2="542.62" style="fill:none; stroke:#0978ff; stroke-miterlimit:10; stroke-width:.5px;"/></g><g id="_Grid_Repeat_-57"><line x1="45.17" y1="542.62" x2="90.16" y2="542.62" style="fill:none; stroke:#0978ff; stroke-miterlimit:10; stroke-width:.5px;"/></g><g id="_Grid_Repeat_-58"><line x1="90.35" y1="542.62" x2="135.33" y2="542.62" style="fill:none; stroke:#0978ff; stroke-miterlimit:10; stroke-width:.5px;"/></g><g id="_Grid_Repeat_-59"><line x1="135.52" y1="542.62" x2="180.5" y2="542.62" style="fill:none; stroke:#0978ff; stroke-miterlimit:10; stroke-width:.5px;"/></g><g id="_Grid_Repeat_-60"><line x1="180.69" y1="542.62" x2="225.68" y2="542.62" style="fill:none; stroke:#0978ff; stroke-miterlimit:10; stroke-width:.5px;"/></g><g id="_Grid_Repeat_-61"><line x1="225.86" y1="542.62" x2="270.85" y2="542.62" style="fill:none; stroke:#0978ff; stroke-miterlimit:10; stroke-width:.5px;"/></g><g id="_Grid_Repeat_-62"><line x1="271.04" y1="542.62" x2="316.02" y2="542.62" style="fill:none; stroke:#0978ff; stroke-miterlimit:10; stroke-width:.5px;"/></g><g id="_Grid_Repeat_-63"><line x1="316.21" y1="542.62" x2="361.19" y2="542.62" style="fill:none; stroke:#0978ff; stroke-miterlimit:10; stroke-width:.5px;"/></g><rect x="7.4" y="0" width="2.76" height="40.89" style="stroke-width:0px;"/><path d="m29.92,12.55c-2.07,0-3.99.53-5.76,1.58-1.77,1.06-3.11,2.54-4.03,4.46l-.58-5.36h-2.13v27.64h2.65v-14.28c0-3.49.84-6.31,2.53-8.44,1.69-2.13,4.11-3.2,7.26-3.2,2.49,0,4.48.69,5.96,2.07,1.48,1.38,2.22,3.9,2.22,7.54v16.3h2.65v-16.81c0-3.46-.82-6.24-2.45-8.35-1.63-2.11-4.41-3.17-8.32-3.17Z" style="stroke-width:0px;"/><path d="m59.29,12.55c-2.07,0-3.99.53-5.76,1.58-1.77,1.06-3.11,2.54-4.03,4.46l-.58-5.36h-2.13v27.64h2.65v-14.28c0-3.49.84-6.31,2.53-8.44,1.69-2.13,4.11-3.2,7.26-3.2,2.49,0,4.48.69,5.96,2.07,1.48,1.38,2.22,3.9,2.22,7.54v16.3h2.65v-16.81c0-3.46-.82-6.24-2.45-8.35-1.63-2.11-4.41-3.17-8.32-3.17Z" style="stroke-width:0px;"/><path d="m95.61,14.45c-2.05-1.27-4.41-1.9-7.05-1.9s-4.95.63-7.03,1.9c-2.07,1.27-3.71,2.99-4.89,5.15-1.19,2.17-1.79,4.66-1.79,7.46s.59,5.24,1.79,7.43c1.19,2.19,2.82,3.92,4.89,5.18,2.07,1.27,4.41,1.9,7.03,1.9s5-.63,7.05-1.9c2.05-1.27,3.68-2.99,4.87-5.18,1.19-2.19,1.79-4.66,1.79-7.43s-.6-5.29-1.79-7.46c-1.19-2.17-2.81-3.89-4.87-5.15Zm2.53,18.86c-.94,1.82-2.24,3.25-3.89,4.29-1.65,1.04-3.55,1.55-5.7,1.55s-4.05-.52-5.7-1.55c-1.65-1.04-2.95-2.47-3.89-4.29-.94-1.82-1.41-3.91-1.41-6.25s.47-4.47,1.41-6.28c.94-1.8,2.24-3.22,3.89-4.26,1.65-1.04,3.55-1.55,5.7-1.55s4.05.52,5.7,1.55c1.65,1.04,2.95,2.46,3.89,4.26.94,1.8,1.41,3.9,1.41,6.28s-.47,4.42-1.41,6.25Z" style="stroke-width:0px;"/><path d="m119,33.34c-.31.77-.6,1.52-.89,2.25-.29.73-.59,1.59-.89,2.59-.31-1-.6-1.87-.89-2.62s-.59-1.49-.89-2.22l-8.23-20.1h-2.82l11.46,27.64h2.71l11.46-27.64h-2.76l-8.23,20.1Z" style="stroke-width:0px;"/><path d="m149.94,13.56c-1.59-.67-3.39-1.01-5.38-1.01-2.15,0-4.05.37-5.7,1.09-1.65.73-2.93,1.76-3.83,3.08-.9,1.32-1.35,2.89-1.35,4.69h2.65c0-2.03.72-3.62,2.16-4.75,1.44-1.13,3.44-1.7,6.02-1.7,1.46,0,2.8.23,4.03.69,1.23.46,2.21,1.28,2.94,2.45.73,1.17,1.09,2.79,1.09,4.87v1.04l-9.5.75c-3.22.27-5.76,1.17-7.6,2.71-1.84,1.54-2.76,3.57-2.76,6.1,0,2.34.82,4.26,2.45,5.76,1.63,1.5,3.92,2.25,6.88,2.25,2.38,0,4.49-.51,6.33-1.53s3.24-2.47,4.2-4.35l.52,5.18h2.13v-18.31c0-2.38-.48-4.31-1.44-5.79-.96-1.48-2.24-2.55-3.83-3.22Zm2.62,14.14c0,3.38-.88,6.14-2.65,8.29-1.77,2.15-4.28,3.22-7.54,3.22-2.07,0-3.76-.48-5.07-1.44-1.31-.96-1.96-2.38-1.96-4.26,0-1.69.62-3.15,1.87-4.38,1.25-1.23,3.27-1.96,6.07-2.19l9.27-.75v1.5Z" style="stroke-width:0px;"/><polygon points="167.66 4.49 165.01 4.49 165.01 13.24 159.43 13.24 159.43 15.55 165.01 15.55 165.01 40.89 167.66 40.89 167.66 15.55 173.25 15.55 173.25 13.24 167.66 13.24 167.66 4.49" style="stroke-width:0px;"/><path d="m195.35,14.17c-1.82-1.07-3.94-1.61-6.36-1.61-2.57,0-4.83.61-6.77,1.84-1.94,1.23-3.46,2.94-4.55,5.12-1.09,2.19-1.64,4.72-1.64,7.6s.56,5.4,1.67,7.57c1.11,2.17,2.67,3.86,4.66,5.07,2,1.21,4.32,1.81,6.97,1.81,3.11,0,5.65-.73,7.63-2.19,1.98-1.46,3.37-3.61,4.17-6.45h-2.71c-.54,2.04-1.57,3.58-3.11,4.64-1.54,1.06-3.53,1.58-5.99,1.58-3.34,0-5.95-1.11-7.83-3.34-1.79-2.12-2.72-5.02-2.81-8.7h22.45v-1.84c0-2.53-.51-4.75-1.53-6.65-1.02-1.9-2.44-3.39-4.26-4.46Zm-16.59,10.77c.16-1.65.56-3.14,1.22-4.46.86-1.75,2.07-3.1,3.63-4.06,1.56-.96,3.35-1.44,5.38-1.44,2.84,0,5.12.91,6.85,2.74,1.73,1.82,2.59,4.23,2.59,7.23h-19.68Z" style="stroke-width:0px;"/><polygon points="250.91 18.83 227.13 18.83 227.13 0 224.36 0 224.36 40.89 224.41 65.49 211.67 52.75 209.77 54.65 225.75 70.64 241.74 54.65 239.84 52.75 227.09 65.49 227.13 40.89 227.13 21.36 250.91 21.36 250.91 40.89 253.67 40.89 253.67 0 250.91 0 250.91 18.83" style="stroke-width:0px;"/><path d="m279.71,14.17c-1.82-1.07-3.94-1.61-6.36-1.61-2.57,0-4.83.61-6.77,1.84-1.94,1.23-3.46,2.94-4.55,5.12-1.09,2.19-1.64,4.72-1.64,7.6s.56,5.4,1.67,7.57c1.11,2.17,2.67,3.86,4.66,5.07,2,1.21,4.32,1.81,6.97,1.81,3.11,0,5.65-.73,7.63-2.19,1.98-1.46,3.37-3.61,4.17-6.45h-2.71c-.54,2.04-1.57,3.58-3.11,4.64-1.54,1.06-3.53,1.58-5.99,1.58-3.34,0-5.95-1.11-7.83-3.34-1.79-2.12-2.72-5.02-2.81-8.7h22.45v-1.84c0-2.53-.51-4.75-1.53-6.65-1.02-1.9-2.44-3.39-4.26-4.46Zm-16.59,10.77c.16-1.65.56-3.14,1.22-4.46.86-1.75,2.07-3.1,3.63-4.06,1.56-.96,3.35-1.44,5.38-1.44,2.84,0,5.12.91,6.85,2.74,1.73,1.82,2.59,4.23,2.59,7.23h-19.68Z" style="stroke-width:0px;"/><path d="m303.33,12.55c-2.11,0-3.93.55-5.44,1.64-1.27.91-2.13,2.08-2.61,3.49l-.24-4.44h-2.48v27.64h2.65v-16.81c0-2.61.77-4.75,2.3-6.42,1.54-1.67,3.59-2.5,6.16-2.5h2.07v-2.3c-.46-.12-.87-.19-1.24-.23-.37-.04-.76-.06-1.18-.06Z" style="stroke-width:0px;"/><path d="m332.78,25.28c0-2.53-.51-4.75-1.53-6.65-1.02-1.9-2.44-3.39-4.26-4.46-1.82-1.07-3.94-1.61-6.36-1.61-2.57,0-4.83.61-6.77,1.84-1.94,1.23-3.46,2.94-4.55,5.12-1.09,2.19-1.64,4.72-1.64,7.6s.56,5.4,1.67,7.57c1.11,2.17,2.67,3.86,4.66,5.07,2,1.21,4.32,1.81,6.97,1.81,3.11,0,5.65-.73,7.63-2.19,1.98-1.46,3.37-3.61,4.17-6.45h-2.71c-.54,2.04-1.57,3.58-3.11,4.64-1.54,1.06-3.53,1.58-5.99,1.58-3.34,0-5.95-1.11-7.83-3.34-1.79-2.12-2.72-5.02-2.81-8.7h22.45v-1.84Zm-22.38-.35c.16-1.65.56-3.14,1.22-4.46.86-1.75,2.07-3.1,3.63-4.06,1.56-.96,3.35-1.44,5.38-1.44,2.84,0,5.12.91,6.85,2.74,1.73,1.82,2.59,4.23,2.59,7.23h-19.68Z" style="stroke-width:0px;"/><g id="Event_title"><g style="isolation:isolate;"><path d="m9.8,153.46h-2.71v-40.14h2.71l15.38,36.86,15.32-36.86h2.77v40.14h-2.71v-21.99c0-1.66,0-3.12.03-4.38.02-1.26.04-2.39.06-3.39.02-1,.05-1.88.08-2.66.04-.77.08-1.5.11-2.18l-14.3,34.6h-2.71l-14.3-34.43c.08.57.14,1.95.2,4.16.06,2.21.08,4.97.08,8.28v21.99Z" style="fill:#0978ff; stroke-width:0px;"/><path d="m60.24,154.14c-2.9,0-5.15-.74-6.76-2.21-1.6-1.47-2.4-3.35-2.4-5.65,0-2.49.9-4.49,2.71-5.99,1.81-1.51,4.3-2.39,7.46-2.66l9.33-.74v-1.02c0-2.04-.36-3.63-1.07-4.78-.72-1.15-1.68-1.95-2.88-2.4-1.21-.45-2.53-.68-3.96-.68-2.53,0-4.5.56-5.91,1.67-1.41,1.11-2.12,2.67-2.12,4.67h-2.6c0-1.77.44-3.31,1.33-4.61.89-1.3,2.14-2.31,3.76-3.02,1.62-.72,3.49-1.07,5.6-1.07,1.96,0,3.72.33,5.29.99,1.56.66,2.82,1.72,3.76,3.17.94,1.45,1.41,3.35,1.41,5.68v17.98h-2.09l-.51-5.09c-.94,1.85-2.32,3.27-4.13,4.27-1.81,1-3.88,1.5-6.22,1.5Zm.34-2.32c3.2,0,5.67-1.05,7.41-3.17,1.73-2.11,2.6-4.82,2.6-8.14v-1.47l-9.1.74c-2.75.23-4.74.94-5.96,2.15-1.23,1.21-1.84,2.64-1.84,4.3,0,1.85.64,3.24,1.92,4.18,1.28.94,2.94,1.41,4.98,1.41Z" style="fill:#0978ff; stroke-width:0px;"/><path d="m94.27,125.93v2.26h-2.04c-2.53,0-4.54.82-6.05,2.46-1.51,1.64-2.26,3.74-2.26,6.3v16.51h-2.6v-27.14h2.43l.28,5.2h-.28c.38-1.77,1.31-3.19,2.8-4.27,1.49-1.07,3.27-1.61,5.34-1.61.41,0,.8.02,1.16.06.36.04.76.11,1.22.23Z" style="fill:#0978ff; stroke-width:0px;"/><path d="m96.42,140.01c0-2.86.54-5.37,1.61-7.52s2.57-3.83,4.5-5.03c1.92-1.21,4.18-1.81,6.78-1.81,2.9,0,5.38.79,7.44,2.37,2.05,1.58,3.38,3.66,3.99,6.22h-2.66c-.57-2-1.67-3.54-3.31-4.64-1.64-1.09-3.46-1.64-5.46-1.64s-3.78.49-5.34,1.47c-1.56.98-2.79,2.37-3.67,4.16-.89,1.79-1.33,3.91-1.33,6.36s.41,4.39,1.24,6.16c.83,1.77,2,3.16,3.51,4.16,1.51,1,3.26,1.5,5.26,1.5,2.19,0,4.12-.57,5.8-1.7,1.68-1.13,2.82-2.62,3.42-4.47h2.66c-.49,1.7-1.3,3.19-2.43,4.47-1.13,1.28-2.51,2.28-4.13,3-1.62.71-3.39,1.07-5.31,1.07-2.49,0-4.67-.59-6.56-1.78-1.89-1.19-3.36-2.84-4.41-4.95-1.06-2.11-1.58-4.58-1.58-7.41Z" style="fill:#0978ff; stroke-width:0px;"/><path d="m129.61,153.41h-2.6v-40.77h2.6v18.94c.87-1.77,2.14-3.2,3.82-4.3,1.68-1.09,3.72-1.64,6.13-1.64,3.66,0,6.28,1.04,7.89,3.11,1.6,2.07,2.4,4.81,2.4,8.2v16.51h-2.6v-16c0-2.41-.33-4.3-.99-5.65-.66-1.36-1.58-2.33-2.77-2.91-1.19-.58-2.55-.88-4.1-.88-2.15,0-3.95.49-5.4,1.47-1.45.98-2.54,2.28-3.28,3.9-.74,1.62-1.1,3.39-1.1,5.31v14.7Z" style="fill:#0978ff; stroke-width:0px;"/><path d="m9.46,177.76l10.63-14.3h3.22l-11.76,15.55-.23-.23c1.51-.98,2.84-1.65,3.99-2.01,1.15-.36,2.36-.54,3.65-.54,2.79,0,5.23.62,7.32,1.87,2.09,1.24,3.71,2.92,4.86,5.03,1.15,2.11,1.72,4.47,1.72,7.07s-.62,5.08-1.87,7.21c-1.24,2.13-2.92,3.81-5.03,5.03-2.11,1.22-4.47,1.84-7.07,1.84s-4.97-.62-7.1-1.87c-2.13-1.24-3.83-2.93-5.09-5.06-1.26-2.13-1.89-4.51-1.89-7.15,0-1.54.14-2.96.42-4.24.28-1.28.76-2.58,1.44-3.9.68-1.32,1.6-2.75,2.77-4.3Zm-1.92,12.44c0,2.22.48,4.2,1.44,5.94s2.3,3.1,4.01,4.1c1.71,1,3.68,1.5,5.91,1.5s4.13-.5,5.82-1.5c1.7-1,3.02-2.37,3.99-4.1s1.44-3.71,1.44-5.94-.48-4.19-1.44-5.91c-.96-1.71-2.29-3.06-3.99-4.04-1.7-.98-3.64-1.47-5.82-1.47s-4.19.49-5.91,1.47c-1.72.98-3.05,2.33-4.01,4.04-.96,1.72-1.44,3.68-1.44,5.91Z" style="fill:#0978ff; stroke-width:0px;"/><path d="m39.26,190.03v-2.38h15.6v2.38h-15.6Z" style="fill:#0978ff; stroke-width:0px;"/><path d="m57.3,163.45h26.57v2.49h-26.57v-2.49Zm24.6.74l1.98,1.75-16.28,37.66h-2.83l17.13-39.41Z" style="fill:#0978ff; stroke-width:0px;"/><path d="m85.45,176.46h13.57v2.26h-13.57v-2.26Zm8.09,27.14h-2.6v-35.73h2.6v35.73Z" style="fill:#0978ff; stroke-width:0px;"/><path d="m106.94,203.54h-2.6v-40.77h2.6v18.94c.87-1.77,2.14-3.2,3.82-4.3,1.68-1.09,3.72-1.64,6.13-1.64,3.66,0,6.28,1.04,7.89,3.11,1.6,2.07,2.4,4.81,2.4,8.2v16.51h-2.6v-16c0-2.41-.33-4.3-.99-5.65-.66-1.36-1.58-2.33-2.77-2.91-1.19-.58-2.55-.88-4.1-.88-2.15,0-3.95.49-5.4,1.47-1.45.98-2.54,2.28-3.28,3.9-.74,1.62-1.1,3.39-1.1,5.31v14.7Z" style="fill:#0978ff; stroke-width:0px;"/></g></g><path d="m190.98,405.63c-3.72,0-6.2-1.98-7.58-6.05-1.33-3.94-1.51-9.53-1.51-14.48,0-10.38.7-20.52,9.09-20.52,3.89,0,7.54,2.14,10.28,6.02,2.74,3.87,4.24,9.02,4.24,14.5s-1.51,10.63-4.24,14.5c-2.74,3.88-6.4,6.02-10.28,6.02Zm0-40.86c-8.21,0-8.9,10.05-8.9,20.33,0,4.93.18,10.51,1.5,14.42,1.35,3.98,3.77,5.92,7.4,5.92,3.82,0,7.42-2.11,10.13-5.94,2.71-3.84,4.21-8.95,4.21-14.39s-1.5-10.55-4.21-14.39c-2.71-3.83-6.31-5.94-10.13-5.94Z" style="fill:#0878ff; stroke-width:0px;"/><path d="m191.16,402.16c-1.36,0-2.48-.4-3.41-1.22-.55-.45-.99-1.08-1.28-1.82-1.04-2.66-1.53-7.11-1.53-14.01,0-8.68.79-13.59,2.57-15.91.37-.48.83-.83,1.33-1,.98-.33,2.09-.34,3.62-.03h0c2.59.52,4.91,2.15,6.55,4.56,2.23,3.3,3.45,7.69,3.45,12.38s-1.23,9.08-3.45,12.37c-1.72,2.54-4.04,4.16-6.56,4.56-.45.07-.88.11-1.29.11Zm-.66-33.74c-.56,0-1.05.08-1.49.23-.43.15-.81.44-1.12.84-1.71,2.23-2.47,7.05-2.47,15.62,0,6.83.48,11.23,1.5,13.84.26.67.65,1.23,1.13,1.62,1.12.98,2.53,1.31,4.33,1.02,2.38-.38,4.6-1.93,6.24-4.36,2.18-3.22,3.37-7.52,3.37-12.11s-1.2-8.89-3.37-12.11c-1.56-2.31-3.78-3.86-6.25-4.36h0c-.71-.14-1.32-.22-1.86-.22Z" style="fill:#0878ff; stroke-width:0px;"/><path d="m190.98,399.53h-.01c-.58,0-1.12-.33-1.41-.84-.72-1.3-1.57-4.72-1.57-13.58s.85-12.28,1.57-13.58c.29-.52.82-.84,1.4-.84,1.03,0,2.09.39,3.1,1.14.98.72,1.9,1.78,2.69,3.05,1.71,2.79,2.66,6.43,2.66,10.24s-.94,7.44-2.66,10.24c-.78,1.28-1.71,2.33-2.69,3.05-1.01.74-2.08,1.14-3.09,1.14Zm0-28.1c-.32,0-.6.17-.76.45-.55,1-1.48,4.05-1.48,13.22s.92,12.21,1.48,13.22c.15.28.44.45.75.45v.38s.01-.38.01-.38c.85,0,1.76-.34,2.64-.99.9-.66,1.76-1.64,2.49-2.84,1.64-2.68,2.55-6.17,2.55-9.84s-.9-7.17-2.55-9.84c-.73-1.19-1.59-2.18-2.49-2.84-.88-.65-1.79-.99-2.64-.99Z" style="fill:#0878ff; stroke-width:0px;"/><path d="m199.75,444.76c-4.1,0-6.6-.84-7.66-2.58-2-3.27,1.08-9.28,5.35-17.6,5.24-10.22,12.43-24.23,12.43-39.29s-7.18-29.07-12.43-39.29c-.47-.91-.92-1.79-1.36-2.65-3.38-6.66-5.81-11.99-3.99-14.96,1.06-1.73,3.57-2.57,7.66-2.57,11.4,0,24.05,6.51,33.84,17.42,5.02,5.59,9,11.95,11.83,18.9,3.04,7.47,4.59,15.26,4.59,23.15s-1.54,15.67-4.59,23.15c-2.83,6.95-6.81,13.31-11.83,18.9-9.79,10.91-22.45,17.42-33.84,17.42Zm0-118.75c-4.02,0-6.47.81-7.5,2.48-1.77,2.88.65,8.17,4,14.77.44.86.89,1.74,1.36,2.65,5.25,10.24,12.45,24.27,12.45,39.38s-7.19,29.14-12.45,39.38c-4.08,7.95-7.3,14.23-5.36,17.42,1.02,1.68,3.48,2.49,7.5,2.49,11.35,0,23.94-6.49,33.7-17.36,5.01-5.58,8.98-11.92,11.8-18.85,3.04-7.45,4.57-15.22,4.57-23.08s-1.54-15.62-4.57-23.08c-2.82-6.93-6.79-13.27-11.8-18.85-9.76-10.87-22.36-17.36-33.7-17.36Z" style="fill:#0878ff; stroke-width:0px;"/><path d="m203.79,438.47c-1.39,0-2.55-.66-2.91-1.43l-.05-.02v-.13c-1.54-3.52,1.16-9.46,4.59-16.97,4.36-9.56,9.78-21.46,9.78-34.64s-5.25-25.51-10.62-36.72c-3.06-6.38-5.7-11.89-3.76-14.92.36-.94,1.91-1.75,3.67-1.48h0c4.64.72,9.56,2.66,14.24,5.61,4.7,2.96,9.17,6.97,12.93,11.58,8.4,10.29,13.03,23.06,13.03,35.94s-4.63,25.66-13.03,35.95c-3.76,4.61-8.24,8.61-12.94,11.58-4.67,2.95-9.6,4.88-14.24,5.6-.23.04-.46.05-.69.05Zm-2.51-1.68c.25.64,1.49,1.42,3.12,1.16,4.58-.71,9.44-2.62,14.06-5.53,4.66-2.94,9.09-6.91,12.83-11.48,8.34-10.21,12.93-22.87,12.93-35.65s-4.59-25.44-12.92-35.64c-3.73-4.57-8.16-8.54-12.82-11.47-4.62-2.91-9.48-4.83-14.06-5.54h0c-1.67-.26-2.93.55-3.17,1.2l-.02.05c-1.83,2.81.77,8.22,3.77,14.48,5.4,11.26,10.67,23.38,10.67,36.92s-5.44,25.23-9.82,34.84c-3.35,7.35-6,13.18-4.62,16.51l.05.02v.14Z" style="fill:#0878ff; stroke-width:0px;"/><path d="m208.56,432.2c-.51,0-1.01-.21-1.37-.61-.53-.58-.64-1.41-.28-2.11,5.76-11.22,13.62-26.55,13.62-44.19s-7.86-32.96-13.6-44.15c-.36-.71-.25-1.54.29-2.13.54-.59,1.36-.77,2.1-.47,3.63,1.47,7.36,3.74,10.79,6.54,3.62,2.96,6.87,6.46,9.65,10.39,6.29,8.9,9.62,19.21,9.62,29.82s-3.33,20.93-9.63,29.84c-2.78,3.93-6.03,7.43-9.66,10.4-3.43,2.81-7.17,5.07-10.8,6.54-.23.09-.47.14-.71.14Zm.02-93.05c-.35,0-.64.17-.82.37-.26.28-.43.76-.17,1.27,5.78,11.26,13.69,26.68,13.69,44.5s-7.91,33.24-13.69,44.5c-.28.54-.1,1.01.15,1.29.25.28.71.5,1.24.28h0c3.56-1.44,7.23-3.66,10.6-6.42,3.57-2.92,6.78-6.37,9.52-10.25,4.33-6.12,9.49-16.19,9.49-29.4s-5.16-23.27-9.48-29.38c-2.74-3.88-5.94-7.32-9.51-10.25-3.37-2.76-7.04-4.98-10.59-6.43-.15-.06-.3-.09-.43-.09Z" style="fill:#0878ff; stroke-width:0px;"/><path d="m233.15,485.39c-7.15,0-11.39-1.38-12.95-4.22-2.88-5.21,3.06-14.64,11.27-27.69,11.14-17.7,26.39-41.94,26.39-68.36s-15.25-50.67-26.39-68.36c-8.21-13.05-14.15-22.48-11.27-27.69,1.57-2.84,5.81-4.22,12.95-4.22,41.25,0,74.8,44.99,74.8,100.28s-33.56,100.28-74.8,100.28Zm0-200.18c-7,0-11.13,1.32-12.62,4.03-2.77,5.02,3.42,14.85,11.26,27.31,11.16,17.74,26.45,42.03,26.45,68.57s-15.29,50.83-26.45,68.57c-7.84,12.45-14.03,22.29-11.26,27.31,1.5,2.71,5.63,4.03,12.62,4.03,41.04,0,74.43-44.82,74.43-99.9s-33.39-99.9-74.43-99.9Z" style="fill:#0878ff; stroke-width:0px;"/><path d="m233.15,485.29c-7.11,0-11.32-1.36-12.87-4.17-2.64-4.77,2.17-13.11,9.81-25.29.48-.76.96-1.53,1.45-2.31,11.14-17.71,26.41-41.96,26.41-68.41s-15.26-50.71-26.41-68.41c-.49-.78-.98-1.55-1.45-2.31-7.64-12.18-12.45-20.52-9.81-25.29,1.55-2.81,5.76-4.17,12.87-4.17,10.07,0,19.85,2.65,29.06,7.88,8.89,5.05,16.89,12.27,23.75,21.48,14.12,18.93,21.9,44.09,21.9,70.83s-7.78,51.9-21.9,70.83c-6.86,9.2-14.85,16.43-23.75,21.48-9.21,5.23-18.99,7.88-29.06,7.88Zm0-200.18c-7.03,0-11.19,1.33-12.71,4.07-2.59,4.68,2.2,12.98,9.81,25.1.48.76.96,1.53,1.45,2.31,11.16,17.73,26.44,42,26.44,68.51s-15.28,50.79-26.44,68.51c-.49.78-.98,1.55-1.45,2.31-7.61,12.12-12.4,20.42-9.81,25.1,1.52,2.74,5.67,4.07,12.71,4.07,10.04,0,19.78-2.64,28.97-7.85,8.87-5.04,16.84-12.24,23.69-21.42,14.1-18.9,21.86-44.01,21.86-70.72s-7.76-51.82-21.86-70.72c-6.85-9.18-14.82-16.39-23.69-21.42-9.18-5.21-18.93-7.85-28.97-7.85Z" style="fill:#0878ff; stroke-width:0px;"/><path d="m239.77,475.79c-2.33,0-4.02-1.28-4.49-2.29-3.23-4.93,1.85-13.53,8.88-25.43l.06-.09c3.02-5.11,5.46-9.47,7.69-13.72,6.07-11.64,14.14-29.39,14.14-49.15s-8.07-37.52-14.14-49.15c-2.22-4.24-4.66-8.6-7.68-13.71l-.35-.58c-6.91-11.69-11.9-20.15-8.62-24.91l.02-.11h.03c.54-1.36,2.86-2.54,5.48-2.14,5.82.9,11.55,2.88,17.01,5.87,5.68,3.11,11.01,7.26,15.84,12.34,3.28,3.45,6.34,7.32,9.09,11.51,10.99,16.78,17.04,38.4,17.04,60.89s-6.05,44.11-17.04,60.89c-2.75,4.18-5.81,8.05-9.08,11.5-4.83,5.08-10.16,9.24-15.84,12.35-5.46,2.99-11.19,4.96-17.01,5.87-.35.05-.69.08-1.02.08Zm-4.14-178.75c-3.08,4.53,2.11,13.29,8.66,24.38l.35.58c3.02,5.12,5.47,9.48,7.7,13.73,6.09,11.68,14.19,29.51,14.19,49.37s-8.1,37.69-14.19,49.37c-2.23,4.26-4.68,8.62-7.7,13.74l-.06.09c-6.95,11.76-11.96,20.25-8.9,24.93.02.02.03.04.04.07.49,1.06,2.5,2.32,5.01,1.94,5.77-.89,11.44-2.85,16.85-5.81,5.64-3.09,10.94-7.21,15.73-12.26,3.26-3.43,6.3-7.27,9.03-11.43,10.94-16.7,16.96-38.24,16.96-60.63s-6.02-43.92-16.96-60.63c-2.74-4.16-5.78-8.01-9.04-11.44-4.79-5.04-10.08-9.17-15.72-12.25-5.42-2.97-11.09-4.92-16.86-5.81-2.58-.4-4.65.85-5,1.91h0s-.02.13-.02.13l-.07.02Z" style="fill:#0878ff; stroke-width:0px;"/><path d="m247.47,466.3c-.78,0-1.52-.34-2.05-.98-.75-.91-.83-2.14-.2-3.14l.03-.05c6.25-9.93,13.33-21.18,19.03-34.14,6.64-15.08,9.86-29.11,9.86-42.9s-3.23-27.82-9.86-42.9c-5.7-12.95-12.78-24.21-19.03-34.14l-.03-.05c-.63-1-.55-2.23.2-3.14.76-.91,1.97-1.22,3.08-.78,4.5,1.8,8.87,4.39,12.98,7.71,4.13,3.34,8.01,7.42,11.52,12.13,12.05,16.16,18.69,37.87,18.69,61.16s-6.64,45-18.69,61.16c-3.51,4.71-7.39,8.79-11.52,12.13-4.11,3.32-8.47,5.92-12.98,7.71-.34.13-.69.2-1.03.2Zm.75-.9l.14.35-.14-.35c4.43-1.77,8.73-4.33,12.78-7.6,4.08-3.3,7.91-7.34,11.39-11.99,11.96-16.03,18.54-37.58,18.54-60.7s-6.58-44.68-18.54-60.7c-3.47-4.66-7.3-8.69-11.39-11.99-4.05-3.27-8.35-5.83-12.78-7.6-.97-.39-1.78.03-2.22.56-.43.52-.69,1.38-.15,2.25l.03.05c6.26,9.95,13.36,21.23,19.08,34.24,6.68,15.18,9.93,29.31,9.93,43.2s-3.25,28.02-9.93,43.2c-5.72,13-12.82,24.28-19.08,34.23l-.03.05c-.55.87-.28,1.73.15,2.25.44.52,1.25.94,2.22.56Z" style="fill:#0878ff; stroke-width:0px;"/><path d="m169.95,405.63c-3.89,0-7.54-2.14-10.28-6.02-2.74-3.87-4.24-9.02-4.24-14.5s1.51-10.63,4.24-14.5c2.74-3.88,6.4-6.02,10.28-6.02,8.39,0,9.09,10.14,9.09,20.52,0,4.95-.18,10.54-1.51,14.48-1.38,4.07-3.86,6.05-7.58,6.05Zm0-40.86c-3.82,0-7.42,2.11-10.13,5.94-2.72,3.84-4.21,8.95-4.21,14.39s1.5,10.55,4.21,14.39c2.71,3.83,6.31,5.94,10.13,5.94s6.05-1.94,7.4-5.92c1.32-3.91,1.5-9.48,1.5-14.42,0-10.29-.69-20.33-8.9-20.33Z" style="fill:#0878ff; stroke-width:0px;"/><path d="m169.77,402.15c-.41,0-.83-.04-1.28-.11-2.51-.4-4.84-2.03-6.56-4.57-2.23-3.3-3.45-7.69-3.45-12.37s1.23-9.08,3.45-12.37h0c1.63-2.42,3.96-4.04,6.55-4.56,1.49-.3,2.6-.3,3.59.02.51.16.97.51,1.35,1,1.78,2.32,2.57,7.23,2.57,15.91,0,6.89-.49,11.35-1.53,14.01-.29.73-.72,1.36-1.27,1.81-.94.82-2.07,1.23-3.43,1.23Zm-7.45-29.16c-2.18,3.22-3.37,7.52-3.37,12.11s1.2,8.89,3.37,12.11c1.64,2.43,3.86,3.98,6.24,4.36,1.8.29,3.21-.04,4.31-1,.5-.42.89-.98,1.15-1.64,1.02-2.61,1.5-7,1.5-13.84,0-8.58-.76-13.4-2.48-15.63-.32-.42-.7-.7-1.11-.84-.92-.3-1.96-.3-3.37-.01-2.47.5-4.69,2.05-6.25,4.36h0Z" style="fill:#0878ff; stroke-width:0px;"/><path d="m169.97,399.53h-.01c-1.01,0-2.08-.39-3.09-1.14-.98-.72-1.91-1.78-2.69-3.05-1.71-2.79-2.66-6.43-2.66-10.24s.94-7.44,2.66-10.24c.78-1.28,1.71-2.33,2.69-3.05,1.01-.74,2.08-1.14,3.09-1.14.6,0,1.13.33,1.42.84.72,1.3,1.57,4.72,1.57,13.58s-.85,12.28-1.57,13.58c-.29.52-.82.84-1.41.84Zm0-28.1c-.86,0-1.77.34-2.65.99-.9.66-1.76,1.64-2.49,2.84-1.64,2.68-2.55,6.17-2.55,9.84s.9,7.17,2.55,9.84c.73,1.19,1.59,2.18,2.49,2.84.88.65,1.79.99,2.64.99h.01c.31,0,.59-.17.74-.45.55-1,1.48-4.05,1.48-13.22s-.93-12.21-1.48-13.22c-.15-.28-.44-.45-.75-.45Z" style="fill:#0878ff; stroke-width:0px;"/><path d="m161.18,444.76c-11.4,0-24.05-6.51-33.84-17.42-5.02-5.59-9-11.95-11.83-18.9-3.04-7.47-4.59-15.26-4.59-23.15s1.54-15.67,4.59-23.15c2.83-6.95,6.81-13.31,11.83-18.9,9.79-10.91,22.45-17.42,33.84-17.42,4.1,0,6.6.84,7.66,2.58,2,3.27-1.08,9.28-5.35,17.6-5.24,10.22-12.43,24.23-12.43,39.29s7.18,29.07,12.43,39.29c.47.91.92,1.79,1.35,2.65,3.38,6.66,5.81,11.99,3.99,14.96-1.06,1.73-3.57,2.57-7.66,2.57Zm0-118.75c-11.35,0-23.94,6.49-33.7,17.36-5.01,5.58-8.98,11.92-11.8,18.85-3.04,7.45-4.57,15.22-4.57,23.08s1.54,15.62,4.57,23.08c2.82,6.93,6.79,13.27,11.8,18.85,9.76,10.87,22.36,17.36,33.7,17.36,4.02,0,6.47-.81,7.5-2.48,1.77-2.88-.65-8.17-4-14.77-.43-.86-.89-1.74-1.35-2.65-5.25-10.24-12.45-24.27-12.45-39.38s7.19-29.14,12.45-39.38c4.08-7.95,7.3-14.23,5.36-17.42-1.02-1.68-3.48-2.49-7.5-2.49Z" style="fill:#0878ff; stroke-width:0px;"/><path d="m157.14,438.47c-.22,0-.45-.02-.69-.05-4.64-.72-9.56-2.65-14.24-5.6-4.7-2.96-9.18-6.97-12.94-11.58-8.4-10.29-13.03-23.06-13.03-35.95s4.63-25.65,13.03-35.94c3.76-4.61,8.23-8.61,12.93-11.58,4.67-2.95,9.6-4.89,14.24-5.61,1.77-.28,3.33.55,3.67,1.5,1.54,3.5-1.17,9.45-4.6,16.98-4.36,9.56-9.78,21.46-9.78,34.65s5.25,25.51,10.62,36.72c3.05,6.37,5.69,11.88,3.76,14.91l-.02.09h-.03c-.36.79-1.52,1.46-2.93,1.46Zm-27.51-88.83c-8.33,10.21-12.92,22.87-12.92,35.64s4.59,25.44,12.93,35.65c3.73,4.57,8.17,8.54,12.83,11.48,4.62,2.91,9.48,4.83,14.06,5.53,1.65.26,2.9-.54,3.14-1.19l.02-.11.05-.02c1.75-2.82-.83-8.2-3.81-14.42-5.4-11.26-10.67-23.38-10.67-36.92s5.45-25.24,9.82-34.84c3.38-7.42,6.05-13.28,4.59-16.6-.24-.67-1.5-1.47-3.16-1.21-4.58.71-9.44,2.63-14.06,5.54-4.66,2.94-9.09,6.91-12.82,11.48h0Z" style="fill:#0878ff; stroke-width:0px;"/><path d="m152.37,432.2c-.24,0-.48-.05-.71-.14h0c-3.63-1.47-7.36-3.73-10.8-6.54-3.63-2.96-6.88-6.46-9.66-10.4-6.3-8.9-9.63-19.22-9.63-29.84s3.33-20.92,9.62-29.82c2.78-3.93,6.03-7.43,9.65-10.39,3.43-2.81,7.16-5.07,10.79-6.54.74-.3,1.56-.11,2.1.47.54.59.65,1.42.29,2.13-5.74,11.19-13.6,26.52-13.6,44.15s7.86,32.96,13.6,44.15c.38.73.26,1.56-.27,2.14-.36.4-.86.61-1.37.61Zm-.43-.84c.53.21.99,0,1.24-.28.25-.28.43-.75.17-1.26-5.79-11.29-13.7-26.71-13.7-44.53s7.91-33.24,13.69-44.5c.26-.51.08-.99-.17-1.27-.26-.28-.72-.5-1.26-.28-3.56,1.45-7.22,3.67-10.59,6.43-3.57,2.92-6.77,6.37-9.51,10.25-4.32,6.12-9.48,16.18-9.48,29.38s5.16,23.28,9.49,29.4c2.74,3.88,5.95,7.33,9.52,10.25,3.38,2.76,7.04,4.98,10.6,6.42h0Z" style="fill:#0878ff; stroke-width:0px;"/><path d="m127.78,485.39c-41.25,0-74.8-44.99-74.8-100.28s33.56-100.28,74.8-100.28c7.15,0,11.39,1.38,12.95,4.22,2.88,5.21-3.06,14.64-11.27,27.69-11.14,17.7-26.39,41.94-26.39,68.36s15.25,50.67,26.39,68.36c8.21,13.05,14.15,22.48,11.27,27.69-1.57,2.84-5.81,4.22-12.95,4.22Zm0-200.18c-41.04,0-74.43,44.82-74.43,99.9s33.39,99.9,74.43,99.9c7,0,11.13-1.32,12.62-4.03,2.77-5.02-3.42-14.85-11.26-27.31-11.16-17.74-26.45-42.03-26.45-68.57s15.29-50.83,26.45-68.57c7.84-12.45,14.03-22.29,11.26-27.31-1.5-2.71-5.63-4.03-12.62-4.03Z" style="fill:#0878ff; stroke-width:0px;"/><path d="m127.78,485.29c-10.07,0-19.85-2.65-29.06-7.88-8.89-5.05-16.89-12.27-23.75-21.48-14.12-18.93-21.9-44.09-21.9-70.83s7.78-51.9,21.9-70.83c6.86-9.2,14.85-16.43,23.75-21.48,9.21-5.23,18.99-7.88,29.06-7.88,7.11,0,11.32,1.36,12.87,4.17,2.64,4.77-2.17,13.11-9.81,25.29-.48.76-.96,1.53-1.45,2.31-11.14,17.71-26.41,41.96-26.41,68.41s15.26,50.71,26.41,68.42c.49.78.98,1.55,1.45,2.31,7.64,12.18,12.45,20.52,9.81,25.29-1.55,2.81-5.76,4.17-12.87,4.17Zm0-200.18c-10.04,0-19.78,2.64-28.97,7.85-8.87,5.04-16.84,12.24-23.69,21.42-14.1,18.9-21.86,44.01-21.86,70.72s7.76,51.82,21.86,70.72c6.85,9.18,14.82,16.39,23.69,21.42,9.18,5.21,18.93,7.85,28.97,7.85,7.03,0,11.19-1.33,12.71-4.07,2.59-4.68-2.2-12.98-9.81-25.1-.48-.76-.96-1.53-1.45-2.31-11.16-17.73-26.44-42.01-26.44-68.52s15.28-50.79,26.44-68.52c.49-.78.98-1.55,1.45-2.31,7.61-12.12,12.4-20.42,9.81-25.1-1.52-2.74-5.67-4.07-12.71-4.07Z" style="fill:#0878ff; stroke-width:0px;"/><path d="m121.14,475.78c-.33,0-.66-.02-1-.08-5.82-.9-11.54-2.88-17.01-5.87-5.68-3.11-11.01-7.26-15.84-12.34-3.28-3.45-6.34-7.32-9.09-11.51-10.99-16.78-17.04-38.4-17.04-60.89s6.05-44.11,17.04-60.89c2.75-4.18,5.81-8.05,9.08-11.5,4.83-5.08,10.16-9.24,15.85-12.35,5.46-2.99,11.19-4.96,17.01-5.87l.04.23-.04-.23c2.61-.4,4.92.77,5.47,2.11h.01s.04.11.04.11c3.31,4.76-1.69,13.22-8.61,24.93l-.34.58c-3.02,5.11-5.46,9.47-7.69,13.72-6.07,11.64-14.14,29.39-14.14,49.15s8.07,37.52,14.14,49.15c2.22,4.24,4.66,8.59,7.68,13.71,7.42,12.56,11.73,20.55,8.95,25.51-.45,1.2-2.33,2.3-4.52,2.3Zm.06-180.89c-.32,0-.65.02-.99.08-5.77.89-11.44,2.85-16.85,5.81-5.64,3.09-10.94,7.21-15.73,12.26-3.26,3.43-6.3,7.27-9.03,11.43-10.94,16.7-16.96,38.24-16.96,60.63s6.02,43.92,16.96,60.63c2.74,4.16,5.78,8.01,9.04,11.44,4.79,5.04,10.08,9.17,15.72,12.25,5.42,2.97,11.09,4.92,16.86,5.81,2.6.4,4.61-.88,5.01-1.92l.03-.07c2.65-4.74-1.61-12.62-8.95-25.04-3.02-5.12-5.47-9.48-7.7-13.73-6.09-11.68-14.19-29.51-14.19-49.37s8.1-37.69,14.19-49.37c2.23-4.25,4.67-8.62,7.7-13.74l.34-.58c6.54-11.08,11.72-19.83,8.66-24.37h-.05s-.06-.17-.06-.17c-.3-.93-1.9-1.99-4.01-1.99Zm4.02,2s0,0,0,0h0Zm.45-.14h0s0,0,0,0Z" style="fill:#0878ff; stroke-width:0px;"/><path d="m113.46,466.3c-.34,0-.69-.07-1.03-.2-4.5-1.8-8.87-4.39-12.98-7.71-4.13-3.34-8.01-7.42-11.52-12.13-12.05-16.16-18.69-37.87-18.69-61.16s6.64-45,18.69-61.16c3.51-4.71,7.39-8.79,11.52-12.13,4.11-3.32,8.47-5.92,12.98-7.71,1.11-.44,2.32-.14,3.08.78.75.91.83,2.14.2,3.14l-.03.05c-6.25,9.93-13.33,21.18-19.03,34.14-6.64,15.08-9.86,29.11-9.86,42.9s3.23,27.82,9.86,42.9c5.7,12.95,12.78,24.21,19.03,34.13l-.29.25.32-.2c.63,1,.55,2.23-.2,3.14-.53.64-1.27.98-2.05.98Zm0-161.64c-.24,0-.49.05-.75.15-4.43,1.77-8.73,4.33-12.78,7.6-4.08,3.3-7.91,7.34-11.39,11.99-11.96,16.03-18.54,37.58-18.54,60.7s6.58,44.68,18.54,60.7c3.47,4.66,7.3,8.69,11.39,11.99,4.05,3.27,8.35,5.83,12.78,7.6.97.39,1.78-.03,2.22-.56.43-.52.69-1.38.15-2.25l-.03-.05c-6.26-9.95-13.36-21.23-19.08-34.23-6.68-15.18-9.93-29.31-9.93-43.2s3.25-28.02,9.93-43.2c5.72-13,12.82-24.28,19.08-34.23l.03-.05c.55-.87.28-1.73-.15-2.25-.32-.38-.83-.71-1.47-.71Z" style="fill:#0878ff; stroke-width:0px;"/><path d="m8.96,259.66h-1.35v-19.93h1.35l7.63,18.3,7.61-18.3h1.38v19.93h-1.35v-10.92c0-.82,0-1.55.01-2.18,0-.63.02-1.19.03-1.68,0-.5.02-.94.04-1.32.02-.38.04-.74.06-1.08l-7.1,17.18h-1.35l-7.1-17.09c.04.28.07.97.1,2.06.03,1.09.04,2.47.04,4.11v10.92Z" style="stroke-width:0px;"/><path d="m48.15,249.7c0,2.02-.4,3.8-1.21,5.35-.8,1.54-1.91,2.76-3.33,3.63-1.41.88-3.05,1.32-4.9,1.32s-3.46-.44-4.88-1.32c-1.42-.88-2.53-2.09-3.33-3.63-.8-1.54-1.19-3.33-1.19-5.35s.4-3.8,1.21-5.35c.8-1.54,1.91-2.76,3.33-3.64,1.41-.88,3.04-1.32,4.87-1.32s3.48.44,4.9,1.32c1.41.88,2.52,2.09,3.33,3.64.8,1.54,1.21,3.33,1.21,5.35Zm-1.38,0c0-1.78-.34-3.34-1.02-4.69-.68-1.35-1.63-2.4-2.83-3.17s-2.61-1.15-4.2-1.15-2.96.38-4.17,1.15-2.15,1.82-2.83,3.17c-.68,1.35-1.02,2.91-1.02,4.69s.34,3.32,1.02,4.67c.68,1.36,1.63,2.42,2.83,3.19s2.6,1.15,4.17,1.15,2.99-.38,4.2-1.15,2.15-1.83,2.83-3.19c.68-1.36,1.02-2.91,1.02-4.67Z" style="stroke-width:0px;"/><path d="m53.23,259.66h-1.35v-19.93h1.38l11.93,18.05h-.25v-18.05h1.35v19.93h-1.35l-11.93-18.05h.22v18.05Z" style="stroke-width:0px;"/><path d="m69.03,240.97v-1.24h13.87v1.24h-13.87Zm7.61-.67v19.37h-1.35v-19.37h1.35Z" style="stroke-width:0px;"/><path d="m83.06,259.66h-1.35l7.38-19.93h1.99l7.47,19.93h-1.38l-2.11-5.59h-9.94l-2.08,5.59Zm6.85-18.5l-4.32,11.68h9.04l-4.38-11.68c-.02-.09-.05-.18-.08-.27-.04-.08-.07-.16-.08-.24-.02.06-.04.14-.07.24-.03.1-.06.19-.1.27Z" style="stroke-width:0px;"/><path d="m102.8,259.66h-1.35v-19.93h1.38l11.93,18.05h-.25v-18.05h1.35v19.93h-1.35l-11.93-18.05h.22v18.05Z" style="stroke-width:0px;"/><path d="m120.09,259.66h-1.35l7.38-19.93h1.99l7.47,19.93h-1.38l-2.11-5.59h-9.94l-2.08,5.59Zm6.85-18.5l-4.32,11.68h9.04l-4.38-11.68c-.02-.09-.05-.18-.08-.27-.04-.08-.07-.16-.08-.24-.02.06-.04.14-.07.24-.03.1-.06.19-.1.27Z" style="stroke-width:0px;"/><path d="m157.81,259.66h-12.8v-1.12l6.32-5.59c1.03-.9,1.87-1.68,2.53-2.36.65-.67,1.16-1.29,1.53-1.84.36-.55.62-1.1.77-1.64.15-.54.22-1.13.22-1.77,0-1.44-.42-2.58-1.26-3.42-.84-.84-1.98-1.26-3.42-1.26s-2.69.51-3.62,1.52c-.94,1.01-1.43,2.35-1.49,4.01h-1.35c.06-1.37.36-2.56.91-3.58.55-1.02,1.31-1.81,2.27-2.37s2.07-.84,3.33-.84c1.18,0,2.22.25,3.12.74.9.5,1.6,1.18,2.11,2.06.5.88.76,1.9.76,3.06,0,.73-.09,1.42-.27,2.06-.18.65-.48,1.29-.9,1.94-.42.65-.99,1.34-1.71,2.09-.72.75-1.63,1.61-2.74,2.58l-5.87,5.19-.34-.7h11.9v1.23Z" style="stroke-width:0px;"/><path d="m160.84,249.7c0-2.08.31-3.89.93-5.43s1.51-2.75,2.67-3.61c1.16-.86,2.55-1.29,4.18-1.29s3.02.43,4.18,1.29c1.16.86,2.05,2.06,2.67,3.61s.93,3.35.93,5.43-.31,3.89-.93,5.43-1.51,2.75-2.67,3.61c-1.16.86-2.55,1.29-4.18,1.29s-3.02-.43-4.18-1.29c-1.16-.86-2.05-2.06-2.67-3.61s-.93-3.35-.93-5.43Zm1.32,0c0,1.8.25,3.38.76,4.74.51,1.37,1.24,2.43,2.2,3.19.96.76,2.13,1.14,3.49,1.14s2.53-.38,3.49-1.14c.96-.76,1.7-1.82,2.2-3.19.51-1.37.76-2.95.76-4.74s-.25-3.4-.76-4.76c-.5-1.36-1.24-2.41-2.2-3.17-.96-.76-2.13-1.14-3.49-1.14s-2.53.38-3.49,1.14c-.96.76-1.7,1.82-2.2,3.17-.51,1.36-.76,2.94-.76,4.76Z" style="stroke-width:0px;"/><path d="m192.08,259.66h-12.8v-1.12l6.32-5.59c1.03-.9,1.87-1.68,2.53-2.36.65-.67,1.16-1.29,1.53-1.84.36-.55.62-1.1.77-1.64.15-.54.22-1.13.22-1.77,0-1.44-.42-2.58-1.26-3.42-.84-.84-1.98-1.26-3.42-1.26s-2.69.51-3.62,1.52c-.94,1.01-1.43,2.35-1.49,4.01h-1.35c.06-1.37.36-2.56.91-3.58.55-1.02,1.31-1.81,2.27-2.37s2.07-.84,3.33-.84c1.18,0,2.22.25,3.12.74.9.5,1.6,1.18,2.11,2.06.5.88.76,1.9.76,3.06,0,.73-.09,1.42-.27,2.06-.18.65-.48,1.29-.9,1.94-.42.65-.99,1.34-1.71,2.09-.72.75-1.63,1.61-2.74,2.58l-5.87,5.19-.34-.7h11.9v1.23Z" style="stroke-width:0px;"/><path d="m193.71,254.02l10.08-14.29h1.49l-10.05,14.29h-1.52Zm14.29,1.24h-14.29v-1.24h14.29v1.24Zm-2.33-15.52v19.93h-1.35v-19.93h1.35Z" style="stroke-width:0px;"/><line x1="270.85" y1="227" x2="316.21" y2="227" style="fill:none; stroke:#0978ff; stroke-miterlimit:10; stroke-width:.5px;"/><line x1="270.85" y1="136.47" x2="270.85" y2="226.81" style="fill:none; stroke:#0978ff; stroke-miterlimit:10; stroke-width:.5px;"/><line x1="316.02" y1="136.47" x2="316.02" y2="226.81" style="fill:none; stroke:#0978ff; stroke-miterlimit:10; stroke-width:.5px;"/><line x1="225.68" y1="181.83" x2="361.19" y2="181.83" style="fill:none; stroke:#0978ff; stroke-miterlimit:10; stroke-width:.5px;"/><line x1="44.99" y1="497.44" x2="44.99" y2="542.43" style="fill:none; stroke:#0978ff; stroke-miterlimit:10; stroke-width:.5px;"/><line x1="90.16" y1="497.44" x2="90.16" y2="542.43" style="fill:none; stroke:#0978ff; stroke-miterlimit:10; stroke-width:.5px;"/><line x1="135.42" y1="497.85" x2="135.42" y2="542.43" style="fill:none; stroke:#0978ff; stroke-miterlimit:10; stroke-width:.5px;"/><line x1="180.5" y1="497.85" x2="180.5" y2="542.43" style="fill:none; stroke:#0978ff; stroke-miterlimit:10; stroke-width:.5px;"/><line x1="225.59" y1="497.85" x2="225.59" y2="542.43" style="fill:none; stroke:#0978ff; stroke-miterlimit:10; stroke-width:.5px;"/><line x1="316.02" y1="497.63" x2="361.38" y2="497.63" style="fill:none; stroke:#0978ff; stroke-miterlimit:10; stroke-width:.5px;"/><line x1="316.02" y1="452.64" x2="361.38" y2="452.64" style="fill:none; stroke:#0978ff; stroke-miterlimit:10; stroke-width:.5px;"/></svg>