<?xml version="1.0" encoding="UTF-8"?><svg id="Layer_1" xmlns="http://www.w3.org/2000/svg" viewBox="0 0 1332.48 973.93"><g id="Event_title"><g style="isolation:isolate;"><path d="m8.46,415.99H.35v-119.9h8.11l45.93,110.1,45.76-110.1h8.27v119.9h-8.11v-65.69c0-4.95.03-9.31.08-13.09.06-3.77.11-7.15.17-10.13.06-2.98.14-5.63.25-7.94.11-2.31.22-4.48.34-6.5l-42.72,103.35h-8.11L7.61,313.15c.22,1.69.42,5.83.59,12.41.17,6.59.25,14.83.25,24.74v65.69Z" style="fill:#0978ff; stroke-width:0px;"/><path d="m159.09,418.01c-8.67,0-15.4-2.2-20.18-6.59-4.79-4.39-7.18-10.02-7.18-16.89,0-7.43,2.7-13.4,8.11-17.9,5.4-4.5,12.83-7.15,22.29-7.94l27.86-2.2v-3.04c0-6.08-1.07-10.83-3.21-14.27-2.14-3.43-5.01-5.83-8.61-7.18-3.6-1.35-7.54-2.03-11.82-2.03-7.54,0-13.43,1.66-17.65,4.98-4.22,3.32-6.33,7.97-6.33,13.93h-7.77c0-5.29,1.32-9.88,3.97-13.76,2.64-3.88,6.39-6.89,11.23-9.03,4.84-2.14,10.41-3.21,16.72-3.21,5.85,0,11.12.99,15.79,2.96,4.67,1.97,8.41,5.12,11.23,9.46,2.81,4.34,4.22,9.99,4.22,16.97v53.7h-6.25l-1.52-15.2c-2.82,5.52-6.92,9.77-12.33,12.75-5.4,2.98-11.6,4.48-18.58,4.48Zm1.01-6.92c9.57,0,16.94-3.15,22.12-9.46,5.18-6.3,7.77-14.41,7.77-24.32v-4.39l-27.19,2.2c-8.22.68-14.16,2.82-17.82,6.42-3.66,3.6-5.49,7.88-5.49,12.83,0,5.52,1.91,9.68,5.74,12.5,3.83,2.82,8.78,4.22,14.86,4.22Z" style="fill:#0978ff; stroke-width:0px;"/><path d="m260.75,333.75v6.75h-6.08c-7.54,0-13.57,2.45-18.07,7.35-4.5,4.9-6.75,11.17-6.75,18.83v49.31h-7.77v-81.06h7.26l.84,15.54h-.84c1.12-5.29,3.91-9.54,8.36-12.75,4.45-3.21,9.77-4.81,15.96-4.81,1.24,0,2.39.06,3.46.17,1.07.11,2.28.34,3.63.68Z" style="fill:#0978ff; stroke-width:0px;"/><path d="m267.17,375.8c0-8.55,1.6-16.04,4.81-22.46,3.21-6.42,7.68-11.43,13.43-15.03,5.74-3.6,12.5-5.4,20.26-5.4,8.67,0,16.07,2.36,22.21,7.09,6.13,4.73,10.1,10.92,11.91,18.58h-7.94c-1.69-5.97-4.98-10.58-9.88-13.85-4.9-3.26-10.33-4.9-16.3-4.9s-11.29,1.46-15.96,4.39c-4.67,2.93-8.33,7.07-10.98,12.41-2.65,5.35-3.97,11.68-3.97,19s1.24,13.12,3.72,18.41c2.47,5.29,5.97,9.43,10.47,12.41,4.5,2.98,9.74,4.48,15.71,4.48,6.53,0,12.3-1.69,17.31-5.07,5.01-3.38,8.41-7.82,10.22-13.34h7.94c-1.46,5.07-3.88,9.51-7.26,13.34-3.38,3.83-7.49,6.81-12.33,8.95-4.84,2.14-10.13,3.21-15.87,3.21-7.43,0-13.96-1.77-19.59-5.32-5.63-3.55-10.02-8.47-13.17-14.78-3.15-6.3-4.73-13.68-4.73-22.12Z" style="fill:#0978ff; stroke-width:0px;"/><path d="m366.29,415.82h-7.77v-121.76h7.77v56.57c2.59-5.29,6.39-9.57,11.4-12.83,5.01-3.26,11.12-4.9,18.32-4.9,10.92,0,18.77,3.1,23.56,9.29,4.78,6.19,7.18,14.35,7.18,24.49v49.31h-7.77v-47.79c0-7.2-.99-12.83-2.96-16.89-1.97-4.05-4.73-6.95-8.27-8.7-3.55-1.74-7.63-2.62-12.24-2.62-6.42,0-11.79,1.46-16.13,4.39-4.34,2.93-7.6,6.81-9.79,11.65-2.2,4.84-3.29,10.13-3.29,15.87v43.91Z" style="fill:#0978ff; stroke-width:0px;"/><path d="m486.87,296.09h79.37v7.43h-79.37v-7.43Zm73.46,2.2l5.91,5.23-48.64,112.47h-8.44l51.17-117.7Z" style="fill:#0978ff; stroke-width:0px;"/></g></g><rect x=".94" y="24.74" width="7.92" height="117.1" style="stroke-width:0px;"/><path d="m65.43,60.69c-5.94,0-11.44,1.51-16.49,4.54-5.06,3.02-8.91,7.29-11.55,12.78l-1.65-15.34h-6.1v79.17h7.59v-40.9c0-10,2.42-18.06,7.26-24.16,4.84-6.1,11.76-9.15,20.78-9.15,7.15,0,12.84,1.98,17.07,5.94,4.23,3.96,6.35,11.16,6.35,21.61v46.68h7.59v-48.16c0-9.9-2.34-17.87-7.01-23.92-4.68-6.05-12.62-9.07-23.83-9.07Z" style="stroke-width:0px;"/><path d="m149.54,60.69c-5.94,0-11.44,1.51-16.49,4.54-5.06,3.02-8.91,7.29-11.55,12.78l-1.65-15.34h-6.1v79.17h7.59v-40.9c0-10,2.42-18.06,7.26-24.16,4.84-6.1,11.76-9.15,20.78-9.15,7.15,0,12.84,1.98,17.07,5.94,4.23,3.96,6.35,11.16,6.35,21.61v46.68h7.59v-48.16c0-9.9-2.34-17.87-7.01-23.92-4.68-6.05-12.62-9.07-23.83-9.07Z" style="stroke-width:0px;"/><path d="m251.39,66.14c-5.88-3.63-12.62-5.44-20.2-5.44s-14.18,1.81-20.12,5.44c-5.94,3.63-10.61,8.55-14.02,14.76-3.41,6.21-5.11,13.33-5.11,21.36s1.7,15.01,5.11,21.28c3.41,6.27,8.08,11.22,14.02,14.84,5.94,3.63,12.64,5.44,20.12,5.44s14.32-1.81,20.2-5.44c5.88-3.63,10.53-8.58,13.94-14.84,3.41-6.27,5.11-13.36,5.11-21.28s-1.71-15.15-5.11-21.36c-3.41-6.21-8.06-11.13-13.94-14.76Zm7.26,54.02c-2.7,5.22-6.41,9.32-11.13,12.29-4.73,2.97-10.17,4.45-16.33,4.45s-11.6-1.48-16.33-4.45c-4.73-2.97-8.44-7.06-11.13-12.29-2.7-5.22-4.04-11.19-4.04-17.9s1.35-12.81,4.04-17.98c2.69-5.17,6.4-9.24,11.13-12.21,4.73-2.97,10.17-4.45,16.33-4.45s11.6,1.48,16.33,4.45c4.73,2.97,8.44,7.04,11.13,12.21,2.69,5.17,4.04,11.16,4.04,17.98s-1.35,12.67-4.04,17.9Z" style="stroke-width:0px;"/><path d="m317.28,120.23c-.88,2.2-1.73,4.35-2.56,6.43-.82,2.09-1.68,4.56-2.56,7.42-.88-2.86-1.73-5.36-2.56-7.5s-1.68-4.26-2.56-6.35l-23.59-57.56h-8.08l32.82,79.17h7.75l32.82-79.17h-7.92l-23.59,57.56Z" style="stroke-width:0px;"/><path d="m404.78,63.58c-4.56-1.92-9.7-2.89-15.42-2.89-6.16,0-11.6,1.05-16.33,3.13-4.73,2.09-8.39,5.03-10.97,8.82-2.58,3.79-3.88,8.27-3.88,13.44h7.59c0-5.83,2.06-10.36,6.19-13.61,4.12-3.24,9.87-4.87,17.24-4.87,4.18,0,8.03.66,11.55,1.98,3.52,1.32,6.32,3.66,8.41,7.01,2.09,3.36,3.13,8,3.13,13.94v2.97l-27.21,2.14c-9.24.77-16.49,3.36-21.77,7.75-5.28,4.4-7.92,10.23-7.92,17.48,0,6.71,2.33,12.2,7.01,16.49,4.67,4.29,11.24,6.43,19.71,6.43,6.82,0,12.87-1.46,18.14-4.37s9.29-7.06,12.04-12.45l1.48,14.84h6.1v-52.45c0-6.82-1.38-12.34-4.12-16.58-2.75-4.23-6.41-7.31-10.97-9.24Zm7.5,40.49c0,9.68-2.53,17.59-7.59,23.75-5.06,6.16-12.26,9.24-21.61,9.24-5.94,0-10.78-1.37-14.51-4.12-3.74-2.75-5.61-6.82-5.61-12.21,0-4.84,1.79-9.01,5.36-12.53,3.57-3.52,9.37-5.61,17.4-6.27l26.56-2.14v4.29Z" style="stroke-width:0px;"/><polygon points="456.65 37.6 449.07 37.6 449.07 62.67 433.07 62.67 433.07 69.27 449.07 69.27 449.07 141.84 456.65 141.84 456.65 69.27 472.65 69.27 472.65 62.67 456.65 62.67 456.65 37.6" style="stroke-width:0px;"/><path d="m533.76,65.31c-5.22-3.08-11.3-4.62-18.23-4.62-7.37,0-13.83,1.76-19.38,5.28-5.55,3.52-9.9,8.41-13.03,14.68-3.13,6.27-4.7,13.53-4.7,21.77s1.59,15.48,4.78,21.69c3.19,6.21,7.64,11.05,13.36,14.51,5.72,3.46,12.37,5.2,19.96,5.2,8.91,0,16.19-2.09,21.85-6.27,5.66-4.18,9.65-10.33,11.96-18.47h-7.75c-1.54,5.83-4.51,10.25-8.91,13.28-4.4,3.03-10.12,4.54-17.15,4.54-9.57,0-17.05-3.19-22.43-9.57-5.12-6.06-7.8-14.37-8.06-24.9h64.3v-5.28c0-7.26-1.46-13.61-4.37-19.05-2.91-5.44-6.98-9.7-12.2-12.78Zm-47.53,30.84c.45-4.72,1.61-8.98,3.49-12.78,2.47-5,5.94-8.88,10.39-11.63,4.45-2.75,9.59-4.12,15.42-4.12,8.14,0,14.68,2.61,19.63,7.83,4.95,5.22,7.42,12.12,7.42,20.7h-56.35Z" style="stroke-width:0px;"/><polygon points="694 78.67 625.88 78.67 625.88 24.74 617.96 24.74 617.96 141.84 618.08 212.31 581.59 175.82 576.15 181.27 621.93 227.05 667.71 181.27 662.27 175.82 625.78 212.31 625.88 141.84 625.88 85.93 694 85.93 694 141.84 701.91 141.84 701.91 24.74 694 24.74 694 78.67" style="stroke-width:0px;"/><path d="m778.69,65.31c-5.22-3.08-11.3-4.62-18.23-4.62-7.37,0-13.83,1.76-19.38,5.28-5.55,3.52-9.9,8.41-13.03,14.68-3.13,6.27-4.7,13.53-4.7,21.77s1.59,15.48,4.78,21.69c3.19,6.21,7.64,11.05,13.36,14.51,5.72,3.46,12.37,5.2,19.96,5.2,8.91,0,16.19-2.09,21.85-6.27,5.66-4.18,9.65-10.33,11.96-18.47h-7.75c-1.54,5.83-4.51,10.25-8.91,13.28-4.4,3.03-10.12,4.54-17.15,4.54-9.57,0-17.05-3.19-22.43-9.57-5.12-6.06-7.8-14.37-8.06-24.9h64.3v-5.28c0-7.26-1.46-13.61-4.37-19.05-2.91-5.44-6.98-9.7-12.2-12.78Zm-47.53,30.84c.45-4.72,1.61-8.98,3.49-12.78,2.47-5,5.94-8.88,10.39-11.63,4.45-2.75,9.59-4.12,15.42-4.12,8.14,0,14.68,2.61,19.63,7.83,4.95,5.22,7.42,12.12,7.42,20.7h-56.35Z" style="stroke-width:0px;"/><path d="m845.24,60.69c-6.05,0-11.24,1.57-15.59,4.7-3.63,2.62-6.11,5.96-7.47,9.99l-.69-12.71h-7.09v79.17h7.59v-48.16c0-7.48,2.2-13.61,6.6-18.39,4.4-4.78,10.28-7.17,17.65-7.17h5.94v-6.6c-1.32-.33-2.5-.55-3.55-.66-1.05-.11-2.17-.16-3.38-.16Z" style="stroke-width:0px;"/><path d="m927.38,97.14c0-7.26-1.46-13.61-4.37-19.05-2.91-5.44-6.98-9.7-12.2-12.78-5.22-3.08-11.3-4.62-18.23-4.62-7.37,0-13.83,1.76-19.38,5.28-5.55,3.52-9.9,8.41-13.03,14.68-3.13,6.27-4.7,13.53-4.7,21.77s1.59,15.48,4.78,21.69c3.19,6.21,7.64,11.05,13.36,14.51,5.72,3.46,12.37,5.2,19.96,5.2,8.91,0,16.19-2.09,21.85-6.27,5.66-4.18,9.65-10.33,11.96-18.47h-7.75c-1.54,5.83-4.51,10.25-8.91,13.28-4.4,3.03-10.12,4.54-17.15,4.54-9.57,0-17.05-3.19-22.43-9.57-5.12-6.06-7.8-14.37-8.06-24.9h64.3v-5.28Zm-64.11-.99c.45-4.72,1.61-8.98,3.49-12.78,2.47-5,5.94-8.88,10.39-11.63,4.45-2.75,9.59-4.12,15.42-4.12,8.14,0,14.68,2.61,19.63,7.83,4.95,5.22,7.42,12.12,7.42,20.7h-56.35Z" style="stroke-width:0px;"/><path d="m7.72,227.05H.94v-51.1h6.79l17.6,42.97,17.6-42.97h6.93v51.1h-6.79v-26.36c0-1.7.02-3.16.07-4.38.05-1.22.09-2.32.14-3.29.05-.96.12-1.9.21-2.79l-14.91,36.82h-6.5l-14.84-36.68c.19,1.23.32,3.11.39,5.65s.11,5.61.11,9.19v21.84Z" style="stroke-width:0px;"/><path d="m107.66,201.46c0,5.18-1.05,9.77-3.15,13.75-2.1,3.98-5,7.09-8.69,9.33-3.7,2.24-7.98,3.36-12.83,3.36s-8.99-1.12-12.69-3.36c-3.7-2.24-6.59-5.34-8.66-9.29-2.07-3.96-3.11-8.55-3.11-13.78s1.05-9.75,3.15-13.71c2.1-3.96,4.98-7.07,8.66-9.33,3.68-2.26,7.92-3.39,12.72-3.39s9.12,1.13,12.79,3.39,6.56,5.37,8.66,9.33c2.1,3.96,3.15,8.53,3.15,13.71Zm-7.28,0c0-3.96-.72-7.42-2.16-10.39-1.44-2.97-3.45-5.27-6.04-6.89-2.59-1.63-5.63-2.44-9.12-2.44s-6.46.81-9.05,2.44c-2.59,1.63-4.61,3.92-6.04,6.89-1.44,2.97-2.16,6.43-2.16,10.39s.72,7.42,2.16,10.39c1.44,2.97,3.45,5.28,6.04,6.93,2.59,1.65,5.61,2.47,9.05,2.47s6.53-.84,9.12-2.51c2.59-1.67,4.61-3.99,6.04-6.96,1.44-2.97,2.16-6.41,2.16-10.32Z" style="stroke-width:0px;"/><path d="m123.29,227.05h-6.93v-51.1h6.93l28.06,42.41h-1.91v-42.41h6.93v51.1h-6.93l-28.06-42.41h1.91v42.41Z" style="stroke-width:0px;"/><path d="m163.15,182.31v-6.36h37.67v6.36h-37.67Zm22.33-3.18v47.92h-6.93v-47.92h6.93Z" style="stroke-width:0px;"/><path d="m205.2,227.05h-7.21l18.66-51.1h7.7l18.73,51.1h-7.28l-4.59-12.72h-21.49l-4.52,12.72Zm14.42-40.08l-7.77,21.35h17.32l-7.85-21.35c-.14-.52-.31-1.05-.49-1.59-.19-.54-.31-1-.35-1.38-.09.38-.21.84-.35,1.38-.14.54-.31,1.07-.49,1.59Z" style="stroke-width:0px;"/><path d="m256.66,227.05h-6.93v-51.1h6.93l28.06,42.41h-1.91v-42.41h6.93v51.1h-6.93l-28.06-42.41h1.91v42.41Z" style="stroke-width:0px;"/><path d="m303.59,227.05h-7.21l18.66-51.1h7.7l18.73,51.1h-7.28l-4.59-12.72h-21.49l-4.52,12.72Zm14.42-40.08l-7.77,21.35h17.32l-7.85-21.35c-.14-.52-.31-1.05-.49-1.59-.19-.54-.31-1-.35-1.38-.09.38-.21.84-.35,1.38-.14.54-.31,1.07-.49,1.59Z" style="stroke-width:0px;"/><path d="m399.08,226.98l-34.49.07v-5.3l16.47-14.21c2.07-1.74,3.79-3.32,5.16-4.74,1.37-1.41,2.45-2.72,3.25-3.92.8-1.2,1.37-2.39,1.7-3.57.33-1.18.49-2.45.49-3.82,0-3.2-.86-5.71-2.58-7.53-1.72-1.81-4.13-2.72-7.24-2.72s-5.69,1.07-7.6,3.22c-1.91,2.15-2.89,5.03-2.93,8.66h-6.93c.09-3.63.87-6.81,2.33-9.54,1.46-2.73,3.5-4.84,6.11-6.33,2.61-1.48,5.64-2.23,9.08-2.23s6.41.66,8.91,1.98c2.5,1.32,4.44,3.17,5.83,5.55,1.39,2.38,2.09,5.22,2.09,8.52,0,1.79-.24,3.5-.71,5.12-.47,1.63-1.21,3.23-2.23,4.81-1.01,1.58-2.32,3.21-3.92,4.88-1.6,1.67-3.53,3.5-5.8,5.48l-13.36,11.59-2.33-2.4h28.7v6.43Z" style="stroke-width:0px;"/><path d="m405.3,201.53c0-5.28.86-9.91,2.58-13.89,1.72-3.98,4.16-7.09,7.32-9.33,3.16-2.24,6.88-3.36,11.17-3.36s8,1.12,11.13,3.36c3.13,2.24,5.56,5.35,7.28,9.33,1.72,3.98,2.58,8.61,2.58,13.89s-.84,9.97-2.51,13.92c-1.67,3.96-4.08,7.03-7.21,9.22-3.13,2.19-6.89,3.29-11.27,3.29s-8.15-1.1-11.31-3.29c-3.16-2.19-5.57-5.27-7.24-9.22-1.67-3.96-2.51-8.6-2.51-13.92Zm6.86,0c0,4.19.57,7.81,1.7,10.85,1.13,3.04,2.74,5.36,4.84,6.96,2.1,1.6,4.65,2.4,7.67,2.4s5.51-.8,7.63-2.4c2.12-1.6,3.73-3.92,4.84-6.96,1.11-3.04,1.66-6.66,1.66-10.85s-.55-7.88-1.66-10.92c-1.11-3.04-2.72-5.37-4.84-7-2.12-1.63-4.67-2.44-7.63-2.44s-5.57.81-7.67,2.44c-2.1,1.63-3.71,3.96-4.84,7-1.13,3.04-1.7,6.68-1.7,10.92Z" style="stroke-width:0px;"/><path d="m488.42,226.98l-34.49.07v-5.3l16.47-14.21c2.07-1.74,3.79-3.32,5.16-4.74,1.37-1.41,2.45-2.72,3.25-3.92.8-1.2,1.37-2.39,1.7-3.57.33-1.18.49-2.45.49-3.82,0-3.2-.86-5.71-2.58-7.53-1.72-1.81-4.13-2.72-7.24-2.72s-5.69,1.07-7.6,3.22c-1.91,2.15-2.89,5.03-2.93,8.66h-6.93c.09-3.63.87-6.81,2.33-9.54,1.46-2.73,3.5-4.84,6.11-6.33,2.62-1.48,5.64-2.23,9.08-2.23s6.41.66,8.91,1.98c2.5,1.32,4.44,3.17,5.83,5.55,1.39,2.38,2.08,5.22,2.08,8.52,0,1.79-.24,3.5-.71,5.12-.47,1.63-1.21,3.23-2.23,4.81-1.01,1.58-2.32,3.21-3.92,4.88-1.6,1.67-3.53,3.5-5.8,5.48l-13.36,11.59-2.33-2.4h28.7v6.43Z" style="stroke-width:0px;"/><path d="m492.16,210.58l24.1-34.63h7.42l-24.31,35.06-7.21-.42Zm39.16,6.15h-39.16v-6.15h39.16v6.15Zm-6.08-40.78v51.1h-6.64v-51.1h6.64Z" style="stroke-width:0px;"/><path d="m4.56,905.35h237.06c86.91,0,165.9-49.83,203.96-127.96,41.4-84.97,106.5-181.08,189.41-181.76,77.04-.63,129.55,82.45,162.28,162.72,36.4,89.27,123.97,147.01,220.38,147.01h314.84" style="fill:none; stroke:#0978ff; stroke-miterlimit:10; stroke-width:5px;"/><path d="m6.26,870.82h174.41c37.46,0,72.93-16.96,96.31-46.23,36.22-45.35,103.22-107.86,197.89-108.63,92.44-.76,153.82,59.23,187.04,104.75,23.09,31.65,60.11,50.11,99.29,50.11h571.28" style="fill:none; stroke:#0978ff; stroke-miterlimit:10; stroke-width:5px;"/><path d="m4.56,833.5h560.4c56.08,0,111.27-13.34,161.5-38.26,38.71-19.21,96.02-38.57,170.4-39.18,70.66-.58,123.17,16.86,158.83,35.34,52.8,27.35,111.21,42.1,170.68,42.1h106.12" style="fill:none; stroke:#0978ff; stroke-miterlimit:10; stroke-width:5px;"/><circle cx="119.63" cy="905.35" r="17.18" style="fill:#0978ff; stroke:#fff; stroke-miterlimit:10; stroke-width:5px;"/><circle cx="570.6" cy="738.89" r="17.18" style="fill:#0978ff; stroke:#fff; stroke-miterlimit:10; stroke-width:5px;"/><circle cx="1222.74" cy="833.5" r="17.18" style="fill:#0978ff; stroke:#fff; stroke-miterlimit:10; stroke-width:5px;"/><path d="m4.56,941.83h319.69c25.55,0,50.68-6.12,73.55-17.52,15.04-7.49,36.02-13.64,60.85-9.31,12.97,2.26,23.14,5.95,30.94,9.89,22.38,11.29,47.18,16.94,72.25,16.94h770.63" style="fill:none; stroke:#0978ff; stroke-miterlimit:10; stroke-width:5px;"/><circle cx="820.15" cy="941.83" r="17.18" style="fill:#0978ff; stroke:#fff; stroke-miterlimit:10; stroke-width:5px;"/></svg>